G04*
G04 #@! TF.GenerationSoftware,Altium Limited,Altium Designer,20.2.8 (258)*
G04*
G04 Layer_Physical_Order=1*
G04 Layer_Color=255*
%FSLAX25Y25*%
%MOIN*%
G70*
G04*
G04 #@! TF.SameCoordinates,EDA4C1AF-4C8F-4A80-A391-42A014D8E1DD*
G04*
G04*
G04 #@! TF.FilePolarity,Positive*
G04*
G01*
G75*
%ADD15C,0.01000*%
%ADD24R,0.04921X0.07874*%
%ADD25R,0.04231X0.02118*%
G04:AMPARAMS|DCode=26|XSize=42.31mil|YSize=21.18mil|CornerRadius=10.59mil|HoleSize=0mil|Usage=FLASHONLY|Rotation=180.000|XOffset=0mil|YOffset=0mil|HoleType=Round|Shape=RoundedRectangle|*
%AMROUNDEDRECTD26*
21,1,0.04231,0.00000,0,0,180.0*
21,1,0.02113,0.02118,0,0,180.0*
1,1,0.02118,-0.01056,0.00000*
1,1,0.02118,0.01056,0.00000*
1,1,0.02118,0.01056,0.00000*
1,1,0.02118,-0.01056,0.00000*
%
%ADD26ROUNDEDRECTD26*%
%ADD28R,0.08898X0.08504*%
%ADD33R,0.07874X0.04921*%
%ADD35R,0.01181X0.02362*%
%ADD36R,0.02362X0.01181*%
%ADD37R,0.13583X0.13583*%
%ADD38R,0.16700X0.15000*%
%ADD44R,0.07874X0.07874*%
%ADD45C,0.07874*%
%ADD53R,0.05118X0.05118*%
%ADD54C,0.05118*%
%ADD58R,0.03937X0.03543*%
%ADD59R,0.04331X0.06693*%
%ADD60R,0.07874X0.04724*%
%ADD61R,0.01181X0.01378*%
%ADD62R,0.06299X0.04331*%
%ADD63R,0.03543X0.03937*%
%ADD64R,0.10236X0.02559*%
%ADD65R,0.37795X0.30709*%
%ADD66R,0.09331X0.13268*%
%ADD67O,0.07284X0.01378*%
G04:AMPARAMS|DCode=68|XSize=64.57mil|YSize=16.14mil|CornerRadius=2.02mil|HoleSize=0mil|Usage=FLASHONLY|Rotation=90.000|XOffset=0mil|YOffset=0mil|HoleType=Round|Shape=RoundedRectangle|*
%AMROUNDEDRECTD68*
21,1,0.06457,0.01211,0,0,90.0*
21,1,0.06053,0.01614,0,0,90.0*
1,1,0.00404,0.00605,0.03027*
1,1,0.00404,0.00605,-0.03027*
1,1,0.00404,-0.00605,-0.03027*
1,1,0.00404,-0.00605,0.03027*
%
%ADD68ROUNDEDRECTD68*%
%ADD69R,0.06693X0.03150*%
%ADD70R,0.07480X0.05118*%
%ADD71C,0.01500*%
%ADD72C,0.03000*%
%ADD73C,0.02000*%
%ADD74C,0.06000*%
%ADD75C,0.06496*%
%ADD76R,0.06496X0.06496*%
%ADD77R,0.06299X0.06299*%
%ADD78C,0.06299*%
%ADD79C,0.07087*%
%ADD80R,0.07087X0.07087*%
%ADD81C,0.05150*%
%ADD82R,0.05709X0.05709*%
%ADD83C,0.05709*%
%ADD84R,0.05937X0.05937*%
%ADD85C,0.05937*%
%ADD86R,0.07087X0.07087*%
%ADD87C,0.01968*%
%ADD88C,0.02362*%
G36*
X630000Y498588D02*
X534222D01*
X533832Y498511D01*
X533501Y498289D01*
X532180Y496969D01*
X529079D01*
Y495713D01*
X525347D01*
Y496768D01*
X517654D01*
Y492618D01*
X525347D01*
Y493673D01*
X529079D01*
Y492031D01*
X530331D01*
Y483468D01*
X528579D01*
Y478532D01*
X533122D01*
Y483468D01*
X532370D01*
Y492031D01*
X533622D01*
Y495527D01*
X534644Y496549D01*
X535378D01*
Y492031D01*
X538119D01*
X541725Y488425D01*
Y478311D01*
X541602Y478126D01*
X541558Y477908D01*
X538119Y474469D01*
X535378D01*
Y469925D01*
X534878Y469718D01*
X533622Y470973D01*
Y474469D01*
X529079D01*
Y472713D01*
X525846D01*
Y473768D01*
X518153D01*
Y469618D01*
X525846D01*
Y470673D01*
X529079D01*
Y469531D01*
X532180D01*
X535552Y466159D01*
X535883Y465939D01*
X536273Y465861D01*
X556560D01*
X557008Y465736D01*
X557008Y465361D01*
Y463894D01*
X546028D01*
X545637Y463816D01*
X545307Y463595D01*
X532680Y450969D01*
X529579D01*
Y449520D01*
X525347D01*
Y450575D01*
X517654D01*
Y446425D01*
X525347D01*
Y447480D01*
X529579D01*
Y446032D01*
X534122D01*
Y449527D01*
X535378Y450782D01*
X535878Y450575D01*
Y446032D01*
X540421D01*
Y447226D01*
X544674D01*
X545046Y446977D01*
X545264Y446933D01*
X545973Y446225D01*
X546386Y445949D01*
X546874Y445852D01*
X557008D01*
Y444264D01*
X564080D01*
X565729Y442614D01*
X565522Y442114D01*
X557008D01*
Y436390D01*
X565882D01*
Y441754D01*
X566382Y441961D01*
X568725Y439618D01*
Y415264D01*
X566382Y412921D01*
X565882Y413128D01*
Y418492D01*
X557008D01*
Y412768D01*
X565522D01*
X565729Y412268D01*
X564080Y410618D01*
X557008D01*
Y404894D01*
X565882D01*
Y408816D01*
X570901Y413835D01*
X571177Y414249D01*
X571275Y414736D01*
Y440146D01*
X571177Y440633D01*
X570901Y441047D01*
X565882Y446066D01*
Y449988D01*
X557008D01*
Y448400D01*
X547402D01*
X547067Y448736D01*
X547023Y448954D01*
X546695Y449445D01*
X546204Y449773D01*
X545625Y449888D01*
X545053Y449775D01*
X540421D01*
Y450969D01*
X536271D01*
X536064Y451469D01*
X546450Y461854D01*
X557008D01*
Y460012D01*
X565882D01*
X565882Y465736D01*
X566330Y465861D01*
X582697D01*
X616039Y432519D01*
X616063Y432503D01*
Y428516D01*
X624937D01*
Y434240D01*
X618736D01*
X618638Y434260D01*
X617182D01*
X583841Y467601D01*
X583510Y467823D01*
X583119Y467900D01*
X536695D01*
X535564Y469031D01*
X535771Y469531D01*
X539921D01*
Y472666D01*
X543361Y476106D01*
X543579Y476149D01*
X544070Y476477D01*
X544398Y476968D01*
X544513Y477547D01*
X544398Y478126D01*
X544275Y478311D01*
Y488953D01*
X544177Y489440D01*
X543901Y489854D01*
X539921Y493834D01*
Y496549D01*
X630000D01*
Y475242D01*
X627378Y472620D01*
X616800D01*
X616410Y472542D01*
X616079Y472321D01*
X612879Y469121D01*
X612658Y468790D01*
X612580Y468400D01*
Y460325D01*
X612658Y459935D01*
X612879Y459604D01*
X616063Y456420D01*
Y452138D01*
X622264D01*
X622362Y452118D01*
X624940D01*
X626980Y450078D01*
Y447500D01*
X627058Y447110D01*
X627279Y446779D01*
X630000Y444058D01*
Y442500D01*
X631558D01*
X633284Y440774D01*
X632944Y439953D01*
X632819Y439000D01*
X632944Y438047D01*
X633312Y437159D01*
X633897Y436397D01*
X634454Y435970D01*
X634284Y435470D01*
X632950D01*
X632560Y435392D01*
X632229Y435171D01*
X628879Y431821D01*
X628658Y431490D01*
X628580Y431100D01*
Y425000D01*
X628658Y424610D01*
X628879Y424279D01*
X631579Y421579D01*
X631910Y421358D01*
X632300Y421280D01*
X654030D01*
X654276Y420985D01*
X654211Y420509D01*
X654206Y420488D01*
X653729Y420170D01*
X653401Y419679D01*
X653314Y419241D01*
X653113Y418970D01*
X652842Y418769D01*
X652404Y418681D01*
X651913Y418353D01*
X651585Y417862D01*
X651470Y417283D01*
X651585Y416704D01*
X651913Y416213D01*
X652149Y416056D01*
Y415784D01*
X652227Y415394D01*
X652448Y415063D01*
X656022Y411489D01*
X656020Y411447D01*
X655825Y410979D01*
X655421Y410898D01*
X654930Y410570D01*
X654602Y410079D01*
X654487Y409500D01*
X654602Y408921D01*
X654930Y408430D01*
X655012Y408375D01*
Y407016D01*
X655090Y406626D01*
X655310Y406295D01*
X658567Y403038D01*
Y399182D01*
X658067Y398975D01*
X654418Y402624D01*
Y404405D01*
X654340Y404795D01*
X654119Y405126D01*
X649772Y409473D01*
Y412968D01*
X646670D01*
X644718Y414921D01*
X644387Y415142D01*
X643997Y415220D01*
X639100D01*
X638710Y415142D01*
X638379Y414921D01*
X636679Y413221D01*
X636458Y412890D01*
X636380Y412500D01*
Y407272D01*
X635430Y406322D01*
X634969Y406514D01*
Y407850D01*
X632500D01*
Y405579D01*
X634033D01*
X634225Y405117D01*
X632679Y403571D01*
X632458Y403240D01*
X632380Y402850D01*
Y399704D01*
X632330Y399670D01*
X632002Y399179D01*
X631887Y398600D01*
X632002Y398021D01*
X632330Y397530D01*
X632821Y397202D01*
X633400Y397087D01*
X633979Y397202D01*
X634470Y397530D01*
X634798Y398021D01*
X634913Y398600D01*
X634798Y399179D01*
X634470Y399670D01*
X634463Y399675D01*
X634481Y400132D01*
X634933Y400275D01*
X635030Y400130D01*
X635521Y399802D01*
X636100Y399687D01*
X636679Y399802D01*
X637170Y400130D01*
X637204Y400180D01*
X638167D01*
X638579Y399969D01*
X638579Y399680D01*
Y397500D01*
X641350D01*
X644122D01*
X644122Y399764D01*
X644343Y400099D01*
X644524Y400206D01*
X644787Y400258D01*
X645118Y400479D01*
X646670Y402032D01*
X648330D01*
X651895Y398467D01*
X651648Y398006D01*
X651579Y398020D01*
X649921D01*
Y399468D01*
X645378D01*
Y394531D01*
X649921D01*
Y395980D01*
X651156D01*
X656279Y390858D01*
X656610Y390637D01*
X657000Y390559D01*
X658067D01*
Y390110D01*
X660248D01*
Y389610D01*
X660748D01*
Y388020D01*
X661021D01*
X661114Y387956D01*
X661332Y387659D01*
X661351Y387520D01*
X659706Y385875D01*
X657928D01*
X654557Y389246D01*
X654525Y389406D01*
X654197Y389897D01*
X653706Y390225D01*
X653127Y390340D01*
X652548Y390225D01*
X652057Y389897D01*
X651729Y389406D01*
X651613Y388827D01*
X651729Y388248D01*
X652057Y387757D01*
X652548Y387429D01*
X652824Y387374D01*
X656499Y383699D01*
X656912Y383422D01*
X657400Y383326D01*
X660234D01*
X660722Y383422D01*
X661135Y383699D01*
X663003Y385567D01*
X663559D01*
Y383548D01*
X659979Y379969D01*
X656878D01*
Y375031D01*
X658130D01*
Y370697D01*
X658208Y370307D01*
X658429Y369976D01*
X658461Y369944D01*
Y365268D01*
X666941D01*
Y371386D01*
X660169D01*
Y375031D01*
X661421D01*
Y378527D01*
X665028Y382133D01*
X665528Y381926D01*
Y381453D01*
X665605Y381063D01*
X665826Y380732D01*
X666469Y380089D01*
X666216Y379635D01*
X665782Y379721D01*
X665203Y379606D01*
X664712Y379278D01*
X664384Y378787D01*
X664268Y378208D01*
X664384Y377628D01*
X664712Y377138D01*
X665203Y376810D01*
X665782Y376694D01*
X665841Y376706D01*
X667580Y374967D01*
Y366400D01*
X667658Y366010D01*
X667879Y365679D01*
X670073Y363485D01*
X670404Y363264D01*
X670794Y363187D01*
X679972D01*
X683224Y359934D01*
X683198Y359750D01*
X683175Y359703D01*
X682653Y359366D01*
X682416Y359413D01*
X681837Y359298D01*
X681346Y358970D01*
X681018Y358479D01*
X680902Y357900D01*
X680958Y357622D01*
X680095Y356759D01*
X680051Y356693D01*
X679278Y355920D01*
X645200D01*
X644810Y355842D01*
X644479Y355621D01*
X641678Y352820D01*
X626622D01*
X624520Y354922D01*
Y358100D01*
X624442Y358490D01*
X624221Y358821D01*
X613439Y369603D01*
X613108Y369824D01*
X612718Y369901D01*
X605490D01*
X605388Y370024D01*
X605326Y370584D01*
X605588Y370977D01*
X605681Y371441D01*
X605588Y371905D01*
X605326Y372298D01*
Y372541D01*
X605686Y372782D01*
X606060Y373341D01*
X606091Y373500D01*
X601516D01*
X596940D01*
X596972Y373341D01*
X597187Y373020D01*
X596919Y372520D01*
X591500D01*
X591110Y372442D01*
X590779Y372221D01*
X588460Y369901D01*
X582458D01*
X582357Y370024D01*
X582294Y370584D01*
X582557Y370977D01*
X582649Y371441D01*
X582557Y371905D01*
X582343Y372225D01*
X582425Y372513D01*
X582555Y372726D01*
X588000D01*
X588488Y372822D01*
X588901Y373099D01*
X590901Y375099D01*
X591178Y375512D01*
X591274Y376000D01*
Y385236D01*
X591398Y385421D01*
X591442Y385639D01*
X592730Y386928D01*
X593006Y387341D01*
X593103Y387829D01*
Y388032D01*
X595122D01*
Y392969D01*
X590579D01*
Y389601D01*
X590554Y389478D01*
Y388357D01*
X590000Y387802D01*
X589421Y388381D01*
Y392969D01*
X584878D01*
Y388032D01*
X586726D01*
Y388000D01*
X586823Y387512D01*
X587099Y387099D01*
X588558Y385639D01*
X588602Y385421D01*
X588726Y385236D01*
Y376528D01*
X587472Y375274D01*
X583837D01*
X583685Y375775D01*
X583780Y375838D01*
X585221Y377279D01*
X585442Y377610D01*
X585520Y378000D01*
Y382500D01*
X585442Y382890D01*
X585221Y383221D01*
X583221Y385221D01*
X582890Y385442D01*
X582500Y385520D01*
X574922D01*
X570721Y389721D01*
X570390Y389942D01*
X570000Y390020D01*
X565421D01*
Y391469D01*
X560878D01*
Y386720D01*
X559854D01*
X559622Y386910D01*
Y388500D01*
X557350D01*
Y386032D01*
X558090D01*
X558281Y385570D01*
X557680Y384968D01*
X554579D01*
Y380031D01*
X555831D01*
Y378468D01*
X554579D01*
Y373532D01*
X557680D01*
X558743Y372468D01*
X558536Y371969D01*
X554579D01*
Y371292D01*
X554192Y370975D01*
X554000Y371013D01*
X553421Y370898D01*
X552930Y370570D01*
X552602Y370079D01*
X552487Y369500D01*
X552602Y368921D01*
X552930Y368430D01*
X553421Y368102D01*
X554000Y367987D01*
X554192Y368025D01*
X554579Y367708D01*
Y367032D01*
X558980D01*
Y365469D01*
X554579D01*
Y361973D01*
X545779Y353174D01*
X545558Y352843D01*
X545480Y352453D01*
Y310477D01*
X544980Y310194D01*
X544720Y310336D01*
Y355778D01*
X548040Y359099D01*
X548100Y359087D01*
X548679Y359202D01*
X549170Y359530D01*
X549498Y360021D01*
X549613Y360600D01*
X549498Y361179D01*
X549170Y361670D01*
X548679Y361998D01*
X548215Y362090D01*
X547957Y362295D01*
X547752Y362554D01*
X547660Y363018D01*
X547332Y363509D01*
X546841Y363837D01*
X546262Y363952D01*
X545682Y363837D01*
X545191Y363509D01*
X544863Y363018D01*
X544748Y362439D01*
X544760Y362379D01*
X540379Y357998D01*
X540158Y357667D01*
X540080Y357277D01*
Y310000D01*
X515649D01*
X515649Y499351D01*
X630000Y499351D01*
Y498588D01*
D02*
G37*
G36*
X643679Y494579D02*
X644010Y494358D01*
X644400Y494280D01*
X697778D01*
X705380Y486678D01*
Y445000D01*
X697891D01*
X697580Y445500D01*
X697620Y445700D01*
Y448879D01*
X699068D01*
Y453422D01*
X694132D01*
Y448879D01*
X695580D01*
Y446122D01*
X695378Y445920D01*
X692282D01*
X692002Y446355D01*
X691995Y446420D01*
X692081Y446847D01*
Y449374D01*
X690250D01*
Y449874D01*
X689750D01*
Y454126D01*
X689645D01*
X689270Y454051D01*
X688932Y454230D01*
X688770Y454363D01*
Y459903D01*
X688692Y460294D01*
X688533Y460532D01*
X688634Y460845D01*
X688771Y461031D01*
X691119D01*
X691574Y460576D01*
X691617Y460358D01*
X691946Y459867D01*
X692436Y459539D01*
X692655Y459496D01*
X694132Y458019D01*
Y455178D01*
X699068D01*
Y459721D01*
X696034D01*
X694457Y461298D01*
X694414Y461516D01*
X694086Y462007D01*
X693595Y462335D01*
X693376Y462379D01*
X692921Y462834D01*
Y465969D01*
X688378D01*
Y461425D01*
X687878Y461217D01*
X686622Y462473D01*
Y465969D01*
X683521D01*
X677068Y472421D01*
X676764Y472625D01*
X676780Y472752D01*
X676652Y473730D01*
X676274Y474642D01*
X675673Y475425D01*
X674949Y475980D01*
X674962Y476189D01*
X675089Y476480D01*
X677830D01*
X679709Y474601D01*
X679348Y473730D01*
X679220Y472752D01*
X679348Y471773D01*
X679726Y470862D01*
X680327Y470079D01*
X681110Y469478D01*
X682022Y469100D01*
X683000Y468972D01*
X683978Y469100D01*
X684890Y469478D01*
X685673Y470079D01*
X686274Y470862D01*
X686652Y471773D01*
X686780Y472752D01*
X686652Y473730D01*
X686274Y474642D01*
X685673Y475425D01*
X684890Y476026D01*
X683978Y476404D01*
X683000Y476532D01*
X682022Y476404D01*
X681151Y476043D01*
X678973Y478221D01*
X678642Y478442D01*
X678252Y478520D01*
X673397D01*
X673364Y479020D01*
X673978Y479100D01*
X674890Y479478D01*
X675673Y480079D01*
X676274Y480862D01*
X676652Y481774D01*
X676780Y482752D01*
X676652Y483730D01*
X676274Y484642D01*
X675673Y485425D01*
X674890Y486026D01*
X673978Y486404D01*
X673000Y486532D01*
X672022Y486404D01*
X671110Y486026D01*
X670327Y485425D01*
X669726Y484642D01*
X669348Y483730D01*
X669220Y482752D01*
X669348Y481774D01*
X669726Y480862D01*
X670327Y480079D01*
X671110Y479478D01*
X672022Y479100D01*
X672636Y479020D01*
X672603Y478520D01*
X663397D01*
X663365Y479020D01*
X663978Y479100D01*
X664890Y479478D01*
X665673Y480079D01*
X666274Y480862D01*
X666652Y481774D01*
X666780Y482752D01*
X666652Y483730D01*
X666274Y484642D01*
X665673Y485425D01*
X664890Y486026D01*
X663978Y486404D01*
X663000Y486532D01*
X662022Y486404D01*
X661110Y486026D01*
X660327Y485425D01*
X659726Y484642D01*
X659348Y483730D01*
X659220Y482752D01*
X659348Y481774D01*
X659726Y480862D01*
X660327Y480079D01*
X661110Y479478D01*
X662022Y479100D01*
X662636Y479020D01*
X662603Y478520D01*
X660800D01*
X660410Y478442D01*
X660079Y478221D01*
X657379Y475521D01*
X657158Y475190D01*
X657080Y474800D01*
Y474002D01*
X656580Y473902D01*
X656274Y474642D01*
X655673Y475425D01*
X654890Y476026D01*
X653978Y476404D01*
X653000Y476532D01*
X652022Y476404D01*
X651110Y476026D01*
X650327Y475425D01*
X649726Y474642D01*
X649348Y473730D01*
X649220Y472752D01*
X649348Y471773D01*
X649726Y470862D01*
X650327Y470079D01*
X651110Y469478D01*
X652022Y469100D01*
X653000Y468972D01*
X653978Y469100D01*
X654890Y469478D01*
X655673Y470079D01*
X656274Y470862D01*
X656580Y471602D01*
X657080Y471502D01*
Y469322D01*
X655435Y467677D01*
X639919D01*
X639528Y467599D01*
X639198Y467378D01*
X638435Y466615D01*
X638341Y466688D01*
X637453Y467056D01*
X636500Y467181D01*
X635547Y467056D01*
X634659Y466688D01*
X633897Y466103D01*
X633312Y465341D01*
X632972Y464520D01*
X632500D01*
Y474858D01*
X637171Y479529D01*
X637392Y479860D01*
X637470Y480250D01*
Y484428D01*
X640922Y487880D01*
X676430D01*
X679709Y484601D01*
X679348Y483730D01*
X679220Y482752D01*
X679348Y481774D01*
X679726Y480862D01*
X680327Y480079D01*
X681110Y479478D01*
X682022Y479100D01*
X683000Y478972D01*
X683978Y479100D01*
X684890Y479478D01*
X685673Y480079D01*
X686274Y480862D01*
X686652Y481774D01*
X686780Y482752D01*
X686652Y483730D01*
X686274Y484642D01*
X685673Y485425D01*
X684890Y486026D01*
X683978Y486404D01*
X683000Y486532D01*
X682022Y486404D01*
X681151Y486043D01*
X677573Y489621D01*
X677242Y489842D01*
X676852Y489920D01*
X640500D01*
X640110Y489842D01*
X639779Y489621D01*
X635729Y485571D01*
X635508Y485240D01*
X635430Y484850D01*
Y480672D01*
X632962Y478204D01*
X632500Y478395D01*
Y496549D01*
X641709D01*
X643679Y494579D01*
D02*
G37*
G36*
X630000Y471705D02*
Y464520D01*
X624937D01*
Y465736D01*
X616063D01*
Y460012D01*
X624937D01*
Y462480D01*
X630000D01*
Y447595D01*
X629538Y447404D01*
X629020Y447922D01*
Y450500D01*
X628942Y450890D01*
X628721Y451221D01*
X626083Y453859D01*
X625752Y454080D01*
X625362Y454157D01*
X624937D01*
Y457862D01*
X617505D01*
X614620Y460747D01*
Y467978D01*
X617222Y470580D01*
X627800D01*
X628190Y470658D01*
X628521Y470879D01*
X629538Y471896D01*
X630000Y471705D01*
D02*
G37*
G36*
X659726Y470862D02*
X660327Y470079D01*
X661110Y469478D01*
X662022Y469100D01*
X663000Y468972D01*
X663978Y469100D01*
X664849Y469461D01*
X666627Y467683D01*
X666958Y467462D01*
X667348Y467384D01*
X671820D01*
X672774Y466430D01*
X672582Y465969D01*
X669579D01*
Y464775D01*
X663500D01*
X663012Y464677D01*
X662599Y464401D01*
X661639Y463442D01*
X661421Y463398D01*
X660930Y463070D01*
X660602Y462579D01*
X660558Y462361D01*
X658849Y460651D01*
X658572Y460238D01*
X658475Y459750D01*
Y455421D01*
X654032D01*
Y450878D01*
X658968D01*
Y451321D01*
X658976Y451336D01*
X659469Y451692D01*
X659750Y451636D01*
X660032Y451692D01*
X660524Y451336D01*
X660532Y451321D01*
Y450878D01*
X665469D01*
Y451875D01*
X666622D01*
X669525Y448973D01*
X669938Y448697D01*
X670426Y448599D01*
X671429D01*
Y446847D01*
X671484Y446574D01*
X671639Y446342D01*
X671871Y446186D01*
X672145Y446132D01*
X673355D01*
X673629Y446186D01*
X673861Y446342D01*
X674139D01*
X674371Y446186D01*
X674645Y446132D01*
X675855D01*
X676129Y446186D01*
X676361Y446342D01*
X676639D01*
X676871Y446186D01*
X677145Y446132D01*
X678355D01*
X678629Y446186D01*
X678861Y446342D01*
X679139D01*
X679371Y446186D01*
X679645Y446132D01*
X680855D01*
X681129Y446186D01*
X681230Y446254D01*
X681665Y446088D01*
X681730Y446033D01*
Y445650D01*
X681760Y445500D01*
X681426Y445000D01*
X665969D01*
Y446350D01*
X663000D01*
Y446850D01*
D01*
Y446350D01*
X660032D01*
Y445000D01*
X659469D01*
Y446350D01*
X656500D01*
X653532D01*
Y445000D01*
X646020D01*
Y449700D01*
X645942Y450090D01*
X645721Y450421D01*
X641921Y454221D01*
X641590Y454442D01*
X641200Y454520D01*
X640150D01*
Y457150D01*
X632850D01*
X632500Y457505D01*
Y462480D01*
X632972D01*
X633312Y461659D01*
X633897Y460897D01*
X634659Y460312D01*
X635547Y459944D01*
X636500Y459819D01*
X637453Y459944D01*
X638341Y460312D01*
X639103Y460897D01*
X639688Y461659D01*
X640056Y462547D01*
X640181Y463500D01*
X640056Y464453D01*
X639792Y465089D01*
X640341Y465637D01*
X655857D01*
X656247Y465715D01*
X656578Y465936D01*
X658821Y468179D01*
X659042Y468510D01*
X659120Y468900D01*
Y471020D01*
X659620Y471119D01*
X659726Y470862D01*
D02*
G37*
G36*
X669579Y461031D02*
X673980D01*
Y453928D01*
X673881Y453825D01*
X673480Y453591D01*
X673355Y453616D01*
X672145D01*
X671871Y453562D01*
X671639Y453406D01*
X671484Y453174D01*
X671429Y452901D01*
Y451208D01*
X670929Y451173D01*
X668052Y454051D01*
X667638Y454327D01*
X667150Y454424D01*
X665469D01*
Y455421D01*
X661025D01*
Y459222D01*
X662361Y460558D01*
X662579Y460602D01*
X663070Y460930D01*
X663398Y461421D01*
X663442Y461639D01*
X664028Y462225D01*
X669579D01*
Y461031D01*
D02*
G37*
G36*
X709851Y445000D02*
X707420D01*
Y487100D01*
X707342Y487490D01*
X707121Y487821D01*
X698921Y496021D01*
X698590Y496242D01*
X698200Y496320D01*
X644822D01*
X642852Y498289D01*
X642522Y498511D01*
X642132Y498588D01*
X632500D01*
Y499351D01*
X709851Y499351D01*
X709851Y445000D01*
D02*
G37*
G36*
X643980Y449278D02*
Y445000D01*
X632500D01*
Y449496D01*
X632850Y449850D01*
X640150D01*
Y452480D01*
X640778D01*
X643980Y449278D01*
D02*
G37*
G36*
Y437022D02*
X642428Y435470D01*
X638716D01*
X638546Y435970D01*
X639103Y436397D01*
X639688Y437159D01*
X640056Y438047D01*
X640181Y439000D01*
X640056Y439953D01*
X639688Y440840D01*
X639103Y441603D01*
X638585Y442000D01*
X638755Y442500D01*
X643980D01*
Y437022D01*
D02*
G37*
G36*
X674519Y435530D02*
X674130Y435270D01*
X673802Y434779D01*
X673687Y434200D01*
X673802Y433621D01*
X673922Y433441D01*
X673872Y433236D01*
X673629Y432814D01*
X673355Y432868D01*
X672145D01*
X671871Y432814D01*
X671639Y432658D01*
X671484Y432426D01*
X671429Y432153D01*
Y430075D01*
X670328D01*
X669342Y431061D01*
X669298Y431279D01*
X668970Y431770D01*
X668479Y432098D01*
X668261Y432142D01*
X667151Y433252D01*
X666737Y433528D01*
X666250Y433625D01*
X665469D01*
Y434622D01*
X665814Y434836D01*
X666145Y435057D01*
X667118Y436030D01*
X674424D01*
X674519Y435530D01*
D02*
G37*
G36*
X707366Y441992D02*
Y435369D01*
X706968Y435122D01*
X706866Y435122D01*
X704500D01*
Y432350D01*
Y429579D01*
X706866D01*
X706968Y429579D01*
X707366Y429332D01*
Y423220D01*
X686622D01*
X684958Y424884D01*
X685165Y425384D01*
X685855D01*
X686129Y425438D01*
X686361Y425594D01*
X686639D01*
X686871Y425438D01*
X687145Y425384D01*
X688355D01*
X688629Y425438D01*
X688637Y425444D01*
X688778Y425233D01*
X689176Y424967D01*
X689645Y424874D01*
X689750D01*
Y429126D01*
Y433378D01*
X689645D01*
X689270Y433303D01*
X688932Y433482D01*
X688770Y433614D01*
Y435950D01*
X688692Y436340D01*
X688471Y436671D01*
X685771Y439371D01*
X685441Y439592D01*
X685050Y439669D01*
X665469D01*
Y440921D01*
X663420D01*
Y441100D01*
X663342Y441490D01*
X663121Y441821D01*
X662904Y442038D01*
X663095Y442500D01*
X706858D01*
X707366Y441992D01*
D02*
G37*
G36*
X632850Y432201D02*
Y425350D01*
X640150D01*
Y427949D01*
X650254D01*
X654384Y423820D01*
X654177Y423320D01*
X632722D01*
X630620Y425422D01*
Y430678D01*
X632350Y432409D01*
X632850Y432201D01*
D02*
G37*
G36*
X680433Y388520D02*
X680723Y388140D01*
X680930Y387830D01*
X681421Y387502D01*
X682000Y387387D01*
X682579Y387502D01*
X683070Y387830D01*
X683079Y387843D01*
X683579Y387691D01*
Y386221D01*
X685480D01*
Y385704D01*
X685430Y385670D01*
X685102Y385179D01*
X684987Y384600D01*
X685102Y384021D01*
X685430Y383530D01*
X685921Y383202D01*
X686052Y383176D01*
Y382666D01*
X685644Y382585D01*
X685153Y382257D01*
X685120Y382206D01*
X683336D01*
X682221Y383321D01*
X681890Y383542D01*
X681500Y383620D01*
X678785D01*
X677409Y384995D01*
Y385567D01*
X677480D01*
Y388520D01*
X680433D01*
D02*
G37*
G36*
X560878Y380031D02*
X565421D01*
Y381480D01*
X567578D01*
X569880Y379178D01*
X569869Y379118D01*
X569880Y379059D01*
X567841Y377020D01*
X565421D01*
Y378468D01*
X560878D01*
Y373925D01*
X560378Y373717D01*
X559122Y374973D01*
Y378468D01*
X557870D01*
Y380031D01*
X559122D01*
Y383527D01*
X560276Y384680D01*
X560878D01*
Y380031D01*
D02*
G37*
G36*
X650996Y442038D02*
X649611Y440653D01*
X649390Y440322D01*
X649351Y440130D01*
X649261Y440070D01*
X648933Y439579D01*
X648818Y439000D01*
X648933Y438421D01*
X649261Y437930D01*
X649752Y437602D01*
X650331Y437487D01*
X650820Y437584D01*
X651045Y437366D01*
X651151Y437179D01*
X651018Y436979D01*
X650902Y436400D01*
X651018Y435821D01*
X651346Y435330D01*
X651837Y435002D01*
X652416Y434887D01*
X652995Y435002D01*
X653486Y435330D01*
X653814Y435821D01*
X653882Y436162D01*
X654078Y436358D01*
X655425D01*
X655524Y436378D01*
X657527D01*
X658782Y435122D01*
X658734Y434859D01*
X658599Y434622D01*
X654032D01*
Y430079D01*
X658968D01*
Y430521D01*
X658976Y430537D01*
X659469Y430893D01*
X659750Y430837D01*
X660032Y430893D01*
X660524Y430537D01*
X660532Y430521D01*
Y430079D01*
X665469D01*
Y430622D01*
X665969Y430829D01*
X666458Y430339D01*
X666502Y430121D01*
X666830Y429630D01*
X667321Y429302D01*
X667539Y429258D01*
X668899Y427899D01*
X669312Y427623D01*
X669800Y427526D01*
X671429D01*
Y426099D01*
X671484Y425826D01*
X671639Y425594D01*
X671871Y425438D01*
X672145Y425384D01*
X673355D01*
X673629Y425438D01*
X673861Y425594D01*
X674139D01*
X674371Y425438D01*
X674645Y425384D01*
X675855D01*
X676129Y425438D01*
X676230Y425506D01*
X676664Y425340D01*
X676730Y425284D01*
Y422250D01*
X676808Y421860D01*
X677029Y421529D01*
X678195Y420363D01*
X678526Y420142D01*
X678916Y420065D01*
X681440D01*
X681530Y419930D01*
X682021Y419602D01*
X682600Y419487D01*
X683179Y419602D01*
X683670Y419930D01*
X683998Y420421D01*
X684113Y421000D01*
X683998Y421579D01*
X683670Y422070D01*
X683179Y422398D01*
X682600Y422513D01*
X682021Y422398D01*
X681893Y422313D01*
X681533Y422673D01*
X681698Y422921D01*
X681813Y423500D01*
X681698Y424079D01*
X681370Y424570D01*
X681295Y424620D01*
Y424985D01*
X681373Y425079D01*
X681789Y425282D01*
X682081Y425122D01*
X682115Y424953D01*
X682336Y424622D01*
X685479Y421479D01*
X685810Y421258D01*
X686200Y421180D01*
X707366D01*
Y345508D01*
X703878Y342020D01*
X697968D01*
Y346421D01*
X693032D01*
Y345169D01*
X690969D01*
Y346421D01*
X689520D01*
Y348657D01*
X694937D01*
Y350599D01*
X697563D01*
Y348657D01*
X706437D01*
Y354579D01*
X697563D01*
Y352638D01*
X694937D01*
Y354579D01*
X688083D01*
Y360808D01*
X688005Y361198D01*
X687784Y361529D01*
X686854Y362459D01*
X687045Y362921D01*
X690000D01*
Y365882D01*
X685563D01*
Y364403D01*
X685101Y364212D01*
X682920Y366393D01*
Y374532D01*
X684650D01*
Y377500D01*
X685150D01*
Y378000D01*
X687921D01*
Y380469D01*
X687921D01*
X687694Y380968D01*
X687737Y381187D01*
X687622Y381766D01*
X687294Y382257D01*
X686803Y382585D01*
X686671Y382611D01*
Y383121D01*
X687079Y383202D01*
X687570Y383530D01*
X687898Y384021D01*
X687901Y384036D01*
X688432Y384142D01*
X688464Y384094D01*
X694480Y378078D01*
Y376104D01*
X694430Y376070D01*
X694102Y375579D01*
X693987Y375000D01*
X694102Y374421D01*
X694430Y373930D01*
X694921Y373602D01*
X695500Y373487D01*
X696079Y373602D01*
X696570Y373930D01*
X696898Y374421D01*
X697013Y375000D01*
X696898Y375579D01*
X696570Y376070D01*
X696520Y376104D01*
Y378500D01*
X696442Y378890D01*
X696221Y379221D01*
X690205Y385237D01*
Y386221D01*
X694421D01*
Y388480D01*
X694914D01*
X695304Y388558D01*
X695635Y388779D01*
X696221Y389365D01*
X696442Y389696D01*
X696520Y390086D01*
Y400500D01*
X696442Y400890D01*
X696221Y401221D01*
X695221Y402221D01*
X694890Y402442D01*
X694500Y402520D01*
X694421D01*
Y405365D01*
X693169D01*
Y407531D01*
X694421D01*
Y412468D01*
X689878D01*
Y407531D01*
X691130D01*
Y405365D01*
X689878D01*
Y400428D01*
X690492D01*
X690759Y399928D01*
X690677Y399804D01*
X690561Y399225D01*
X690654Y398762D01*
X690378Y398262D01*
X689878D01*
Y393900D01*
X689814Y393813D01*
X689378Y393538D01*
X689000Y393613D01*
X688622Y393538D01*
X688186Y393813D01*
X688122Y393900D01*
Y398262D01*
X685598D01*
Y398872D01*
X685521Y399263D01*
X685410Y399428D01*
X685630Y399928D01*
X688622D01*
Y402397D01*
X685850D01*
X682907D01*
X682617Y402276D01*
X682053Y402841D01*
Y406714D01*
X681975Y407105D01*
X681754Y407436D01*
X675869Y413320D01*
Y415431D01*
X677121D01*
Y420368D01*
X672578D01*
Y415431D01*
X673830D01*
Y412898D01*
X673908Y412508D01*
X674129Y412177D01*
X675912Y410394D01*
X675747Y409851D01*
X675666Y409835D01*
X675175Y409507D01*
X674847Y409016D01*
X674731Y408437D01*
X674832Y407933D01*
X674732Y407705D01*
X674529Y407433D01*
X673472D01*
Y410757D01*
X673395Y411148D01*
X673174Y411479D01*
X670183Y414470D01*
X670374Y414931D01*
X671322D01*
Y417400D01*
X668550D01*
X665779D01*
Y415851D01*
X665236D01*
X651398Y429690D01*
X651067Y429911D01*
X650677Y429988D01*
X640150D01*
Y432650D01*
X633418D01*
X633213Y433114D01*
X633464Y433430D01*
X642850D01*
X643240Y433508D01*
X643571Y433729D01*
X645721Y435879D01*
X645942Y436210D01*
X646020Y436600D01*
Y442500D01*
X650805D01*
X650996Y442038D01*
D02*
G37*
G36*
X668779Y377779D02*
X669110Y377558D01*
X669500Y377480D01*
X676579D01*
Y375031D01*
X677831D01*
Y371386D01*
X671059D01*
Y366036D01*
X670597Y365845D01*
X669620Y366822D01*
Y375390D01*
X669542Y375780D01*
X669321Y376111D01*
X667283Y378148D01*
X667295Y378208D01*
X667209Y378642D01*
X667664Y378894D01*
X668779Y377779D01*
D02*
G37*
G36*
X574612Y375417D02*
X574674Y374857D01*
X574411Y374464D01*
X574319Y374000D01*
X574411Y373536D01*
X574674Y373143D01*
X574612Y372583D01*
X574510Y372461D01*
X572941D01*
X572551Y372383D01*
X572220Y372162D01*
X569279Y369221D01*
X569058Y368890D01*
X568980Y368500D01*
Y363215D01*
X568480Y363165D01*
X568398Y363579D01*
X568070Y364070D01*
X567579Y364398D01*
X567000Y364513D01*
X566421Y364398D01*
X565930Y364070D01*
X565896Y364020D01*
X565421D01*
Y365469D01*
X561020D01*
Y367032D01*
X565421D01*
Y370527D01*
X566875Y371980D01*
X569500D01*
X569890Y372058D01*
X570221Y372279D01*
X573481Y375539D01*
X574510D01*
X574612Y375417D01*
D02*
G37*
G36*
X597922Y370439D02*
X597924Y370435D01*
Y369888D01*
X597922Y369884D01*
X597706Y369739D01*
X597443Y369346D01*
X597351Y368882D01*
X597443Y368418D01*
X597706Y368025D01*
X597922Y367880D01*
X597924Y367876D01*
Y367329D01*
X597922Y367325D01*
X597706Y367180D01*
X597443Y366787D01*
X597351Y366323D01*
X597443Y365859D01*
X597706Y365466D01*
X598099Y365203D01*
X598563Y365111D01*
X604468D01*
X604932Y365203D01*
X605083Y365303D01*
X612200D01*
X616120Y361383D01*
X615929Y360921D01*
X612532D01*
Y359669D01*
X610968D01*
Y360921D01*
X606032D01*
Y357820D01*
X604969Y356757D01*
X604468Y356964D01*
Y360921D01*
X600973D01*
X600494Y361401D01*
X600513Y361500D01*
X600398Y362079D01*
X600070Y362570D01*
X599579Y362898D01*
X599000Y363013D01*
X598421Y362898D01*
X597930Y362570D01*
X597602Y362079D01*
X597487Y361500D01*
X597602Y360921D01*
X597930Y360430D01*
X598421Y360102D01*
X599000Y359987D01*
X599020Y359991D01*
X599532Y359479D01*
Y357485D01*
X599070Y357294D01*
X598142Y358221D01*
X597811Y358442D01*
X597421Y358520D01*
X595843D01*
Y361937D01*
X593901D01*
Y364882D01*
X593824Y365272D01*
X593603Y365603D01*
X590324Y368882D01*
X591922Y370480D01*
X597860D01*
X597922Y370439D01*
D02*
G37*
G36*
X620280Y357223D02*
Y354100D01*
X620358Y353710D01*
X620579Y353379D01*
X625679Y348279D01*
X626010Y348058D01*
X626400Y347980D01*
X642600D01*
X642990Y348058D01*
X643321Y348279D01*
X646722Y351680D01*
X680600D01*
X680990Y351758D01*
X681321Y351979D01*
X681640Y352298D01*
X681700Y352287D01*
X682279Y352402D01*
X682770Y352730D01*
X682980Y353045D01*
X683480Y352893D01*
Y342000D01*
X683558Y341610D01*
X683779Y341279D01*
X684779Y340279D01*
X685110Y340058D01*
X685500Y339980D01*
X685532D01*
Y338350D01*
X688500D01*
Y337350D01*
X685532D01*
Y335998D01*
X619118D01*
X619070Y336070D01*
X618579Y336398D01*
X618000Y336513D01*
X617421Y336398D01*
X616930Y336070D01*
X616602Y335579D01*
X616487Y335000D01*
X616602Y334421D01*
X616930Y333930D01*
X617421Y333602D01*
X618000Y333487D01*
X618579Y333602D01*
X619070Y333930D01*
X619090Y333959D01*
X690924D01*
X691314Y334037D01*
X691645Y334258D01*
X692289Y334902D01*
X692511Y335233D01*
X692564Y335501D01*
X693032Y335579D01*
X693032Y335579D01*
X693032Y335579D01*
X697968D01*
Y339980D01*
X704300D01*
X704690Y340058D01*
X705021Y340279D01*
X709107Y344365D01*
X709328Y344696D01*
X709351Y344810D01*
X709851Y344761D01*
Y290000D01*
X670000D01*
X653432Y306568D01*
X653496Y307211D01*
X653796Y307412D01*
X660845Y314461D01*
X668693D01*
X669026Y314026D01*
X669751Y313470D01*
X670595Y313121D01*
X671500Y313002D01*
X672405Y313121D01*
X673249Y313470D01*
X673974Y314026D01*
X674530Y314751D01*
X674879Y315595D01*
X674998Y316500D01*
X674879Y317406D01*
X674530Y318249D01*
X673974Y318974D01*
X673249Y319530D01*
X672405Y319879D01*
X671500Y319998D01*
X670595Y319879D01*
X669751Y319530D01*
X669026Y318974D01*
X668693Y318539D01*
X660000D01*
X659220Y318384D01*
X658558Y317942D01*
X651510Y310894D01*
X645949D01*
Y313606D01*
X636051D01*
Y310894D01*
X631990D01*
X623442Y319442D01*
X622780Y319884D01*
X622000Y320039D01*
X610701D01*
Y332791D01*
X610701Y332791D01*
X610545Y333572D01*
X610103Y334233D01*
X605421Y338915D01*
Y340968D01*
X604424D01*
Y342350D01*
X604327Y342838D01*
X604051Y343252D01*
X601901Y345401D01*
X601488Y345677D01*
X601000Y345775D01*
X597515D01*
X597364Y346274D01*
X597371Y346279D01*
X601170Y350079D01*
X604468D01*
Y354480D01*
X605154D01*
X605532Y354170D01*
Y352850D01*
X608000D01*
Y355122D01*
X606871D01*
X606679Y355584D01*
X607473Y356378D01*
X610968D01*
Y357630D01*
X612532D01*
Y356378D01*
X617469D01*
Y359382D01*
X617930Y359573D01*
X620280Y357223D01*
D02*
G37*
G36*
X574612Y370299D02*
X574674Y369739D01*
X574411Y369346D01*
X574319Y368882D01*
X574411Y368418D01*
X574674Y368025D01*
X574891Y367880D01*
X574892Y367876D01*
Y367329D01*
X574891Y367325D01*
X574674Y367180D01*
X574411Y366787D01*
X574319Y366323D01*
X574411Y365859D01*
X574674Y365466D01*
X575068Y365203D01*
X575531Y365111D01*
X577465D01*
Y361937D01*
X575157D01*
Y353063D01*
X581079D01*
Y361937D01*
X579504D01*
Y365111D01*
X581437D01*
X581901Y365203D01*
X582294Y365466D01*
X582557Y365859D01*
X582649Y366323D01*
X582557Y366787D01*
X582294Y367180D01*
X582357Y367740D01*
X582458Y367862D01*
X588460D01*
X591862Y364460D01*
Y361937D01*
X589921D01*
Y353063D01*
X595843D01*
Y356480D01*
X596999D01*
X598700Y354779D01*
X599031Y354558D01*
X599421Y354480D01*
X599532D01*
Y351324D01*
X596227Y348020D01*
X571500D01*
X571110Y347942D01*
X570779Y347721D01*
X565779Y342721D01*
X565558Y342390D01*
X565480Y342000D01*
Y280654D01*
X565558Y280263D01*
X565779Y279933D01*
X571032Y274680D01*
Y271579D01*
X572480D01*
Y270000D01*
X560000D01*
X555000Y275000D01*
Y297633D01*
X555500Y297682D01*
X555586Y297249D01*
X555863Y296835D01*
X561558Y291139D01*
X561602Y290921D01*
X561930Y290430D01*
X562421Y290102D01*
X563000Y289987D01*
X563579Y290102D01*
X564070Y290430D01*
X564398Y290921D01*
X564513Y291500D01*
X564398Y292079D01*
X564070Y292570D01*
X563579Y292898D01*
X563361Y292942D01*
X558038Y298264D01*
Y325863D01*
X559001Y326262D01*
X559928Y326973D01*
X560639Y327900D01*
X561087Y328979D01*
X561239Y330138D01*
X561087Y331296D01*
X560639Y332376D01*
X559928Y333302D01*
X559001Y334014D01*
X557922Y334461D01*
X556764Y334613D01*
X555606Y334461D01*
X554526Y334014D01*
X553599Y333302D01*
X552888Y332376D01*
X552441Y331296D01*
X552288Y330138D01*
X552441Y328979D01*
X552888Y327900D01*
X553599Y326973D01*
X554526Y326262D01*
X555489Y325863D01*
Y300026D01*
X554989Y300011D01*
X547520Y307480D01*
Y352030D01*
X554079Y358590D01*
X554579Y358383D01*
Y354031D01*
X557680D01*
X558243Y353468D01*
X558036Y352969D01*
X557350D01*
Y350000D01*
Y347031D01*
X558703D01*
Y344278D01*
X558780Y343888D01*
X558999Y343561D01*
X558987Y343500D01*
X559102Y342921D01*
X559430Y342430D01*
X559921Y342102D01*
X560500Y341987D01*
X561079Y342102D01*
X561570Y342430D01*
X561898Y342921D01*
X562013Y343500D01*
X561898Y344079D01*
X561570Y344570D01*
X561079Y344898D01*
X560742Y344965D01*
Y347088D01*
X560878Y347532D01*
X561242Y347532D01*
X565421D01*
Y352468D01*
X564169D01*
Y354031D01*
X565421D01*
Y355480D01*
X567000D01*
X567390Y355558D01*
X567721Y355779D01*
X570721Y358779D01*
X570942Y359110D01*
X571020Y359500D01*
Y368078D01*
X573363Y370421D01*
X574510D01*
X574612Y370299D01*
D02*
G37*
G36*
X582670Y345480D02*
X582552Y345401D01*
X579119Y341968D01*
X575878D01*
Y338983D01*
X575828Y338973D01*
X575497Y338752D01*
X575084Y338339D01*
X574622Y338530D01*
Y339000D01*
X571850D01*
X569079D01*
Y336531D01*
X571229D01*
X571457Y336126D01*
Y334165D01*
X571350D01*
Y331500D01*
X575500D01*
Y330500D01*
X571350D01*
Y327835D01*
X571457D01*
Y325874D01*
X571528D01*
Y324836D01*
X571066Y324644D01*
X570629Y325081D01*
X570132Y325413D01*
X569547Y325529D01*
X569500D01*
X568915Y325413D01*
X568419Y325081D01*
X568087Y324585D01*
X568020Y324246D01*
X567520Y324295D01*
Y341578D01*
X568698Y342756D01*
X569079Y342430D01*
Y340000D01*
X571350D01*
Y342469D01*
X569117D01*
X568791Y342849D01*
X571922Y345980D01*
X582518D01*
X582670Y345480D01*
D02*
G37*
G36*
X601875Y341823D02*
Y340968D01*
X600878D01*
Y336032D01*
X602537D01*
X606622Y331947D01*
Y319779D01*
X603043D01*
Y318023D01*
X601445Y316425D01*
X601000Y316513D01*
X600421Y316398D01*
X599930Y316070D01*
X599602Y315579D01*
X599487Y315000D01*
X599602Y314421D01*
X599930Y313930D01*
X600421Y313602D01*
X601000Y313487D01*
X601579Y313602D01*
X601764Y313725D01*
X601823D01*
X602311Y313823D01*
X602724Y314099D01*
X604846Y316220D01*
X606567D01*
X606759Y315758D01*
X602843Y311843D01*
X581699D01*
Y313037D01*
X577156D01*
Y308100D01*
X577433D01*
Y307520D01*
X576367D01*
X575900Y307600D01*
X575900Y308020D01*
Y310068D01*
X573628D01*
Y307187D01*
X573658Y307100D01*
X571779Y305221D01*
X571558Y304890D01*
X571505Y304626D01*
X571457D01*
Y303390D01*
X571437Y303292D01*
X571457Y303193D01*
Y302665D01*
X571350D01*
Y300000D01*
X575500D01*
Y299000D01*
X571350D01*
Y296335D01*
X571457D01*
Y294374D01*
X571528D01*
Y293555D01*
X571569Y293349D01*
X571108Y293102D01*
X570629Y293581D01*
X570132Y293913D01*
X569547Y294029D01*
X569500D01*
X568915Y293913D01*
X568419Y293581D01*
X568087Y293085D01*
X568020Y292746D01*
X567520Y292795D01*
Y323705D01*
X568020Y323754D01*
X568087Y323415D01*
X568419Y322919D01*
X568561Y322823D01*
X570079Y321306D01*
Y318531D01*
X574622D01*
Y323468D01*
X574035D01*
X573828Y323969D01*
X575146Y325287D01*
X575232Y325415D01*
X575795Y325455D01*
X575810Y325450D01*
X575854Y325385D01*
X576770Y324468D01*
X576563Y323969D01*
X575878D01*
Y321500D01*
X578650D01*
X581421D01*
Y323554D01*
X581421Y323903D01*
X581714Y324271D01*
X581767Y324325D01*
X583721Y326279D01*
X583942Y326610D01*
X584020Y327000D01*
Y336122D01*
X583942Y336512D01*
X583721Y336842D01*
X581319Y339245D01*
X580988Y339466D01*
X580938Y339476D01*
X580773Y340018D01*
X583981Y343226D01*
X600472D01*
X601875Y341823D01*
D02*
G37*
G36*
X626654Y310462D02*
X626463Y310000D01*
X605258D01*
X605067Y310462D01*
X609563Y314958D01*
X609839Y315371D01*
X609936Y315859D01*
Y315961D01*
X621155D01*
X626654Y310462D01*
D02*
G37*
G36*
X546126Y360452D02*
X546200Y360142D01*
X542979Y356921D01*
X542758Y356590D01*
X542680Y356200D01*
Y310000D01*
X542120D01*
Y356855D01*
X545804Y360539D01*
X546126Y360452D01*
D02*
G37*
G36*
X598832Y308832D02*
X585000Y295000D01*
Y275000D01*
X580000Y270000D01*
X574520D01*
Y271579D01*
X575969D01*
Y276122D01*
X572473D01*
X571679Y276916D01*
X571871Y277378D01*
X573000D01*
Y279650D01*
X570532D01*
Y278717D01*
X570070Y278526D01*
X567520Y281076D01*
Y292204D01*
X568020Y292254D01*
X568087Y291915D01*
X568419Y291419D01*
X568561Y291323D01*
X570079Y289806D01*
Y287032D01*
X574622D01*
Y290673D01*
X574642Y290772D01*
Y292058D01*
X575237Y292653D01*
X575458Y292984D01*
X575535Y293374D01*
Y293496D01*
X576035Y293703D01*
X576686Y293053D01*
X576812Y292969D01*
X576660Y292469D01*
X575878D01*
Y290000D01*
X578650D01*
X581421D01*
Y292412D01*
X581421Y292469D01*
X581368Y292969D01*
X581495Y293053D01*
X582721Y294279D01*
X582942Y294610D01*
X583020Y295000D01*
Y305000D01*
X582942Y305390D01*
X582721Y305721D01*
X581221Y307221D01*
X580890Y307442D01*
X580500Y307520D01*
X579472D01*
Y308100D01*
X581699D01*
Y309294D01*
X598641D01*
X598832Y308832D01*
D02*
G37*
%LPC*%
G36*
X525846Y483882D02*
X522000D01*
Y481807D01*
X525846D01*
Y483882D01*
D02*
G37*
G36*
X521000D02*
X517154D01*
Y481807D01*
X521000D01*
Y483882D01*
D02*
G37*
G36*
X539921Y483968D02*
X537650D01*
Y481500D01*
X539921D01*
Y483968D01*
D02*
G37*
G36*
X536650D02*
X534378D01*
Y481500D01*
X536650D01*
Y483968D01*
D02*
G37*
G36*
X525846Y480807D02*
X522000D01*
Y478732D01*
X525846D01*
Y480807D01*
D02*
G37*
G36*
X521000D02*
X517154D01*
Y478732D01*
X521000D01*
Y480807D01*
D02*
G37*
G36*
X539921Y480500D02*
X537650D01*
Y478031D01*
X539921D01*
Y480500D01*
D02*
G37*
G36*
X536650D02*
X534378D01*
Y478031D01*
X536650D01*
Y480500D01*
D02*
G37*
G36*
X526346Y460882D02*
X522500D01*
Y458807D01*
X526346D01*
Y460882D01*
D02*
G37*
G36*
X521500D02*
X517654D01*
Y458807D01*
X521500D01*
Y460882D01*
D02*
G37*
G36*
X526346Y457807D02*
X522500D01*
Y455732D01*
X526346D01*
Y457807D01*
D02*
G37*
G36*
X521500D02*
X517654D01*
Y455732D01*
X521500D01*
Y457807D01*
D02*
G37*
G36*
X565882Y457862D02*
X557008D01*
Y452138D01*
X565882D01*
Y457862D01*
D02*
G37*
G36*
X624937Y449988D02*
X616063D01*
Y444264D01*
X624937D01*
Y449988D01*
D02*
G37*
G36*
Y442114D02*
X616063D01*
Y436390D01*
X624937D01*
Y442114D01*
D02*
G37*
G36*
X525846Y437689D02*
X522000D01*
Y435614D01*
X525846D01*
Y437689D01*
D02*
G37*
G36*
X521000D02*
X517154D01*
Y435614D01*
X521000D01*
Y437689D01*
D02*
G37*
G36*
X525846Y434614D02*
X522000D01*
Y432539D01*
X525846D01*
Y434614D01*
D02*
G37*
G36*
X521000D02*
X517154D01*
Y432539D01*
X521000D01*
Y434614D01*
D02*
G37*
G36*
X565882Y434240D02*
X557008D01*
Y428516D01*
X565882D01*
Y434240D01*
D02*
G37*
G36*
X624937Y426366D02*
X616063D01*
Y420642D01*
X624937D01*
Y426366D01*
D02*
G37*
G36*
X565882D02*
X557008D01*
Y420642D01*
X565882D01*
Y426366D01*
D02*
G37*
G36*
X624937Y418492D02*
X616063D01*
Y412768D01*
X624937D01*
Y414610D01*
X629531D01*
Y412378D01*
X634469D01*
Y416921D01*
X629531D01*
Y416649D01*
X624937D01*
Y418492D01*
D02*
G37*
G36*
X634969Y411122D02*
X632500D01*
Y408850D01*
X634969D01*
Y411122D01*
D02*
G37*
G36*
X631500D02*
X629032D01*
Y408850D01*
X631500D01*
Y411122D01*
D02*
G37*
G36*
X625437Y411118D02*
X621000D01*
Y408256D01*
X625437D01*
Y411118D01*
D02*
G37*
G36*
X620000D02*
X615563D01*
Y408256D01*
X620000D01*
Y411118D01*
D02*
G37*
G36*
X530000Y421032D02*
X528726Y420906D01*
X527500Y420534D01*
X526371Y419931D01*
X525382Y419118D01*
X524569Y418129D01*
X523966Y416999D01*
X523594Y415774D01*
X523468Y414500D01*
X523594Y413226D01*
X523966Y412001D01*
X524569Y410871D01*
X525382Y409882D01*
X526371Y409069D01*
X527500Y408466D01*
X528726Y408094D01*
X530000Y407969D01*
X531274Y408094D01*
X532500Y408466D01*
X533629Y409069D01*
X534618Y409882D01*
X535431Y410871D01*
X536034Y412001D01*
X536406Y413226D01*
X536531Y414500D01*
X536406Y415774D01*
X536034Y416999D01*
X535431Y418129D01*
X534618Y419118D01*
X533629Y419931D01*
X532500Y420534D01*
X531274Y420906D01*
X530000Y421032D01*
D02*
G37*
G36*
X631500Y407850D02*
X629032D01*
Y405579D01*
X631500D01*
Y407850D01*
D02*
G37*
G36*
X625437Y407256D02*
X621000D01*
Y404394D01*
X625437D01*
Y407256D01*
D02*
G37*
G36*
X620000D02*
X615563D01*
Y404394D01*
X620000D01*
Y407256D01*
D02*
G37*
G36*
X613323Y405697D02*
X607992D01*
Y398004D01*
X613323D01*
Y405697D01*
D02*
G37*
G36*
X605449D02*
X600118D01*
Y398004D01*
X605449D01*
Y405697D01*
D02*
G37*
G36*
X597575D02*
X592244D01*
Y398004D01*
X597575D01*
Y405697D01*
D02*
G37*
G36*
X589701D02*
X584370D01*
Y398004D01*
X589701D01*
Y405697D01*
D02*
G37*
G36*
X581827D02*
X576496D01*
Y398004D01*
X581827D01*
Y405697D01*
D02*
G37*
G36*
X573953D02*
X568622D01*
Y398004D01*
X573953D01*
Y405697D01*
D02*
G37*
G36*
X644122Y396500D02*
X641850D01*
Y394032D01*
X644122D01*
Y396500D01*
D02*
G37*
G36*
X583622Y393468D02*
X581350D01*
Y391000D01*
X583622D01*
Y393468D01*
D02*
G37*
G36*
X580350D02*
X578079D01*
Y391000D01*
X580350D01*
Y393468D01*
D02*
G37*
G36*
X601921D02*
X599650D01*
Y391000D01*
X601921D01*
Y393468D01*
D02*
G37*
G36*
X598650D02*
X596378D01*
Y391000D01*
X598650D01*
Y393468D01*
D02*
G37*
G36*
X559622Y391968D02*
X557350D01*
Y389500D01*
X559622D01*
Y391968D01*
D02*
G37*
G36*
X659748Y389110D02*
X658067D01*
Y388020D01*
X659748D01*
Y389110D01*
D02*
G37*
G36*
X601921Y390000D02*
X599650D01*
Y387531D01*
X601921D01*
Y390000D01*
D02*
G37*
G36*
X598650D02*
X596378D01*
Y387531D01*
X598650D01*
Y390000D01*
D02*
G37*
G36*
X583622Y390000D02*
X581350D01*
Y387531D01*
X583622D01*
Y390000D01*
D02*
G37*
G36*
X580350D02*
X578079D01*
Y387531D01*
X580350D01*
Y390000D01*
D02*
G37*
G36*
X556350Y388500D02*
X554079D01*
Y386032D01*
X556350D01*
Y388500D01*
D02*
G37*
G36*
X635937Y388342D02*
X631500D01*
Y385382D01*
X635937D01*
Y388342D01*
D02*
G37*
G36*
X630500D02*
X626063D01*
Y385382D01*
X630500D01*
Y388342D01*
D02*
G37*
G36*
X620421Y387469D02*
X615878D01*
Y383973D01*
X614622Y382717D01*
X614122Y382925D01*
Y387469D01*
X609579D01*
Y386020D01*
X608904D01*
X608870Y386070D01*
X608379Y386398D01*
X607800Y386513D01*
X607221Y386398D01*
X606730Y386070D01*
X606402Y385579D01*
X606287Y385000D01*
X606289Y384986D01*
X605879Y384486D01*
X597586D01*
X597196Y384408D01*
X596865Y384187D01*
X596053Y383375D01*
X595832Y383045D01*
X595754Y382654D01*
Y377787D01*
X595430Y377570D01*
X595102Y377079D01*
X594987Y376500D01*
X595102Y375921D01*
X595430Y375430D01*
X595921Y375102D01*
X596500Y374987D01*
X596603Y375007D01*
X596762Y374857D01*
X596954Y374567D01*
X596940Y374500D01*
X601516D01*
X606091D01*
X606060Y374659D01*
X605686Y375218D01*
X605326Y375459D01*
Y375702D01*
X605588Y376095D01*
X605681Y376559D01*
X605588Y377023D01*
X605326Y377416D01*
X605388Y377976D01*
X605490Y378099D01*
X606014D01*
X627032Y357081D01*
Y354079D01*
X631968D01*
Y358622D01*
X628374D01*
X627119Y359878D01*
X627326Y360378D01*
X631968D01*
Y361630D01*
X634031D01*
Y360378D01*
X638969D01*
Y364921D01*
X634031D01*
Y363669D01*
X631968D01*
Y364921D01*
X630520D01*
Y367158D01*
X635437D01*
Y369098D01*
X637563D01*
Y367158D01*
X646437D01*
Y369098D01*
X653018D01*
X653408Y369176D01*
X653739Y369397D01*
X656040Y371698D01*
X656100Y371687D01*
X656679Y371802D01*
X657170Y372130D01*
X657498Y372621D01*
X657613Y373200D01*
X657498Y373779D01*
X657170Y374270D01*
X656679Y374598D01*
X656100Y374713D01*
X656009Y374695D01*
X655622Y375012D01*
Y377000D01*
X653350D01*
Y374532D01*
X654603D01*
X654871Y374031D01*
X654702Y373779D01*
X654587Y373200D01*
X654599Y373140D01*
X652596Y371138D01*
X646437D01*
Y373079D01*
X637563D01*
Y371138D01*
X635437D01*
Y373079D01*
X626563D01*
Y367158D01*
X628480D01*
Y364921D01*
X627032D01*
Y360672D01*
X626532Y360465D01*
X610927Y376070D01*
X611118Y376532D01*
X614122D01*
Y379510D01*
X614205Y379526D01*
X614536Y379748D01*
X614916Y380128D01*
X615378Y379936D01*
Y379500D01*
X618150D01*
X620921D01*
Y381968D01*
X617943D01*
X617676Y382469D01*
X617718Y382531D01*
X620421D01*
Y387469D01*
D02*
G37*
G36*
X635937Y384382D02*
X631500D01*
Y381421D01*
X635937D01*
Y384382D01*
D02*
G37*
G36*
X630500D02*
X626063D01*
Y381421D01*
X630500D01*
Y384382D01*
D02*
G37*
G36*
X655622Y380469D02*
X653350D01*
Y378000D01*
X655622D01*
Y380469D01*
D02*
G37*
G36*
X620921Y378500D02*
X618650D01*
Y376031D01*
X620921D01*
Y378500D01*
D02*
G37*
G36*
X617650D02*
X615378D01*
Y376031D01*
X617650D01*
Y378500D01*
D02*
G37*
G36*
X635000Y396520D02*
X557701D01*
X557311Y396442D01*
X556980Y396221D01*
X538651Y377892D01*
X538430Y377561D01*
X538353Y377171D01*
Y375421D01*
X536531D01*
Y373402D01*
X536105D01*
X535618Y373305D01*
X535204Y373029D01*
X529994Y367819D01*
X526566D01*
Y364701D01*
X531797D01*
Y366017D01*
X535623Y369843D01*
X536031Y369544D01*
X536031Y369154D01*
Y367350D01*
X538500D01*
Y369622D01*
X536525D01*
X536109Y369622D01*
X535811Y370030D01*
X536633Y370853D01*
X537978D01*
X538101Y370878D01*
X541468D01*
Y375421D01*
X540392D01*
Y376749D01*
X553617Y389974D01*
X554079Y389783D01*
Y389500D01*
X556350D01*
Y391968D01*
X556265D01*
X556073Y392430D01*
X558123Y394480D01*
X634578D01*
X637779Y391279D01*
X638110Y391058D01*
X638500Y390980D01*
X640649D01*
X640767Y390808D01*
X640870Y390480D01*
X640602Y390079D01*
X640487Y389500D01*
X640602Y388921D01*
X640726Y388736D01*
Y387842D01*
X637563D01*
Y381921D01*
X646437D01*
Y387842D01*
X643274D01*
Y388736D01*
X643398Y388921D01*
X643513Y389500D01*
X643398Y390079D01*
X643130Y390480D01*
X643233Y390808D01*
X643352Y390980D01*
X645492D01*
X647480Y388992D01*
Y379104D01*
X647430Y379070D01*
X647102Y378579D01*
X646987Y378000D01*
X647102Y377421D01*
X647430Y376930D01*
X647921Y376602D01*
X648500Y376487D01*
X649079Y376602D01*
X649570Y376930D01*
X649579Y376943D01*
X650079Y376791D01*
Y374532D01*
X652350D01*
Y377500D01*
Y380469D01*
X650079D01*
Y379769D01*
X649579Y379518D01*
X649520Y379562D01*
Y389414D01*
X649442Y389804D01*
X649221Y390135D01*
X646635Y392721D01*
X646304Y392942D01*
X645914Y393020D01*
X638922D01*
X638291Y393651D01*
X638618Y394032D01*
X640850D01*
Y396500D01*
X638579D01*
Y394070D01*
X638198Y393744D01*
X635721Y396221D01*
X635390Y396442D01*
X635000Y396520D01*
D02*
G37*
G36*
X530237Y375839D02*
X529681D01*
Y374240D01*
X532237D01*
X532177Y374544D01*
X531722Y375225D01*
X531041Y375680D01*
X530237Y375839D01*
D02*
G37*
G36*
X528681D02*
X528125D01*
X527321Y375680D01*
X526640Y375225D01*
X526185Y374544D01*
X526125Y374240D01*
X528681D01*
Y375839D01*
D02*
G37*
G36*
X532237Y373240D02*
X529681D01*
Y371641D01*
X530237D01*
X531041Y371801D01*
X531722Y372256D01*
X532177Y372937D01*
X532237Y373240D01*
D02*
G37*
G36*
X528681D02*
X526125D01*
X526185Y372937D01*
X526640Y372256D01*
X527321Y371801D01*
X528125Y371641D01*
X528681D01*
Y373240D01*
D02*
G37*
G36*
X539500Y369622D02*
Y367350D01*
X541968D01*
Y369622D01*
X539500D01*
D02*
G37*
G36*
X541968Y366350D02*
X539500D01*
Y364079D01*
X541968D01*
Y366350D01*
D02*
G37*
G36*
X538500D02*
X536031D01*
Y364079D01*
X538500D01*
Y366350D01*
D02*
G37*
G36*
X538343Y361437D02*
X532421D01*
Y358320D01*
X530004D01*
X529970Y358370D01*
X529479Y358698D01*
X528900Y358813D01*
X528321Y358698D01*
X527830Y358370D01*
X527502Y357879D01*
X527387Y357300D01*
X527502Y356721D01*
X527830Y356230D01*
X528321Y355902D01*
X528900Y355787D01*
X529479Y355902D01*
X529970Y356230D01*
X530004Y356280D01*
X532421D01*
Y352563D01*
X538343D01*
Y361437D01*
D02*
G37*
G36*
X639468Y359122D02*
X637000D01*
Y356850D01*
X639468D01*
Y359122D01*
D02*
G37*
G36*
X636000D02*
X633532D01*
Y356850D01*
X636000D01*
Y359122D01*
D02*
G37*
G36*
X639468Y355850D02*
X637000D01*
Y353579D01*
X639468D01*
Y355850D01*
D02*
G37*
G36*
X636000D02*
X633532D01*
Y353579D01*
X636000D01*
Y355850D01*
D02*
G37*
G36*
X522875Y371590D02*
X520762D01*
X520154Y371469D01*
X519638Y371124D01*
X519294Y370608D01*
X519173Y370000D01*
X519294Y369392D01*
X519638Y368876D01*
X520154Y368531D01*
X520544Y368454D01*
Y361437D01*
X517658D01*
Y352563D01*
X519344D01*
Y336756D01*
X519441Y336268D01*
X519717Y335855D01*
X522799Y332772D01*
Y325701D01*
X531673D01*
Y334575D01*
X524602D01*
X521893Y337284D01*
Y352563D01*
X523579D01*
Y361437D01*
X523093D01*
Y368454D01*
X523484Y368531D01*
X523999Y368876D01*
X524344Y369392D01*
X524465Y370000D01*
X524344Y370608D01*
X523999Y371124D01*
X523484Y371469D01*
X522875Y371590D01*
D02*
G37*
G36*
X656748Y486500D02*
X649252D01*
Y483524D01*
X643769D01*
Y484521D01*
X638832D01*
Y479978D01*
X643769D01*
Y480975D01*
X649252D01*
Y479004D01*
X656748D01*
Y486500D01*
D02*
G37*
G36*
X693500Y486971D02*
Y483252D01*
X697219D01*
X697139Y483861D01*
X696711Y484894D01*
X696030Y485782D01*
X695142Y486463D01*
X694109Y486891D01*
X693500Y486971D01*
D02*
G37*
G36*
X692500D02*
X691891Y486891D01*
X690858Y486463D01*
X689970Y485782D01*
X689289Y484894D01*
X688861Y483861D01*
X688781Y483252D01*
X692500D01*
Y486971D01*
D02*
G37*
G36*
X697219Y482252D02*
X693500D01*
Y478533D01*
X694109Y478613D01*
X695142Y479041D01*
X696030Y479722D01*
X696711Y480610D01*
X697139Y481643D01*
X697219Y482252D01*
D02*
G37*
G36*
X692500D02*
X688781D01*
X688861Y481643D01*
X689289Y480610D01*
X689970Y479722D01*
X690858Y479041D01*
X691891Y478613D01*
X692500Y478533D01*
Y482252D01*
D02*
G37*
G36*
X644269Y478722D02*
X641800D01*
Y476450D01*
X644269D01*
Y478722D01*
D02*
G37*
G36*
X640800D02*
X638332D01*
Y476450D01*
X640800D01*
Y478722D01*
D02*
G37*
G36*
X644269Y475450D02*
X641800D01*
Y473179D01*
X644269D01*
Y475450D01*
D02*
G37*
G36*
X640800D02*
X638332D01*
Y473179D01*
X640800D01*
Y475450D01*
D02*
G37*
G36*
X693000Y476532D02*
X692022Y476404D01*
X691110Y476026D01*
X690327Y475425D01*
X689726Y474642D01*
X689348Y473730D01*
X689220Y472752D01*
X689348Y471773D01*
X689726Y470862D01*
X690327Y470079D01*
X691110Y469478D01*
X692022Y469100D01*
X693000Y468972D01*
X693978Y469100D01*
X694890Y469478D01*
X695673Y470079D01*
X696274Y470862D01*
X696652Y471773D01*
X696780Y472752D01*
X696652Y473730D01*
X696274Y474642D01*
X695673Y475425D01*
X694890Y476026D01*
X693978Y476404D01*
X693000Y476532D01*
D02*
G37*
G36*
X690855Y454126D02*
X690750D01*
Y450374D01*
X692081D01*
Y452901D01*
X691987Y453370D01*
X691722Y453767D01*
X691324Y454033D01*
X690855Y454126D01*
D02*
G37*
G36*
X665969Y449622D02*
X663500D01*
Y447350D01*
X665969D01*
Y449622D01*
D02*
G37*
G36*
X659469D02*
X657000D01*
Y447350D01*
X659469D01*
Y449622D01*
D02*
G37*
G36*
X662500D02*
X660032D01*
Y447350D01*
X662500D01*
Y449622D01*
D02*
G37*
G36*
X656000D02*
X653532D01*
Y447350D01*
X656000D01*
Y449622D01*
D02*
G37*
G36*
X706468Y440921D02*
X701532D01*
Y440479D01*
X701524Y440463D01*
X701031Y440107D01*
X700750Y440163D01*
X700468Y440107D01*
X699976Y440463D01*
X699968Y440479D01*
Y440921D01*
X695031D01*
Y436378D01*
X699968D01*
Y436821D01*
X699976Y436836D01*
X700468Y437192D01*
X700750Y437136D01*
X701031Y437192D01*
X701524Y436836D01*
X701532Y436821D01*
Y436378D01*
X706468D01*
Y440921D01*
D02*
G37*
G36*
X703500Y435122D02*
X701031D01*
Y432850D01*
X703500D01*
Y435122D01*
D02*
G37*
G36*
X700468D02*
X698000D01*
Y432850D01*
X700468D01*
Y435122D01*
D02*
G37*
G36*
X697000D02*
X694531D01*
Y432850D01*
X697000D01*
Y435122D01*
D02*
G37*
G36*
X690855Y433378D02*
X690750D01*
Y429626D01*
X692081D01*
Y432153D01*
X691987Y432621D01*
X691722Y433019D01*
X691324Y433285D01*
X690855Y433378D01*
D02*
G37*
G36*
X700468Y431850D02*
X698000D01*
Y429579D01*
X700468D01*
Y431850D01*
D02*
G37*
G36*
X697000D02*
X694531D01*
Y429579D01*
X697000D01*
Y431850D01*
D02*
G37*
G36*
X703500D02*
X701031D01*
Y429579D01*
X703500D01*
Y431850D01*
D02*
G37*
G36*
X692081Y428626D02*
X690750D01*
Y424874D01*
X690855D01*
X691324Y424967D01*
X691722Y425233D01*
X691987Y425631D01*
X692081Y426099D01*
Y428626D01*
D02*
G37*
G36*
X671322Y420868D02*
X669050D01*
Y418400D01*
X671322D01*
Y420868D01*
D02*
G37*
G36*
X668050D02*
X665779D01*
Y418400D01*
X668050D01*
Y420868D01*
D02*
G37*
G36*
X688122Y412468D02*
X683579D01*
Y411966D01*
X683079Y411698D01*
X682500Y411813D01*
X681921Y411698D01*
X681430Y411370D01*
X681102Y410879D01*
X680987Y410300D01*
X681102Y409721D01*
X681430Y409230D01*
X681921Y408902D01*
X682500Y408787D01*
X683079Y408902D01*
X683579Y408634D01*
Y407531D01*
X688122D01*
Y412468D01*
D02*
G37*
G36*
X688622Y405865D02*
X686350D01*
Y403397D01*
X688622D01*
Y405865D01*
D02*
G37*
G36*
X685350D02*
X683079D01*
Y403397D01*
X685350D01*
Y405865D01*
D02*
G37*
G36*
X687921Y377000D02*
X685650D01*
Y374532D01*
X687921D01*
Y377000D01*
D02*
G37*
G36*
X695437Y369843D02*
X691000D01*
Y366882D01*
X695437D01*
Y369843D01*
D02*
G37*
G36*
X690000D02*
X685563D01*
Y366882D01*
X690000D01*
Y369843D01*
D02*
G37*
G36*
X702000Y372813D02*
X701421Y372698D01*
X700930Y372370D01*
X700602Y371879D01*
X700487Y371300D01*
X700602Y370721D01*
X700726Y370536D01*
Y369342D01*
X697563D01*
Y363421D01*
X706437D01*
Y369342D01*
X703274D01*
Y370536D01*
X703398Y370721D01*
X703513Y371300D01*
X703398Y371879D01*
X703070Y372370D01*
X702579Y372698D01*
X702000Y372813D01*
D02*
G37*
G36*
X695437Y365882D02*
X691000D01*
Y362921D01*
X695437D01*
Y365882D01*
D02*
G37*
G36*
X617969Y355122D02*
X615500D01*
Y352850D01*
X617969D01*
Y355122D01*
D02*
G37*
G36*
X611469D02*
X609000D01*
Y352850D01*
X611469D01*
Y355122D01*
D02*
G37*
G36*
X614500D02*
X612032D01*
Y352850D01*
X614500D01*
Y355122D01*
D02*
G37*
G36*
X617969Y351850D02*
X615500D01*
Y349579D01*
X617969D01*
Y351850D01*
D02*
G37*
G36*
X614500D02*
X612032D01*
Y349579D01*
X614500D01*
Y351850D01*
D02*
G37*
G36*
X611469D02*
X609000D01*
Y349579D01*
X611469D01*
Y351850D01*
D02*
G37*
G36*
X608000D02*
X605532D01*
Y349579D01*
X608000D01*
Y351850D01*
D02*
G37*
G36*
X679539Y349732D02*
X671059D01*
Y343614D01*
X679539D01*
Y349732D01*
D02*
G37*
G36*
X666941D02*
X658461D01*
Y343614D01*
X666941D01*
Y349732D01*
D02*
G37*
G36*
X646449Y333398D02*
X641500D01*
Y328646D01*
X646449D01*
Y333398D01*
D02*
G37*
G36*
X640500D02*
X635551D01*
Y328646D01*
X640500D01*
Y333398D01*
D02*
G37*
G36*
X646449Y327646D02*
X641500D01*
Y322894D01*
X646449D01*
Y327646D01*
D02*
G37*
G36*
X640500D02*
X635551D01*
Y322894D01*
X640500D01*
Y327646D01*
D02*
G37*
G36*
X672000Y300437D02*
Y297000D01*
X675437D01*
X675366Y297536D01*
X674966Y298501D01*
X674330Y299330D01*
X673501Y299967D01*
X672536Y300366D01*
X672000Y300437D01*
D02*
G37*
G36*
X671000D02*
X670464Y300366D01*
X669499Y299967D01*
X668670Y299330D01*
X668034Y298501D01*
X667634Y297536D01*
X667563Y297000D01*
X671000D01*
Y300437D01*
D02*
G37*
G36*
X675437Y296000D02*
X672000D01*
Y292563D01*
X672536Y292634D01*
X673501Y293034D01*
X674330Y293670D01*
X674966Y294499D01*
X675366Y295464D01*
X675437Y296000D01*
D02*
G37*
G36*
X671000D02*
X667563D01*
X667634Y295464D01*
X668034Y294499D01*
X668670Y293670D01*
X669499Y293034D01*
X670464Y292634D01*
X671000Y292563D01*
Y296000D01*
D02*
G37*
G36*
X556350Y352969D02*
X554079D01*
Y350500D01*
X556350D01*
Y352969D01*
D02*
G37*
G36*
Y349500D02*
X554079D01*
Y347031D01*
X556350D01*
Y349500D01*
D02*
G37*
G36*
X574622Y342469D02*
X572350D01*
Y340000D01*
X574622D01*
Y342469D01*
D02*
G37*
G36*
X599622Y341469D02*
X597350D01*
Y339000D01*
X599622D01*
Y341469D01*
D02*
G37*
G36*
X596350D02*
X594079D01*
Y339000D01*
X596350D01*
Y341469D01*
D02*
G37*
G36*
X599622Y338000D02*
X597350D01*
Y335531D01*
X599622D01*
Y338000D01*
D02*
G37*
G36*
X596350D02*
X594079D01*
Y335531D01*
X596350D01*
Y338000D01*
D02*
G37*
G36*
X597457Y320280D02*
X591839D01*
Y318500D01*
X597457D01*
Y320280D01*
D02*
G37*
G36*
X590839D02*
X585220D01*
Y318500D01*
X590839D01*
Y320280D01*
D02*
G37*
G36*
X581421Y320500D02*
X579150D01*
Y318032D01*
X581421D01*
Y320500D01*
D02*
G37*
G36*
X578150D02*
X575878D01*
Y318032D01*
X578150D01*
Y320500D01*
D02*
G37*
G36*
X597457Y317500D02*
X591839D01*
Y315721D01*
X597457D01*
Y317500D01*
D02*
G37*
G36*
X590839D02*
X585220D01*
Y315721D01*
X590839D01*
Y317500D01*
D02*
G37*
G36*
X575900Y313537D02*
X573628D01*
Y311069D01*
X575900D01*
Y313537D01*
D02*
G37*
G36*
X572628D02*
X570357D01*
Y311069D01*
X572628D01*
Y313537D01*
D02*
G37*
G36*
Y310068D02*
X570357D01*
Y307600D01*
X572628D01*
Y310068D01*
D02*
G37*
G36*
X581421Y289000D02*
X579150D01*
Y286531D01*
X581421D01*
Y289000D01*
D02*
G37*
G36*
X578150D02*
X575878D01*
Y286531D01*
X578150D01*
Y289000D01*
D02*
G37*
G36*
X576469Y282921D02*
X574000D01*
Y280650D01*
X576469D01*
Y282921D01*
D02*
G37*
G36*
X573000D02*
X570532D01*
Y280650D01*
X573000D01*
Y282921D01*
D02*
G37*
G36*
X576469Y279650D02*
X574000D01*
Y277378D01*
X576469D01*
Y279650D01*
D02*
G37*
%LPD*%
D15*
X677500Y464150D02*
Y467500D01*
Y464150D02*
X678150Y463500D01*
X633400Y402850D02*
X637400Y406850D01*
X633400Y398600D02*
Y402850D01*
X670794Y364206D02*
X680394D01*
X668600Y366400D02*
Y375390D01*
Y366400D02*
X670794Y364206D01*
X692075Y395868D02*
Y399225D01*
Y395868D02*
X692150Y395793D01*
X693421Y401500D02*
X694500D01*
X692150Y402772D02*
X693421Y401500D01*
X689185Y384815D02*
Y391915D01*
X695500Y375000D02*
Y378500D01*
X689185Y384815D02*
X695500Y378500D01*
X689000Y392100D02*
X689185Y391915D01*
X680816Y356016D02*
Y356038D01*
X682416Y357638D01*
X679700Y354900D02*
X680816Y356016D01*
X682416Y357638D02*
Y357900D01*
X682913Y381187D02*
X686224D01*
X681500Y382600D02*
X682913Y381187D01*
X666547Y381453D02*
Y387248D01*
X669500Y378500D02*
X677850D01*
X666547Y381453D02*
X669500Y378500D01*
X665782Y378208D02*
X668600Y375390D01*
X666269Y411147D02*
X666416Y411001D01*
X666457Y405842D02*
Y406907D01*
X666416Y406948D02*
X666457Y406907D01*
X666416Y406948D02*
Y411001D01*
X666457Y405842D02*
X666547Y405752D01*
X668500Y409500D02*
X668508Y409492D01*
X680446Y397394D02*
X681552Y398500D01*
X682000D01*
X678842Y397394D02*
X680446D01*
X677750Y422250D02*
X678916Y421084D01*
X682516D01*
X677750Y422250D02*
Y429126D01*
X680275Y423525D02*
Y429101D01*
Y423525D02*
X680300Y423500D01*
X680250Y429126D02*
X680275Y429101D01*
X670484Y405752D02*
X670575Y405842D01*
X656032Y407016D02*
X659567Y403480D01*
X667133Y413232D02*
X667133Y413232D01*
X660157Y403480D02*
X660248Y403390D01*
X652983Y417283D02*
X653169Y417098D01*
X668508Y405760D02*
X668516Y405752D01*
X653169Y415784D02*
Y417098D01*
X636531Y428968D02*
X650677D01*
X636500Y429000D02*
X636531Y428968D01*
X650677D02*
X664814Y414831D01*
X667716Y413232D02*
X670584Y410363D01*
Y408442D02*
Y410363D01*
X632300Y422300D02*
X654547D01*
X663615Y413232D01*
X670575Y408433D02*
X670584Y408442D01*
X667133Y413232D02*
X667716D01*
X672453Y405752D02*
Y410757D01*
X667795Y414831D02*
X667795Y414831D01*
X664814Y414831D02*
X667795D01*
X668379Y414831D02*
X672453Y410757D01*
X667795Y414831D02*
X668379D01*
X663615Y413232D02*
X667133D01*
X670575Y405842D02*
Y408433D01*
X664579Y405752D02*
Y409320D01*
X659567Y403480D02*
X660157D01*
X656000Y409500D02*
X656032Y409469D01*
X662520Y405842D02*
Y406433D01*
Y405842D02*
X662610Y405752D01*
X653169Y415784D02*
X662520Y406433D01*
X654800Y419100D02*
X664579Y409320D01*
X652416Y436400D02*
X652678D01*
X653656Y437378D02*
X655425D01*
X652678Y436400D02*
X653656Y437378D01*
X571500Y347000D02*
X596650D01*
X566500Y342000D02*
X571500Y347000D01*
X566500Y280654D02*
X573303Y273850D01*
X566500Y280654D02*
Y342000D01*
X662610Y389610D02*
X676390Y403390D01*
X572500Y303335D02*
Y304500D01*
X572457Y303292D02*
X572500Y303335D01*
X574500Y306500D02*
X576712D01*
X572500Y304500D02*
X574500Y306500D01*
X572547Y293555D02*
Y295563D01*
Y293555D02*
X573622Y292480D01*
X638500Y392000D02*
X645914D01*
X648500Y378000D02*
Y389414D01*
X645914Y392000D02*
X648500Y389414D01*
X635000Y395500D02*
X638500Y392000D01*
X624000Y395500D02*
X635000D01*
X578453Y306500D02*
Y309594D01*
Y303437D02*
Y306500D01*
X580500D01*
X576712D02*
X578453D01*
X580500D02*
X582000Y305000D01*
X579476Y338524D02*
Y340524D01*
X574394Y336207D02*
X574606D01*
X573224D02*
X574394D01*
X582000Y295000D02*
Y305000D01*
X580774Y293774D02*
X582000Y295000D01*
X577407Y293774D02*
X580774D01*
X576484Y295563D02*
X576575Y295472D01*
Y294606D02*
Y295472D01*
Y294606D02*
X577407Y293774D01*
X576484Y331000D02*
X578362Y329122D01*
X576484Y299500D02*
X578362Y297622D01*
X517500Y312500D02*
X521000Y316000D01*
X575500Y299500D02*
X576484D01*
X578362Y295654D02*
Y297622D01*
Y295654D02*
X578453Y295563D01*
Y334937D02*
Y339000D01*
Y309594D02*
X579428Y310568D01*
X575500Y331000D02*
X576484D01*
X578362Y327153D02*
Y329122D01*
Y327153D02*
X578453Y327063D01*
Y339000D02*
X578929Y338524D01*
X578150Y339303D02*
X578453Y339000D01*
X579476Y338524D02*
X580598D01*
X578929D02*
X579476D01*
X580598D02*
X583000Y336122D01*
X581000Y325000D02*
X583000Y327000D01*
Y336122D01*
X577681Y325000D02*
X581000D01*
X576484Y327063D02*
X576575Y326972D01*
Y326106D02*
Y326972D01*
Y326106D02*
X577681Y325000D01*
X660248Y389610D02*
X662610D01*
X676390Y403390D02*
X678752D01*
X531350Y471803D02*
Y472000D01*
Y471803D02*
X536273Y466881D01*
X583119D01*
X618638Y433240D02*
X620500Y431378D01*
X616760Y433240D02*
X618638D01*
X583119Y466881D02*
X616760Y433240D01*
X556764Y231713D02*
X573500Y248449D01*
Y261350D01*
X544900Y196061D02*
Y301122D01*
X541100Y304922D02*
X544900Y301122D01*
X546500Y305200D02*
X550200Y301500D01*
X546500Y305200D02*
Y352453D01*
X550200Y218100D02*
Y301500D01*
X543700Y304922D02*
X547500Y301121D01*
Y203461D02*
X551961Y199000D01*
X547500Y203461D02*
Y301121D01*
X550200Y218100D02*
X567400Y200900D01*
X544900Y196061D02*
X551961Y189000D01*
X567500Y173697D02*
Y200900D01*
X567400D02*
X567500D01*
X546500Y352453D02*
X556850Y362803D01*
X535082Y357300D02*
X535382Y357000D01*
X528900Y357300D02*
X535082D01*
X675200Y429176D02*
Y434200D01*
Y429176D02*
X675250Y429126D01*
X666696Y437050D02*
X683550D01*
X685250Y429126D02*
Y435350D01*
X683550Y437050D02*
X685250Y435350D01*
X656697Y438650D02*
X659569Y435778D01*
X665424D01*
X666696Y437050D01*
X663000Y438650D02*
X685050D01*
X687750Y429126D02*
Y435950D01*
X685050Y438650D02*
X687750Y435950D01*
X662400Y439250D02*
X663000Y438650D01*
X695800Y444900D02*
X696600Y445700D01*
Y451150D01*
X683500Y444900D02*
X695800D01*
X682750Y445650D02*
Y449874D01*
Y445650D02*
X683500Y444900D01*
X698200Y495300D02*
X706400Y487100D01*
Y444400D02*
Y487100D01*
Y444400D02*
X708386Y442414D01*
X645200Y354900D02*
X679700D01*
X646300Y352700D02*
X680600D01*
X681700Y353800D01*
X626400Y349000D02*
X642600D01*
X646300Y352700D01*
X621300Y354100D02*
Y357645D01*
Y354100D02*
X626400Y349000D01*
X623500Y354500D02*
Y358100D01*
Y354500D02*
X626200Y351800D01*
X642100D01*
X645200Y354900D01*
X601516Y366323D02*
X612623D01*
X621300Y357645D01*
X601516Y368882D02*
X612718D01*
X623500Y358100D01*
X708386Y422200D02*
Y442414D01*
Y345086D02*
Y422200D01*
X683057Y425343D02*
X686200Y422200D01*
X708386D01*
X682750Y429126D02*
X683057Y428819D01*
Y425343D02*
Y428819D01*
X682750Y449874D02*
Y455150D01*
X682700Y455200D02*
X682750Y455150D01*
X639919Y466657D02*
X655857D01*
X658100Y468900D02*
Y474800D01*
X660800Y477500D01*
X655857Y466657D02*
X658100Y468900D01*
X660800Y477500D02*
X678252D01*
X597586Y383466D02*
X606331D01*
X609393Y380404D01*
X611850Y379000D02*
Y379133D01*
X610579Y380404D02*
X611850Y379133D01*
X609393Y380404D02*
X610579D01*
X668516Y383584D02*
Y387248D01*
Y383584D02*
X670400Y381700D01*
X677850Y378500D02*
X678850Y377500D01*
X684500Y342000D02*
Y360100D01*
X680394Y364206D02*
X684500Y360100D01*
X685500Y341000D02*
X704300D01*
X684500Y342000D02*
X685500Y341000D01*
X704300D02*
X708386Y345086D01*
X681900Y365971D02*
X687063Y360808D01*
X681900Y365971D02*
Y379746D01*
X680646Y381000D02*
X681900Y379746D01*
X677700Y381000D02*
X680646D01*
X678850Y370697D02*
Y377000D01*
X676480Y368327D02*
X678850Y370697D01*
X644400Y495300D02*
X698200D01*
X531350Y494500D02*
Y494697D01*
X534222Y497569D01*
X642132D01*
X644400Y495300D01*
X678752Y395516D02*
X681484D01*
X681500Y395500D01*
X676852Y488900D02*
X683000Y482752D01*
X640500Y488900D02*
X676852D01*
X627800Y471600D02*
X636450Y480250D01*
Y484850D01*
X640500Y488900D01*
X616800Y471600D02*
X627800D01*
X613600Y468400D02*
X616800Y471600D01*
X613600Y460325D02*
Y468400D01*
X618925Y455000D02*
X620500D01*
X613600Y460325D02*
X618925Y455000D01*
X678252Y477500D02*
X683000Y472752D01*
X636500Y463500D02*
X636762D01*
X639919Y466657D01*
X637400Y412500D02*
X639100Y414200D01*
X637400Y406850D02*
Y412500D01*
X647600Y410203D02*
Y410597D01*
X653398Y402202D02*
X658025Y397575D01*
X636100Y401200D02*
X644397D01*
X647500Y404303D01*
Y404500D01*
X660157Y393638D02*
X660248Y393547D01*
X658165Y393638D02*
X660157D01*
X647500Y404303D02*
X658165Y393638D01*
X541100Y357277D02*
X546262Y362439D01*
X541100Y304922D02*
Y357277D01*
X639100Y414200D02*
X643997D01*
X647600Y410203D02*
X653398Y404405D01*
X643997Y414200D02*
X647600Y410597D01*
X660157Y397575D02*
X660248Y397484D01*
X658025Y397575D02*
X660157D01*
X653398Y402202D02*
Y404405D01*
X543700Y356200D02*
X548100Y360600D01*
X543700Y304922D02*
Y356200D01*
X559854Y385700D02*
X569300D01*
X556850Y382697D02*
X559854Y385700D01*
X539372Y377171D02*
X557701Y395500D01*
X539372Y373522D02*
Y377171D01*
X557701Y395500D02*
X624000D01*
X569300Y385700D02*
X573323Y381677D01*
X685850Y395793D02*
Y395990D01*
Y388690D02*
Y395793D01*
Y388690D02*
X686500Y388040D01*
Y384600D02*
Y388040D01*
X690461Y351618D02*
X690500D01*
X689024D02*
X690461D01*
X676390Y384573D02*
Y387248D01*
X678363Y382600D02*
X681500D01*
X676390Y384573D02*
X678363Y382600D01*
X674421Y384279D02*
Y387248D01*
Y384279D02*
X677700Y381000D01*
X687063Y353579D02*
X689024Y351618D01*
X687063Y353579D02*
Y360808D01*
X655425Y437378D02*
X656697Y438650D01*
X662400Y439250D02*
Y441100D01*
X660800Y442700D02*
X662400Y441100D01*
X653100Y442700D02*
X660800D01*
X650331Y439931D02*
X653100Y442700D01*
X650331Y439000D02*
Y439931D01*
X629600Y425000D02*
X632300Y422300D01*
X629600Y425000D02*
Y431100D01*
X632950Y434450D01*
X642850D01*
X607800Y385000D02*
X611850D01*
X678752Y397484D02*
X678842Y397394D01*
X681290Y389610D02*
X682000Y388900D01*
X678752Y389610D02*
X681290D01*
X642000Y370118D02*
X653018D01*
X656100Y373200D01*
X684579Y397262D02*
Y398872D01*
X681033Y402418D02*
X684579Y398872D01*
X674850Y412898D02*
Y417900D01*
X682516Y421084D02*
X682600Y421000D01*
X674850Y412898D02*
X681033Y406714D01*
Y402418D02*
Y406714D01*
X684579Y397262D02*
X685850Y395990D01*
X656032Y407016D02*
Y409469D01*
X636500Y453500D02*
X641200D01*
X645000Y436600D02*
Y449700D01*
X641200Y453500D02*
X645000Y449700D01*
X642850Y434450D02*
X645000Y436600D01*
X628000Y447500D02*
X636500Y439000D01*
X628000Y447500D02*
Y450500D01*
X622362Y453138D02*
X625362D01*
X628000Y450500D01*
X620500Y455000D02*
X622362Y453138D01*
X685550Y410300D02*
X685850Y410000D01*
X682500Y410300D02*
X685550D01*
X668508Y405760D02*
Y409492D01*
X659150Y377500D02*
Y377697D01*
X664579Y383126D01*
Y387248D01*
X659150Y370697D02*
Y377500D01*
Y370697D02*
X661520Y368327D01*
X662701D01*
X675299D02*
X676480D01*
X675000Y450124D02*
X675250Y449874D01*
X675000Y450124D02*
Y465646D01*
X672242Y468404D02*
X675000Y465646D01*
X663000Y472752D02*
X667348Y468404D01*
X672242D01*
X676347Y471700D02*
X684350Y463697D01*
Y463303D02*
Y463500D01*
Y463697D01*
X674052Y471700D02*
X676347D01*
X673000Y472752D02*
X674052Y471700D01*
X677500Y459500D02*
X680250Y456750D01*
Y449874D02*
Y456750D01*
X677700Y455200D02*
X677750Y455150D01*
Y449874D02*
Y455150D01*
X573622Y292480D02*
X574516Y293374D01*
X572350Y289500D02*
X573622Y290772D01*
X574516Y293374D02*
Y295563D01*
X573622Y290772D02*
Y292480D01*
X621126Y463500D02*
X636500D01*
X620500Y462874D02*
X621126Y463500D01*
X647650Y397000D02*
X651579D01*
X657000Y391579D02*
X660248D01*
X651579Y397000D02*
X657000Y391579D01*
X678150Y463303D02*
X685250Y456203D01*
X687750Y449874D02*
Y459903D01*
X684350Y463303D02*
X687750Y459903D01*
X678150Y463303D02*
Y463500D01*
X685250Y449874D02*
Y456203D01*
X690500Y351618D02*
X702000D01*
X688500Y349658D02*
X690461Y351618D01*
X688500Y344150D02*
Y349658D01*
X695500Y344150D02*
X695500Y344150D01*
X688500Y344150D02*
X695500D01*
X692150Y402897D02*
Y410000D01*
Y402772D02*
Y402897D01*
X692960Y389500D02*
X694914D01*
X695500Y390086D01*
Y400500D01*
X694500Y401500D02*
X695500Y400500D01*
X692150Y388690D02*
X692960Y389500D01*
X631020Y415630D02*
X632000Y414650D01*
X620500Y415630D02*
X631020D01*
X629500Y362650D02*
X636500D01*
X606436Y379118D02*
X627933Y357622D01*
X629500Y362650D02*
Y368618D01*
X627933Y357622D02*
X628228D01*
X629500Y356350D01*
Y368618D02*
X631000Y370118D01*
X629500Y362650D02*
X629500Y362650D01*
X631000Y370118D02*
X642000D01*
X559722Y344278D02*
Y353432D01*
X556850Y356303D02*
Y356500D01*
Y356303D02*
X559722Y353432D01*
Y344278D02*
X560500Y343500D01*
X618021Y334979D02*
X690924D01*
X618000Y335000D02*
X618021Y334979D01*
X691569Y337265D02*
X692154Y337850D01*
X695500D01*
X691569Y335623D02*
Y337265D01*
X690924Y334979D02*
X691569Y335623D01*
X601516Y379118D02*
X606436D01*
X601516D02*
Y381677D01*
X596774Y382654D02*
X597586Y383466D01*
X596500Y376500D02*
X596774Y376774D01*
Y382654D01*
X611850Y379197D02*
X613122Y380469D01*
X618150Y384803D02*
Y385000D01*
X613815Y380469D02*
X618150Y384803D01*
X613122Y380469D02*
X613815D01*
X611850Y379000D02*
Y379197D01*
X601457Y376500D02*
X601516Y376559D01*
X596500Y376500D02*
X601457D01*
X599000Y361453D02*
X601803Y358650D01*
X599000Y361453D02*
Y361500D01*
X601803Y358650D02*
X602000D01*
X608500D02*
X615000D01*
X596650Y347000D02*
X602000Y352350D01*
X556850Y382500D02*
Y382697D01*
Y376000D02*
Y382500D01*
X556850Y356500D02*
Y356697D01*
X560000Y359846D01*
Y372654D01*
X556850Y375803D02*
Y376000D01*
Y375803D02*
X560000Y372654D01*
X531850Y448697D02*
X546028Y462874D01*
X561445D01*
X531850Y448500D02*
Y448697D01*
X521500Y448500D02*
X531850D01*
X522000Y471693D02*
X531043D01*
X531350Y472000D01*
Y481500D02*
Y494500D01*
X530850Y481000D02*
X531350Y481500D01*
X521500Y494693D02*
X531157D01*
X531350Y494500D01*
X573303Y273850D02*
X573500D01*
X574606Y304394D02*
X576712Y306500D01*
X574606Y303528D02*
Y304394D01*
X572547Y324130D02*
X574425Y326008D01*
X599421Y355500D02*
X605154D01*
X572547Y321197D02*
Y324130D01*
X574425Y326972D02*
X574516Y327063D01*
X574425Y326008D02*
Y326972D01*
X574516Y326965D02*
Y327063D01*
X572547Y324130D02*
Y327063D01*
X605154Y355500D02*
X608303Y358650D01*
X597421Y357500D02*
X599421Y355500D01*
X572350Y321000D02*
X572547Y321197D01*
X573500Y267650D02*
Y273850D01*
X574516Y303437D02*
X574606Y303528D01*
X608303Y358650D02*
X608500D01*
X592882Y357500D02*
X597421D01*
X592882D02*
Y364882D01*
X588882Y368882D02*
X592882Y364882D01*
X578484Y357866D02*
Y366323D01*
X578118Y357500D02*
X578484Y357866D01*
X601457Y371500D02*
X601516Y371441D01*
X591500Y371500D02*
X601457D01*
X578484Y368882D02*
X588882D01*
X591500Y371500D01*
X563150Y350000D02*
Y356500D01*
X570000Y359500D02*
Y368500D01*
X572941Y371441D02*
X578484D01*
X570000Y368500D02*
X572941Y371441D01*
X567000Y356500D02*
X570000Y359500D01*
X563150Y356500D02*
X567000D01*
X563150Y363000D02*
X567000D01*
X556850Y362803D02*
Y363000D01*
X566453Y373000D02*
X569500D01*
X578484Y376559D02*
X583059D01*
X569500Y373000D02*
X573059Y376559D01*
X578484D01*
X563150Y369697D02*
X566453Y373000D01*
X563150Y369500D02*
Y369697D01*
X583059Y376559D02*
X584500Y378000D01*
Y382500D01*
X574500Y384500D02*
X582500D01*
X584500Y382500D01*
X563150Y389000D02*
X570000D01*
X574500Y384500D01*
X573323Y381677D02*
X578484D01*
X563150Y376000D02*
X568264D01*
X571382Y379118D01*
X578484D01*
X563150Y382500D02*
X568000D01*
X571382Y379118D01*
X567500Y173697D02*
X586500Y154697D01*
Y154500D02*
Y154697D01*
X597500Y136500D02*
Y142500D01*
X592799Y147201D02*
Y154500D01*
Y147201D02*
X597500Y142500D01*
X596500Y135500D02*
X597500Y136500D01*
X580000Y127500D02*
X594414D01*
X596500Y129586D02*
Y135500D01*
X594414Y127500D02*
X596500Y129586D01*
X565000Y150000D02*
X572500Y142500D01*
Y135000D02*
Y142500D01*
Y135000D02*
X580000Y127500D01*
X555000Y150000D02*
X565000D01*
X554000Y149000D02*
X555000Y150000D01*
X553000D02*
X554000Y149000D01*
X545000Y150000D02*
X553000D01*
X522039Y172961D02*
Y189000D01*
Y172961D02*
X545000Y150000D01*
X517500Y220000D02*
Y312500D01*
X522039Y199000D02*
Y215461D01*
X517500Y220000D02*
X522039Y215461D01*
Y189000D02*
Y199000D01*
X574606Y335028D02*
Y336207D01*
X574394D02*
X576219Y338032D01*
X576878D01*
X572638Y335621D02*
X573224Y336207D01*
X572547Y334937D02*
X572638Y335028D01*
Y335621D01*
X576878Y338032D02*
X578150Y339303D01*
X574516Y334937D02*
X574606Y335028D01*
X642469Y154500D02*
X642500Y154469D01*
X586000Y154000D02*
X586500Y154500D01*
X586000Y146000D02*
Y154000D01*
X582721Y135500D02*
Y142720D01*
X586000Y146000D01*
X693000Y482500D02*
Y482752D01*
D24*
X535382Y357000D02*
D03*
X520618D02*
D03*
X592882Y357500D02*
D03*
X578118D02*
D03*
D25*
X529181Y366260D02*
D03*
D26*
Y373740D02*
D03*
X521819Y370000D02*
D03*
D28*
X641000Y308854D02*
D03*
Y328146D02*
D03*
D33*
X702000Y366382D02*
D03*
Y351618D02*
D03*
X690500D02*
D03*
Y366382D02*
D03*
X642000Y384882D02*
D03*
Y370118D02*
D03*
X631000D02*
D03*
Y384882D02*
D03*
D35*
X662610Y387248D02*
D03*
X664579D02*
D03*
X666547D02*
D03*
X668516D02*
D03*
X670484D02*
D03*
X672453D02*
D03*
X674421D02*
D03*
X676390D02*
D03*
Y405752D02*
D03*
X674421D02*
D03*
X672453D02*
D03*
X670484D02*
D03*
X668516D02*
D03*
X666547D02*
D03*
X664579D02*
D03*
X662610D02*
D03*
D36*
X678752Y389610D02*
D03*
Y391579D02*
D03*
Y393547D02*
D03*
Y395516D02*
D03*
Y397484D02*
D03*
Y399453D02*
D03*
Y401421D02*
D03*
Y403390D02*
D03*
X660248D02*
D03*
Y401421D02*
D03*
Y399453D02*
D03*
Y397484D02*
D03*
Y395516D02*
D03*
Y393547D02*
D03*
Y391579D02*
D03*
Y389610D02*
D03*
D37*
X669500Y396500D02*
D03*
D38*
X618450Y131500D02*
D03*
X643550D02*
D03*
D44*
X527236Y330138D02*
D03*
D45*
X556764D02*
D03*
X527236Y251398D02*
D03*
X556764D02*
D03*
Y231713D02*
D03*
X527236D02*
D03*
D53*
X522039Y199000D02*
D03*
D54*
Y189000D02*
D03*
X551961D02*
D03*
Y199000D02*
D03*
D58*
X696600Y451150D02*
D03*
Y457450D02*
D03*
X704000Y432350D02*
D03*
Y438650D02*
D03*
X697500D02*
D03*
Y432350D02*
D03*
X539000Y366850D02*
D03*
Y373150D02*
D03*
X573500Y273850D02*
D03*
Y280150D02*
D03*
Y261350D02*
D03*
Y267650D02*
D03*
X615000Y358650D02*
D03*
Y352350D02*
D03*
X608500Y358650D02*
D03*
Y352350D02*
D03*
X602000Y358650D02*
D03*
Y352350D02*
D03*
X632000Y414650D02*
D03*
Y408350D02*
D03*
X656500Y432350D02*
D03*
Y438650D02*
D03*
X663000Y432350D02*
D03*
Y438650D02*
D03*
X656500Y453150D02*
D03*
Y446850D02*
D03*
X663000Y453150D02*
D03*
Y446850D02*
D03*
X636500Y362650D02*
D03*
Y356350D02*
D03*
X695500Y337850D02*
D03*
Y344150D02*
D03*
X629500Y356350D02*
D03*
Y362650D02*
D03*
X688500Y344150D02*
D03*
Y337850D02*
D03*
X641300Y482250D02*
D03*
Y475950D02*
D03*
D59*
X610658Y401850D02*
D03*
X602783D02*
D03*
X594909D02*
D03*
X587035D02*
D03*
X579161D02*
D03*
X571287D02*
D03*
D60*
X620500Y462874D02*
D03*
Y455000D02*
D03*
Y447126D02*
D03*
Y439252D02*
D03*
Y431378D02*
D03*
Y423504D02*
D03*
Y415630D02*
D03*
Y407756D02*
D03*
X561445D02*
D03*
Y415630D02*
D03*
Y423504D02*
D03*
Y431378D02*
D03*
Y439252D02*
D03*
Y447126D02*
D03*
Y455000D02*
D03*
Y462874D02*
D03*
D61*
X572547Y327063D02*
D03*
X574516D02*
D03*
X576484D02*
D03*
X578453D02*
D03*
X572547Y334937D02*
D03*
X574516D02*
D03*
X576484D02*
D03*
X578453D02*
D03*
Y303437D02*
D03*
X576484D02*
D03*
X574516D02*
D03*
X572547D02*
D03*
X578453Y295563D02*
D03*
X576484D02*
D03*
X574516D02*
D03*
X572547D02*
D03*
D62*
X575500Y331000D02*
D03*
Y299500D02*
D03*
D63*
X573128Y310568D02*
D03*
X579428D02*
D03*
X572350Y289500D02*
D03*
X578650D02*
D03*
Y321000D02*
D03*
X572350D02*
D03*
X571850Y339500D02*
D03*
X578150D02*
D03*
X603150Y338500D02*
D03*
X596850D02*
D03*
X580850Y390500D02*
D03*
X587150D02*
D03*
X592850D02*
D03*
X599150D02*
D03*
X611850Y385000D02*
D03*
X618150D02*
D03*
X563150Y356500D02*
D03*
X556850D02*
D03*
X563150Y363000D02*
D03*
X556850D02*
D03*
X556850Y369500D02*
D03*
X563150D02*
D03*
X556850Y376000D02*
D03*
X563150D02*
D03*
X556850Y382500D02*
D03*
X563150D02*
D03*
X563150Y389000D02*
D03*
X556850D02*
D03*
X563150Y350000D02*
D03*
X556850D02*
D03*
X611850Y379000D02*
D03*
X618150D02*
D03*
X671850Y463500D02*
D03*
X678150D02*
D03*
X690650D02*
D03*
X684350D02*
D03*
X685850Y402897D02*
D03*
X692150D02*
D03*
X674850Y417900D02*
D03*
X668550D02*
D03*
X678850Y377500D02*
D03*
X685150D02*
D03*
X692150Y388690D02*
D03*
X685850D02*
D03*
X692150Y395793D02*
D03*
X685850D02*
D03*
X647650Y397000D02*
D03*
X641350D02*
D03*
X641201Y404500D02*
D03*
X647500D02*
D03*
X659150Y377500D02*
D03*
X652850D02*
D03*
X641201Y410500D02*
D03*
X647500D02*
D03*
X685850Y410000D02*
D03*
X692150D02*
D03*
X538150Y448500D02*
D03*
X531850D02*
D03*
X537650Y472000D02*
D03*
X531350D02*
D03*
X592799Y154500D02*
D03*
X586500D02*
D03*
X531350Y494500D02*
D03*
X537650D02*
D03*
X537150Y481000D02*
D03*
X530850D02*
D03*
D64*
X608661Y318000D02*
D03*
X591339D02*
D03*
D65*
X611500Y236106D02*
D03*
Y186894D02*
D03*
D66*
X623531Y154500D02*
D03*
X642469D02*
D03*
D67*
X601516Y366323D02*
D03*
Y368882D02*
D03*
Y371441D02*
D03*
Y374000D02*
D03*
Y376559D02*
D03*
Y379118D02*
D03*
Y381677D02*
D03*
X578484Y366323D02*
D03*
Y368882D02*
D03*
Y371441D02*
D03*
Y374000D02*
D03*
Y376559D02*
D03*
Y379118D02*
D03*
Y381677D02*
D03*
D68*
X672750Y449874D02*
D03*
X675250D02*
D03*
X677750D02*
D03*
X680250D02*
D03*
X682750D02*
D03*
X685250D02*
D03*
X687750D02*
D03*
X690250D02*
D03*
Y429126D02*
D03*
X687750D02*
D03*
X685250D02*
D03*
X682750D02*
D03*
X680250D02*
D03*
X677750D02*
D03*
X675250D02*
D03*
X672750D02*
D03*
D69*
X521500Y481307D02*
D03*
Y494693D02*
D03*
X522000Y458307D02*
D03*
Y471693D02*
D03*
X521500Y435114D02*
D03*
Y448500D02*
D03*
D70*
X662701Y346673D02*
D03*
X675299D02*
D03*
X662701Y368327D02*
D03*
X675299D02*
D03*
D71*
X673100Y381900D02*
Y382301D01*
X670484Y384917D02*
X673100Y382301D01*
X670484Y384917D02*
Y387248D01*
X676245Y408310D02*
Y408437D01*
X676362Y405780D02*
Y408193D01*
X676245Y408310D02*
X676362Y408193D01*
X556764Y297736D02*
Y330138D01*
Y297736D02*
X563000Y291500D01*
X554000Y369500D02*
X556850D01*
X642000Y384882D02*
Y389500D01*
X641201Y407500D02*
Y410500D01*
Y404500D02*
Y407500D01*
X604823Y318000D02*
X608661D01*
X601823Y315000D02*
X604823Y318000D01*
X601000Y315000D02*
X601823D01*
X608661Y315859D02*
Y318000D01*
X579428Y310568D02*
X603371D01*
X608661Y315859D01*
X579476Y340524D02*
X583453Y344500D01*
X561445Y407756D02*
X563020D01*
X570000Y414736D01*
X561445Y447126D02*
X563020D01*
X570000Y440146D01*
Y414736D02*
Y440146D01*
X538150Y448500D02*
X545500D01*
X545625Y448375D01*
X546874Y447126D01*
X561445D01*
X537650Y472000D02*
Y472197D01*
X543000Y477547D01*
Y488953D01*
X537650Y494303D02*
Y494500D01*
Y494303D02*
X543000Y488953D01*
X652498Y482250D02*
X653000Y482752D01*
X641300Y482250D02*
X652498D01*
X659750Y453150D02*
Y459750D01*
X662000Y462000D01*
X663500Y463500D02*
X671850D01*
X662000Y462000D02*
X663500Y463500D01*
X693015Y460937D02*
X695381Y458571D01*
X690650Y463303D02*
X693015Y460937D01*
X659750Y453150D02*
X663000D01*
X656500D02*
X659750D01*
X670426Y449874D02*
X672750D01*
X663000Y453150D02*
X667150D01*
X670426Y449874D01*
X663000Y432350D02*
X666250D01*
X659750D02*
X663000D01*
X700750Y438650D02*
X704000D01*
X697500D02*
X700750D01*
X656500Y432350D02*
X659750D01*
X666250D02*
X669800Y428800D01*
X690650Y463303D02*
Y463500D01*
X695381Y458471D02*
Y458571D01*
Y458471D02*
X696403Y457450D01*
X696600D01*
X702000Y366382D02*
Y371300D01*
X702100Y371400D01*
X672750Y428857D02*
Y429126D01*
X672693Y428800D02*
X672750Y428857D01*
X669800Y428800D02*
X672693D01*
X653173Y388827D02*
X657400Y384600D01*
X653127Y388827D02*
X653173D01*
X657400Y384600D02*
X660234D01*
X662610Y386976D01*
Y387248D01*
X676362Y405780D02*
X676390Y405752D01*
X539000Y373150D02*
X539372Y373522D01*
X583453Y344500D02*
X601000D01*
X603150Y338500D02*
Y342350D01*
X601000Y344500D02*
X603150Y342350D01*
X537978Y372128D02*
X539000Y373150D01*
X530237Y366260D02*
X536105Y372128D01*
X529181Y366260D02*
X530237D01*
X536105Y372128D02*
X537978D01*
X520618Y357000D02*
X521819Y358201D01*
Y370000D01*
X520618Y336756D02*
X527236Y330138D01*
X520618Y336756D02*
Y357000D01*
X587150Y390500D02*
X588000Y389650D01*
Y388000D02*
Y389650D01*
Y388000D02*
X590000Y386000D01*
X591829Y389478D02*
X592850Y390500D01*
X591829Y387829D02*
Y389478D01*
X590000Y386000D02*
X591829Y387829D01*
X590000Y376000D02*
Y386000D01*
X588000Y374000D02*
X590000Y376000D01*
X578484Y374000D02*
X588000D01*
D72*
X642315Y297685D02*
X683300Y256700D01*
X635442Y297685D02*
X642315D01*
X683300Y198300D02*
Y256700D01*
X677211Y192211D02*
X683300Y198300D01*
X677211Y192211D02*
X677211D01*
X671500Y186500D02*
X677211Y192211D01*
X670705Y296500D02*
X671500D01*
X602000Y292764D02*
X630521D01*
X635442Y297685D01*
X608661Y318000D02*
Y332791D01*
X603150Y338303D02*
Y338500D01*
Y338303D02*
X608661Y332791D01*
Y318000D02*
X622000D01*
X631146Y308854D01*
X641000D01*
X652354D01*
X660000Y316500D02*
X671500D01*
X652354Y308854D02*
X660000Y316500D01*
X580500Y177000D02*
Y253000D01*
X592000Y165500D02*
X642000D01*
X580500Y177000D02*
X592000Y165500D01*
X658000Y181500D02*
Y198500D01*
X654650Y226500D02*
X671500D01*
X615043Y186894D02*
X654650Y226500D01*
X642469Y165969D02*
X658000Y181500D01*
Y198500D02*
X665438Y205938D01*
X670938D01*
X671500Y206500D01*
X611500Y186894D02*
X615043D01*
X642000Y165500D02*
X642469Y165969D01*
X636000Y258315D02*
X659685D01*
X671500Y246500D01*
X611500Y236106D02*
X615043D01*
X634646Y255709D01*
Y256961D01*
X636000Y258315D01*
X590736Y263236D02*
X602000D01*
X580500Y253000D02*
X590736Y263236D01*
X642469Y154500D02*
Y165969D01*
X618450Y131500D02*
Y147450D01*
X623531Y152532D01*
Y154500D01*
X659500Y137500D02*
X670500Y148500D01*
X649550Y137500D02*
X659500D01*
X643550Y131500D02*
X649550Y137500D01*
D73*
X572350Y321000D02*
Y321197D01*
X569547Y324000D02*
X572350Y321197D01*
X569500Y324000D02*
X569547D01*
X572350Y289500D02*
Y289697D01*
X569547Y292500D02*
X572350Y289697D01*
X569500Y292500D02*
X569547D01*
D74*
X702500Y105500D02*
D03*
X523000D02*
D03*
X530000Y414500D02*
D03*
D75*
X673000Y472752D02*
D03*
Y482752D02*
D03*
X653000Y472752D02*
D03*
X663000Y482752D02*
D03*
Y472752D02*
D03*
X683000Y482752D02*
D03*
X693000D02*
D03*
X683000Y472752D02*
D03*
X693000D02*
D03*
D76*
X653000Y482752D02*
D03*
D77*
X636500Y453500D02*
D03*
Y429000D02*
D03*
D78*
Y463500D02*
D03*
Y439000D02*
D03*
D79*
X695500Y148500D02*
D03*
X554000Y149000D02*
D03*
X596500Y135500D02*
D03*
D80*
X670500Y148500D02*
D03*
X529000Y149000D02*
D03*
D81*
X602000Y292764D02*
D03*
Y263236D02*
D03*
D82*
X636000Y258315D02*
D03*
D83*
Y297685D02*
D03*
D84*
X671500Y186500D02*
D03*
D85*
Y206500D02*
D03*
Y226500D02*
D03*
Y246500D02*
D03*
Y316500D02*
D03*
Y296500D02*
D03*
D86*
X582721Y135500D02*
D03*
D87*
X677500Y467500D02*
D03*
X692075Y399225D02*
D03*
X695500Y375000D02*
D03*
X682416Y357900D02*
D03*
X686224Y381187D02*
D03*
X673100Y381900D02*
D03*
X665782Y378208D02*
D03*
X668500Y409500D02*
D03*
X682000Y398500D02*
D03*
X676245Y408437D02*
D03*
X680300Y423500D02*
D03*
X666269Y411147D02*
D03*
X656000Y409500D02*
D03*
X654800Y419100D02*
D03*
X652983Y417283D02*
D03*
X652416Y436400D02*
D03*
X569500Y324000D02*
D03*
X702500Y426500D02*
D03*
X696000D02*
D03*
X528900Y357300D02*
D03*
X543000Y477547D02*
D03*
X546262Y362439D02*
D03*
X554000Y369500D02*
D03*
X563000Y291500D02*
D03*
X567000Y363000D02*
D03*
X569500Y292500D02*
D03*
X571382Y379118D02*
D03*
X590000Y386000D02*
D03*
X599000Y361500D02*
D03*
X601000Y315000D02*
D03*
X618000Y335000D02*
D03*
X633400Y398600D02*
D03*
X636100Y401200D02*
D03*
X642000Y389500D02*
D03*
X653127Y388827D02*
D03*
X650331Y439000D02*
D03*
X652000Y454000D02*
D03*
Y460000D02*
D03*
X659750Y453150D02*
D03*
X662000Y462000D02*
D03*
X670400Y381700D02*
D03*
X667900Y395500D02*
D03*
X671000D02*
D03*
X667900Y430700D02*
D03*
X675200Y434200D02*
D03*
X677500Y459500D02*
D03*
X681700Y353800D02*
D03*
X682000Y388900D02*
D03*
X681500Y395500D02*
D03*
X682500Y410300D02*
D03*
X682600Y421000D02*
D03*
X693015Y460937D02*
D03*
X690000Y459000D02*
D03*
X692000Y457000D02*
D03*
X702000Y371300D02*
D03*
X700750Y438650D02*
D03*
X548100Y360600D02*
D03*
X545625Y448375D02*
D03*
X596500Y376500D02*
D03*
X641201Y407500D02*
D03*
X659750Y432350D02*
D03*
X677700Y455200D02*
D03*
X686500Y384600D02*
D03*
X682700Y455200D02*
D03*
X689000Y392100D02*
D03*
X607800Y385000D02*
D03*
X656100Y373200D02*
D03*
X648500Y378000D02*
D03*
X664800Y395500D02*
D03*
X674300D02*
D03*
X648000Y454000D02*
D03*
Y460000D02*
D03*
X656000D02*
D03*
X560500Y343500D02*
D03*
X573531Y331000D02*
D03*
X577468D02*
D03*
Y299500D02*
D03*
X573531D02*
D03*
D88*
X691500Y377000D02*
D03*
X705000Y410000D02*
D03*
X700000Y400000D02*
D03*
X705000Y390000D02*
D03*
X700000Y380000D02*
D03*
Y360000D02*
D03*
X705000Y330000D02*
D03*
X700000Y320000D02*
D03*
X705000Y310000D02*
D03*
X700000Y300000D02*
D03*
X690000Y360000D02*
D03*
X695000Y330000D02*
D03*
X690000Y320000D02*
D03*
X695000Y310000D02*
D03*
X690000Y300000D02*
D03*
X680000Y360000D02*
D03*
Y340000D02*
D03*
X685000Y330000D02*
D03*
X680000Y320000D02*
D03*
X685000Y310000D02*
D03*
X680000Y300000D02*
D03*
X670000Y360000D02*
D03*
Y340000D02*
D03*
X675000Y330000D02*
D03*
Y310000D02*
D03*
X660000Y360000D02*
D03*
Y340000D02*
D03*
X665000Y330000D02*
D03*
X660000Y320000D02*
D03*
X665000Y310000D02*
D03*
X650000Y360000D02*
D03*
Y340000D02*
D03*
X655000Y330000D02*
D03*
X650000Y320000D02*
D03*
X640000Y420000D02*
D03*
Y380000D02*
D03*
Y340000D02*
D03*
Y320000D02*
D03*
X630000Y440000D02*
D03*
Y420000D02*
D03*
X635000Y390000D02*
D03*
X630000Y380000D02*
D03*
Y340000D02*
D03*
Y320000D02*
D03*
X625000Y490000D02*
D03*
X620000Y480000D02*
D03*
X625000Y390000D02*
D03*
Y370000D02*
D03*
X620000Y340000D02*
D03*
X625000Y330000D02*
D03*
X615000Y490000D02*
D03*
X610000Y480000D02*
D03*
Y460000D02*
D03*
Y420000D02*
D03*
X615000Y390000D02*
D03*
X610000Y340000D02*
D03*
X615000Y330000D02*
D03*
X605000Y490000D02*
D03*
X600000Y480000D02*
D03*
X605000Y470000D02*
D03*
X600000Y460000D02*
D03*
X605000Y450000D02*
D03*
X600000Y440000D02*
D03*
X605000Y430000D02*
D03*
Y410000D02*
D03*
Y390000D02*
D03*
Y330000D02*
D03*
X600000Y320000D02*
D03*
X595000Y490000D02*
D03*
X590000Y480000D02*
D03*
X595000Y470000D02*
D03*
Y450000D02*
D03*
X590000Y440000D02*
D03*
Y420000D02*
D03*
X595000Y410000D02*
D03*
Y350000D02*
D03*
X590000Y340000D02*
D03*
X595000Y330000D02*
D03*
X585000Y490000D02*
D03*
X580000Y480000D02*
D03*
X585000Y470000D02*
D03*
X580000Y460000D02*
D03*
X585000Y450000D02*
D03*
Y430000D02*
D03*
X580000Y420000D02*
D03*
X585000Y410000D02*
D03*
Y350000D02*
D03*
X580000Y280000D02*
D03*
X575000Y490000D02*
D03*
X570000Y480000D02*
D03*
X575000Y470000D02*
D03*
X570000Y460000D02*
D03*
X575000Y430000D02*
D03*
Y410000D02*
D03*
Y350000D02*
D03*
X570000Y300000D02*
D03*
X565000Y490000D02*
D03*
X560000Y480000D02*
D03*
X565000Y470000D02*
D03*
X560000Y320000D02*
D03*
X555000Y490000D02*
D03*
X550000Y480000D02*
D03*
X555000Y470000D02*
D03*
X550000Y460000D02*
D03*
Y440000D02*
D03*
X555000Y430000D02*
D03*
X550000Y420000D02*
D03*
X555000Y410000D02*
D03*
X550000Y400000D02*
D03*
Y340000D02*
D03*
Y320000D02*
D03*
X545000Y430000D02*
D03*
Y410000D02*
D03*
Y390000D02*
D03*
Y370000D02*
D03*
X535000Y490000D02*
D03*
X530000Y460000D02*
D03*
Y440000D02*
D03*
X535000Y430000D02*
D03*
X530000Y400000D02*
D03*
X535000Y390000D02*
D03*
X530000Y380000D02*
D03*
Y360000D02*
D03*
X535000Y350000D02*
D03*
Y330000D02*
D03*
X530000Y320000D02*
D03*
X525000Y490000D02*
D03*
X520000Y440000D02*
D03*
X525000Y430000D02*
D03*
X520000Y420000D02*
D03*
Y400000D02*
D03*
X525000Y390000D02*
D03*
X520000Y380000D02*
D03*
Y320000D02*
D03*
M02*
