G04*
G04 #@! TF.GenerationSoftware,Altium Limited,Altium Designer,20.2.8 (258)*
G04*
G04 Layer_Physical_Order=2*
G04 Layer_Color=16711680*
%FSLAX25Y25*%
%MOIN*%
G70*
G04*
G04 #@! TF.SameCoordinates,EDA4C1AF-4C8F-4A80-A391-42A014D8E1DD*
G04*
G04*
G04 #@! TF.FilePolarity,Positive*
G04*
G01*
G75*
%ADD15C,0.01000*%
%ADD44R,0.07874X0.07874*%
%ADD45C,0.07874*%
%ADD53R,0.05118X0.05118*%
%ADD54C,0.05118*%
%ADD58R,0.03937X0.03543*%
%ADD71C,0.01500*%
%ADD72C,0.03000*%
%ADD73C,0.02000*%
%ADD74C,0.06000*%
%ADD75C,0.06496*%
%ADD76R,0.06496X0.06496*%
%ADD77R,0.06299X0.06299*%
%ADD78C,0.06299*%
%ADD79C,0.07087*%
%ADD80R,0.07087X0.07087*%
%ADD81C,0.05150*%
%ADD82R,0.05709X0.05709*%
%ADD83C,0.05709*%
%ADD84R,0.05937X0.05937*%
%ADD85C,0.05937*%
%ADD86R,0.07087X0.07087*%
%ADD87C,0.01968*%
%ADD88C,0.02362*%
%ADD89C,0.20000*%
G36*
X709851Y445649D02*
X632649D01*
Y449434D01*
X632850Y449850D01*
X633149Y449850D01*
X640150D01*
Y457150D01*
X633149D01*
X632850Y457150D01*
X632649Y457566D01*
Y461953D01*
X633149Y462052D01*
X633312Y461659D01*
X633897Y460897D01*
X634659Y460312D01*
X635547Y459944D01*
X636500Y459819D01*
X637453Y459944D01*
X638341Y460312D01*
X639103Y460897D01*
X639688Y461659D01*
X640056Y462547D01*
X640181Y463500D01*
X640056Y464453D01*
X639688Y465341D01*
X639103Y466103D01*
X638341Y466688D01*
X637453Y467056D01*
X636500Y467181D01*
X635547Y467056D01*
X634659Y466688D01*
X633897Y466103D01*
X633312Y465341D01*
X633149Y464948D01*
X632649Y465047D01*
Y499351D01*
X709851Y499351D01*
X709851Y445649D01*
D02*
G37*
G36*
X630000Y442500D02*
X634245D01*
X634415Y442000D01*
X633897Y441603D01*
X633312Y440840D01*
X632944Y439953D01*
X632819Y439000D01*
X632944Y438047D01*
X633312Y437159D01*
X633897Y436397D01*
X634659Y435812D01*
X635547Y435444D01*
X636500Y435319D01*
X637453Y435444D01*
X638341Y435812D01*
X639103Y436397D01*
X639688Y437159D01*
X640056Y438047D01*
X640181Y439000D01*
X640056Y439953D01*
X639688Y440840D01*
X639103Y441603D01*
X638585Y442000D01*
X638755Y442500D01*
X709851D01*
X709851Y290000D01*
X670000D01*
X650000Y310000D01*
X600000D01*
X591236Y301236D01*
X590774Y301428D01*
Y310472D01*
X594028Y313725D01*
X600236D01*
X600421Y313602D01*
X601000Y313487D01*
X601579Y313602D01*
X602070Y313930D01*
X602398Y314421D01*
X602513Y315000D01*
X602398Y315579D01*
X602070Y316070D01*
X601579Y316398D01*
X601000Y316513D01*
X600421Y316398D01*
X600236Y316274D01*
X593500D01*
X593012Y316178D01*
X592599Y315901D01*
X588599Y311901D01*
X588322Y311488D01*
X588226Y311000D01*
Y298225D01*
X585000Y295000D01*
Y291302D01*
X580472Y286774D01*
X569528D01*
X564442Y291861D01*
X564398Y292079D01*
X564070Y292570D01*
X563579Y292898D01*
X563000Y293013D01*
X562421Y292898D01*
X561930Y292570D01*
X561602Y292079D01*
X561487Y291500D01*
X561602Y290921D01*
X561930Y290430D01*
X562421Y290102D01*
X562639Y290058D01*
X568099Y284599D01*
X568512Y284323D01*
X569000Y284226D01*
X581000D01*
X581488Y284323D01*
X581901Y284599D01*
X584538Y287236D01*
X585000Y287044D01*
Y275000D01*
X580000Y270000D01*
X560000D01*
X555000Y275000D01*
Y300000D01*
X545000Y310000D01*
X515649D01*
X515649Y499351D01*
X630000Y499351D01*
Y442500D01*
D02*
G37*
%LPC*%
G36*
X693500Y486971D02*
Y483252D01*
X697219D01*
X697139Y483861D01*
X696711Y484894D01*
X696030Y485782D01*
X695142Y486463D01*
X694109Y486891D01*
X693500Y486971D01*
D02*
G37*
G36*
X692500D02*
X691891Y486891D01*
X690858Y486463D01*
X689970Y485782D01*
X689289Y484894D01*
X688861Y483861D01*
X688781Y483252D01*
X692500D01*
Y486971D01*
D02*
G37*
G36*
X656748Y486500D02*
X649252D01*
Y482274D01*
X648000D01*
X647512Y482177D01*
X647099Y481901D01*
X645099Y479901D01*
X644823Y479488D01*
X644726Y479000D01*
Y470000D01*
X644823Y469512D01*
X645099Y469099D01*
X648099Y466099D01*
X648512Y465823D01*
X649000Y465726D01*
X656472D01*
X660558Y461639D01*
X660602Y461421D01*
X660930Y460930D01*
X661421Y460602D01*
X661639Y460558D01*
X672099Y450099D01*
X672512Y449823D01*
X673000Y449725D01*
X691000D01*
X691488Y449823D01*
X691901Y450099D01*
X695901Y454099D01*
X696177Y454512D01*
X696275Y455000D01*
Y458953D01*
X696177Y459441D01*
X695901Y459854D01*
X694457Y461298D01*
X694414Y461516D01*
X694086Y462007D01*
X693595Y462335D01*
X693015Y462451D01*
X692436Y462335D01*
X691946Y462007D01*
X691617Y461516D01*
X691502Y460937D01*
X691617Y460358D01*
X691946Y459867D01*
X692436Y459539D01*
X692655Y459496D01*
X693725Y458425D01*
Y455528D01*
X690472Y452275D01*
X673528D01*
X663442Y462361D01*
X663398Y462579D01*
X663070Y463070D01*
X662579Y463398D01*
X662361Y463442D01*
X657901Y467901D01*
X657488Y468178D01*
X657000Y468274D01*
X649528D01*
X647274Y470528D01*
Y478472D01*
X648528Y479726D01*
X649252D01*
Y479004D01*
X656748D01*
Y486500D01*
D02*
G37*
G36*
X683000Y486532D02*
X682022Y486404D01*
X681110Y486026D01*
X680327Y485425D01*
X679726Y484642D01*
X679348Y483730D01*
X679220Y482752D01*
X679348Y481774D01*
X679726Y480862D01*
X680327Y480079D01*
X681110Y479478D01*
X682022Y479100D01*
X683000Y478972D01*
X683978Y479100D01*
X684890Y479478D01*
X685673Y480079D01*
X686274Y480862D01*
X686652Y481774D01*
X686780Y482752D01*
X686652Y483730D01*
X686274Y484642D01*
X685673Y485425D01*
X684890Y486026D01*
X683978Y486404D01*
X683000Y486532D01*
D02*
G37*
G36*
X697219Y482252D02*
X693500D01*
Y478533D01*
X694109Y478613D01*
X695142Y479041D01*
X696030Y479722D01*
X696711Y480610D01*
X697139Y481643D01*
X697219Y482252D01*
D02*
G37*
G36*
X692500D02*
X688781D01*
X688861Y481643D01*
X689289Y480610D01*
X689970Y479722D01*
X690858Y479041D01*
X691891Y478613D01*
X692500Y478533D01*
Y482252D01*
D02*
G37*
G36*
X673000Y486532D02*
X672022Y486404D01*
X671110Y486026D01*
X670327Y485425D01*
X669726Y484642D01*
X669348Y483730D01*
X669220Y482752D01*
X669348Y481774D01*
X669726Y480862D01*
X670327Y480079D01*
X671110Y479478D01*
X672022Y479100D01*
X673000Y478972D01*
X673978Y479100D01*
X674849Y479461D01*
X676480Y477830D01*
Y475194D01*
X675980Y475025D01*
X675673Y475425D01*
X674890Y476026D01*
X673978Y476404D01*
X673000Y476532D01*
X672022Y476404D01*
X671110Y476026D01*
X670327Y475425D01*
X670172Y475223D01*
X669672Y475392D01*
Y477100D01*
X669594Y477490D01*
X669373Y477821D01*
X666291Y480903D01*
X666652Y481774D01*
X666780Y482752D01*
X666652Y483730D01*
X666274Y484642D01*
X665673Y485425D01*
X664890Y486026D01*
X663978Y486404D01*
X663000Y486532D01*
X662022Y486404D01*
X661110Y486026D01*
X660327Y485425D01*
X659726Y484642D01*
X659348Y483730D01*
X659220Y482752D01*
X659348Y481774D01*
X659726Y480862D01*
X660327Y480079D01*
X661110Y479478D01*
X662022Y479100D01*
X663000Y478972D01*
X663978Y479100D01*
X664849Y479461D01*
X667632Y476678D01*
Y468348D01*
X667710Y467958D01*
X667931Y467627D01*
X675998Y459560D01*
X675987Y459500D01*
X676102Y458921D01*
X676430Y458430D01*
X676921Y458102D01*
X677500Y457987D01*
X678079Y458102D01*
X678570Y458430D01*
X678898Y458921D01*
X679013Y459500D01*
X678898Y460079D01*
X678570Y460570D01*
X678079Y460898D01*
X677500Y461013D01*
X677440Y461001D01*
X669672Y468770D01*
Y470112D01*
X670172Y470281D01*
X670327Y470079D01*
X671110Y469478D01*
X672022Y469100D01*
X673000Y468972D01*
X673978Y469100D01*
X674890Y469478D01*
X675673Y470079D01*
X675980Y470479D01*
X676480Y470310D01*
Y468604D01*
X676430Y468570D01*
X676102Y468079D01*
X675987Y467500D01*
X676102Y466921D01*
X676430Y466430D01*
X676921Y466102D01*
X677500Y465987D01*
X678079Y466102D01*
X678570Y466430D01*
X678898Y466921D01*
X679013Y467500D01*
X678898Y468079D01*
X678570Y468570D01*
X678520Y468604D01*
Y478252D01*
X678442Y478642D01*
X678221Y478973D01*
X676291Y480903D01*
X676652Y481774D01*
X676780Y482752D01*
X676652Y483730D01*
X676274Y484642D01*
X675673Y485425D01*
X674890Y486026D01*
X673978Y486404D01*
X673000Y486532D01*
D02*
G37*
G36*
X663000Y476532D02*
X662022Y476404D01*
X661110Y476026D01*
X660327Y475425D01*
X659726Y474642D01*
X659348Y473730D01*
X659220Y472752D01*
X659348Y471773D01*
X659726Y470862D01*
X659854Y470695D01*
X659477Y470365D01*
X657402Y472440D01*
X657072Y472661D01*
X656776Y472719D01*
X656780Y472752D01*
X656652Y473730D01*
X656274Y474642D01*
X655673Y475425D01*
X654890Y476026D01*
X653978Y476404D01*
X653000Y476532D01*
X652022Y476404D01*
X651110Y476026D01*
X650327Y475425D01*
X649726Y474642D01*
X649348Y473730D01*
X649220Y472752D01*
X649348Y471773D01*
X649726Y470862D01*
X650327Y470079D01*
X651110Y469478D01*
X652022Y469100D01*
X653000Y468972D01*
X653978Y469100D01*
X654890Y469478D01*
X655673Y470079D01*
X655896Y470369D01*
X656550Y470409D01*
X672479Y454479D01*
X672810Y454258D01*
X673200Y454180D01*
X676596D01*
X676630Y454130D01*
X677121Y453802D01*
X677700Y453687D01*
X678279Y453802D01*
X678770Y454130D01*
X679098Y454621D01*
X679213Y455200D01*
X679098Y455779D01*
X678770Y456270D01*
X678279Y456598D01*
X677700Y456713D01*
X677121Y456598D01*
X676630Y456270D01*
X676596Y456220D01*
X673622D01*
X660613Y469229D01*
X660943Y469606D01*
X661110Y469478D01*
X662022Y469100D01*
X663000Y468972D01*
X663978Y469100D01*
X664890Y469478D01*
X665673Y470079D01*
X666274Y470862D01*
X666652Y471773D01*
X666780Y472752D01*
X666652Y473730D01*
X666274Y474642D01*
X665673Y475425D01*
X664890Y476026D01*
X663978Y476404D01*
X663000Y476532D01*
D02*
G37*
G36*
X693000D02*
X692022Y476404D01*
X691110Y476026D01*
X690327Y475425D01*
X689726Y474642D01*
X689348Y473730D01*
X689220Y472752D01*
X689348Y471773D01*
X689726Y470862D01*
X690327Y470079D01*
X690328Y470069D01*
X681979Y461721D01*
X681758Y461390D01*
X681680Y461000D01*
Y456304D01*
X681630Y456270D01*
X681302Y455779D01*
X681187Y455200D01*
X681302Y454621D01*
X681630Y454130D01*
X682121Y453802D01*
X682700Y453687D01*
X683279Y453802D01*
X683770Y454130D01*
X684098Y454621D01*
X684213Y455200D01*
X684098Y455779D01*
X683770Y456270D01*
X683720Y456304D01*
Y460578D01*
X692217Y469075D01*
X693000Y468972D01*
X693978Y469100D01*
X694890Y469478D01*
X695673Y470079D01*
X696274Y470862D01*
X696652Y471773D01*
X696780Y472752D01*
X696652Y473730D01*
X696274Y474642D01*
X695673Y475425D01*
X694890Y476026D01*
X693978Y476404D01*
X693000Y476532D01*
D02*
G37*
G36*
X683000D02*
X682022Y476404D01*
X681110Y476026D01*
X680327Y475425D01*
X679726Y474642D01*
X679348Y473730D01*
X679220Y472752D01*
X679348Y471773D01*
X679726Y470862D01*
X680327Y470079D01*
X681110Y469478D01*
X682022Y469100D01*
X683000Y468972D01*
X683978Y469100D01*
X684890Y469478D01*
X685673Y470079D01*
X686274Y470862D01*
X686652Y471773D01*
X686780Y472752D01*
X686652Y473730D01*
X686274Y474642D01*
X685673Y475425D01*
X684890Y476026D01*
X683978Y476404D01*
X683000Y476532D01*
D02*
G37*
G36*
X659750Y454663D02*
X659171Y454548D01*
X658680Y454220D01*
X658352Y453729D01*
X658237Y453150D01*
X658352Y452570D01*
X658680Y452079D01*
X659171Y451752D01*
X659750Y451636D01*
X660329Y451752D01*
X660820Y452079D01*
X661148Y452570D01*
X661263Y453150D01*
X661148Y453729D01*
X660820Y454220D01*
X660329Y454548D01*
X659750Y454663D01*
D02*
G37*
G36*
X543000Y479061D02*
X542421Y478945D01*
X541930Y478617D01*
X541602Y478126D01*
X541487Y477547D01*
X541602Y476968D01*
X541930Y476477D01*
X542421Y476149D01*
X542639Y476106D01*
X544350Y474394D01*
Y449263D01*
X540919Y445831D01*
X540587Y445335D01*
X540471Y444750D01*
Y353000D01*
X540587Y352415D01*
X540919Y351919D01*
X557865Y334973D01*
X557631Y334499D01*
X556764Y334613D01*
X555606Y334461D01*
X554642Y334062D01*
X551603Y337101D01*
X551189Y337378D01*
X550702Y337474D01*
X530928D01*
X527175Y341228D01*
Y353772D01*
X529261Y355858D01*
X529479Y355902D01*
X529970Y356230D01*
X530298Y356721D01*
X530413Y357300D01*
X530298Y357879D01*
X529970Y358370D01*
X529479Y358698D01*
X528900Y358813D01*
X528321Y358698D01*
X527830Y358370D01*
X527502Y357879D01*
X527458Y357661D01*
X524999Y355201D01*
X524722Y354788D01*
X524625Y354300D01*
Y340700D01*
X524722Y340212D01*
X524999Y339799D01*
X529499Y335299D01*
X529834Y335075D01*
X529807Y334732D01*
X529751Y334575D01*
X522799D01*
Y325701D01*
X531673D01*
Y334425D01*
X531673Y334575D01*
X532028Y334926D01*
X550174D01*
X552840Y332259D01*
X552441Y331296D01*
X552288Y330138D01*
X552441Y328979D01*
X552888Y327900D01*
X553599Y326973D01*
X554526Y326262D01*
X555606Y325815D01*
X556764Y325662D01*
X557922Y325815D01*
X559001Y326262D01*
X559928Y326973D01*
X560639Y327900D01*
X561087Y328979D01*
X561239Y330138D01*
X561125Y331005D01*
X561598Y331239D01*
X564471Y328366D01*
Y296000D01*
X564587Y295415D01*
X564919Y294919D01*
X568419Y291419D01*
X568915Y291087D01*
X569500Y290971D01*
X570085Y291087D01*
X570581Y291419D01*
X570913Y291915D01*
X571029Y292500D01*
X570913Y293085D01*
X570581Y293581D01*
X567529Y296634D01*
Y323736D01*
X568029Y323785D01*
X568102Y323421D01*
X568430Y322930D01*
X568921Y322602D01*
X568948Y322597D01*
X568962Y322587D01*
X569547Y322471D01*
X570132Y322587D01*
X570629Y322919D01*
X570960Y323415D01*
X571077Y324000D01*
Y330453D01*
X570960Y331038D01*
X570629Y331534D01*
X568616Y333547D01*
X568862Y334008D01*
X569000Y333980D01*
X616896D01*
X616930Y333930D01*
X617421Y333602D01*
X618000Y333487D01*
X618579Y333602D01*
X619070Y333930D01*
X619398Y334421D01*
X619513Y335000D01*
X619398Y335579D01*
X619070Y336070D01*
X618579Y336398D01*
X618000Y336513D01*
X617421Y336398D01*
X616930Y336070D01*
X616896Y336020D01*
X569422D01*
X562002Y343440D01*
X562013Y343500D01*
X561898Y344079D01*
X561570Y344570D01*
X561079Y344898D01*
X560500Y345013D01*
X559921Y344898D01*
X559430Y344570D01*
X559102Y344079D01*
X559050Y343820D01*
X558508Y343655D01*
X555529Y346634D01*
Y369500D01*
Y384366D01*
X560634Y389471D01*
X584367D01*
X588919Y384919D01*
X589415Y384587D01*
X590000Y384471D01*
X606392D01*
X606402Y384421D01*
X606730Y383930D01*
X607221Y383602D01*
X607800Y383487D01*
X608379Y383602D01*
X608870Y383930D01*
X609198Y384421D01*
X609208Y384471D01*
X634971D01*
Y365000D01*
X635087Y364415D01*
X635419Y363919D01*
X650419Y348919D01*
X650915Y348587D01*
X651500Y348471D01*
X685000D01*
X685585Y348587D01*
X686081Y348919D01*
X703081Y365919D01*
X703413Y366415D01*
X703529Y367000D01*
Y371300D01*
X703413Y371885D01*
X703081Y372381D01*
X702585Y372713D01*
X702000Y372829D01*
X701415Y372713D01*
X700919Y372381D01*
X700587Y371885D01*
X700471Y371300D01*
Y367634D01*
X684367Y351529D01*
X652134D01*
X638029Y365634D01*
Y384471D01*
X655532D01*
Y383079D01*
X660468D01*
Y384076D01*
X661531D01*
Y383079D01*
X666468D01*
Y384076D01*
X667531D01*
Y383079D01*
X668706D01*
X668715Y383056D01*
X668789Y382579D01*
X668553Y382421D01*
X665841Y379709D01*
X665782Y379721D01*
X665203Y379606D01*
X664712Y379278D01*
X664384Y378787D01*
X664268Y378208D01*
X664381Y377643D01*
X664395Y377553D01*
X664114Y377143D01*
X659023D01*
X658633Y377065D01*
X658302Y376844D01*
X656160Y374701D01*
X656100Y374713D01*
X655521Y374598D01*
X655030Y374270D01*
X654702Y373779D01*
X654697Y373752D01*
X654154Y373588D01*
X649968Y377774D01*
X650013Y378000D01*
X649898Y378579D01*
X649570Y379070D01*
X649079Y379398D01*
X648500Y379513D01*
X647921Y379398D01*
X647430Y379070D01*
X647102Y378579D01*
X646987Y378000D01*
X647102Y377421D01*
X647430Y376930D01*
X647921Y376602D01*
X648340Y376519D01*
X655079Y369779D01*
X655410Y369558D01*
X655800Y369480D01*
X668963D01*
X669353Y369558D01*
X669684Y369779D01*
X680873Y380969D01*
X680975Y380952D01*
X681396Y380516D01*
Y359004D01*
X681346Y358970D01*
X681018Y358479D01*
X680902Y357900D01*
X681018Y357321D01*
X681346Y356830D01*
X681837Y356502D01*
X682184Y356433D01*
X682363Y355905D01*
X681760Y355301D01*
X681700Y355313D01*
X681121Y355198D01*
X680630Y354870D01*
X680302Y354379D01*
X680187Y353800D01*
X680302Y353221D01*
X680630Y352730D01*
X681121Y352402D01*
X681700Y352287D01*
X682279Y352402D01*
X682770Y352730D01*
X683098Y353221D01*
X683213Y353800D01*
X683202Y353860D01*
X685221Y355879D01*
X685442Y356210D01*
X685520Y356600D01*
Y363578D01*
X695440Y373499D01*
X695500Y373487D01*
X696079Y373602D01*
X696570Y373930D01*
X696898Y374421D01*
X697013Y375000D01*
X696898Y375579D01*
X696570Y376070D01*
X696079Y376398D01*
X695500Y376513D01*
X694921Y376398D01*
X694430Y376070D01*
X694102Y375579D01*
X693987Y375000D01*
X693998Y374940D01*
X683935Y364877D01*
X683435Y365084D01*
Y380093D01*
X684255Y380913D01*
X684797Y380748D01*
X684826Y380608D01*
X685153Y380117D01*
X685644Y379788D01*
X686224Y379673D01*
X686803Y379788D01*
X687294Y380117D01*
X687327Y380167D01*
X691287D01*
X691677Y380245D01*
X692008Y380466D01*
X698121Y386579D01*
X698342Y386910D01*
X698420Y387300D01*
Y419000D01*
X698342Y419390D01*
X698121Y419721D01*
X682921Y434921D01*
X682590Y435142D01*
X682200Y435220D01*
X676304D01*
X676270Y435270D01*
X675779Y435598D01*
X675386Y435676D01*
X675189Y436166D01*
X675189Y436187D01*
X676377Y437375D01*
X699986D01*
X700171Y437252D01*
X700750Y437136D01*
X701329Y437252D01*
X701820Y437579D01*
X702148Y438070D01*
X702263Y438650D01*
X702148Y439229D01*
X701820Y439720D01*
X701329Y440048D01*
X700750Y440163D01*
X700171Y440048D01*
X699986Y439924D01*
X675850D01*
X675362Y439827D01*
X674948Y439551D01*
X667539Y432142D01*
X667321Y432098D01*
X666830Y431770D01*
X666502Y431279D01*
X666387Y430700D01*
X666502Y430121D01*
X666830Y429630D01*
X667321Y429302D01*
X667900Y429187D01*
X668479Y429302D01*
X668970Y429630D01*
X669298Y430121D01*
X669342Y430339D01*
X673213Y434211D01*
X673234Y434211D01*
X673724Y434014D01*
X673802Y433621D01*
X674130Y433130D01*
X674621Y432802D01*
X675200Y432687D01*
X675779Y432802D01*
X676270Y433130D01*
X676304Y433180D01*
X681778D01*
X696380Y418578D01*
Y387722D01*
X690864Y382206D01*
X687327D01*
X687294Y382257D01*
X686803Y382585D01*
X686671Y382611D01*
Y383121D01*
X687079Y383202D01*
X687570Y383530D01*
X687898Y384021D01*
X688013Y384600D01*
X687898Y385179D01*
X687570Y385670D01*
X687079Y385998D01*
X686500Y386113D01*
X685921Y385998D01*
X685820Y385930D01*
X685320Y386198D01*
Y392700D01*
X685242Y393090D01*
X685021Y393421D01*
X683002Y395440D01*
X683013Y395500D01*
X682898Y396079D01*
X682570Y396570D01*
X682547Y396586D01*
X682565Y396878D01*
X682627Y397134D01*
X683070Y397430D01*
X683104Y397480D01*
X687414D01*
X687980Y396914D01*
Y393204D01*
X687930Y393170D01*
X687602Y392679D01*
X687487Y392100D01*
X687602Y391521D01*
X687930Y391030D01*
X688421Y390702D01*
X689000Y390587D01*
X689579Y390702D01*
X690070Y391030D01*
X690398Y391521D01*
X690513Y392100D01*
X690398Y392679D01*
X690070Y393170D01*
X690020Y393204D01*
Y396121D01*
X692938D01*
X693328Y396199D01*
X693659Y396420D01*
X694880Y397641D01*
X695101Y397972D01*
X695179Y398362D01*
Y409441D01*
X695101Y409831D01*
X694880Y410162D01*
X684101Y420940D01*
X684113Y421000D01*
X683998Y421579D01*
X683670Y422070D01*
X683179Y422398D01*
X682600Y422513D01*
X682021Y422398D01*
X681893Y422313D01*
X681533Y422673D01*
X681698Y422921D01*
X681813Y423500D01*
X681698Y424079D01*
X681370Y424570D01*
X680879Y424898D01*
X680300Y425013D01*
X679721Y424898D01*
X679230Y424570D01*
X679196Y424520D01*
X670000D01*
X669610Y424442D01*
X669279Y424221D01*
X656060Y411001D01*
X656000Y411013D01*
X655421Y410898D01*
X654930Y410570D01*
X654602Y410079D01*
X654487Y409500D01*
X654602Y408921D01*
X654930Y408430D01*
X655421Y408102D01*
X656000Y407987D01*
X656579Y408102D01*
X657070Y408430D01*
X657398Y408921D01*
X657513Y409500D01*
X657502Y409560D01*
X670422Y422480D01*
X679196D01*
X679230Y422430D01*
X679721Y422102D01*
X680300Y421987D01*
X680879Y422102D01*
X681007Y422187D01*
X681367Y421827D01*
X681202Y421579D01*
X681087Y421000D01*
X681202Y420421D01*
X681530Y419930D01*
X682021Y419602D01*
X682600Y419487D01*
X682660Y419498D01*
X693140Y409019D01*
Y400893D01*
X692729Y400613D01*
X692639Y400626D01*
X692075Y400738D01*
X691496Y400623D01*
X691005Y400295D01*
X690971Y400245D01*
X689796D01*
X681377Y408664D01*
X681696Y409053D01*
X681921Y408902D01*
X682500Y408787D01*
X683079Y408902D01*
X683570Y409230D01*
X683898Y409721D01*
X684013Y410300D01*
X683898Y410879D01*
X683570Y411370D01*
X683079Y411698D01*
X682500Y411813D01*
X682440Y411801D01*
X680521Y413721D01*
X680190Y413942D01*
X679800Y414020D01*
X668384D01*
X667994Y413942D01*
X667663Y413721D01*
X666547Y412605D01*
X666269Y412661D01*
X665690Y412545D01*
X665199Y412217D01*
X664871Y411726D01*
X664756Y411147D01*
X664871Y410568D01*
X665199Y410077D01*
X665690Y409749D01*
X666269Y409634D01*
X666513Y409682D01*
X666942Y409517D01*
X667024Y409313D01*
X667102Y408921D01*
X667430Y408430D01*
X667921Y408102D01*
X668500Y407987D01*
X669079Y408102D01*
X669570Y408430D01*
X669898Y408921D01*
X670013Y409500D01*
X670015Y409502D01*
X674577D01*
X674858Y409091D01*
X674844Y409001D01*
X674731Y408437D01*
X674834Y407921D01*
X674756Y407678D01*
X674626Y407421D01*
X673531D01*
Y406424D01*
X672469D01*
Y407421D01*
X667531D01*
Y406424D01*
X666468D01*
Y407421D01*
X661531D01*
Y406424D01*
X660468D01*
Y407421D01*
X655532D01*
Y406679D01*
X651049D01*
X650741Y407079D01*
X660831Y417169D01*
X661163Y417665D01*
X661279Y418250D01*
Y432350D01*
X661163Y432936D01*
X660831Y433432D01*
X660335Y433763D01*
X659750Y433880D01*
X659165Y433763D01*
X658669Y433432D01*
X658337Y432936D01*
X658221Y432350D01*
Y418884D01*
X647866Y408529D01*
X642298D01*
X642271Y408570D01*
X641780Y408898D01*
X641201Y409013D01*
X640622Y408898D01*
X640131Y408570D01*
X640103Y408529D01*
X617134D01*
X576206Y449456D01*
X575710Y449788D01*
X575125Y449904D01*
X546900D01*
Y474922D01*
X546803Y475410D01*
X546526Y475823D01*
X544442Y477908D01*
X544398Y478126D01*
X544070Y478617D01*
X543579Y478945D01*
X543000Y479061D01*
D02*
G37*
G36*
X640150Y432650D02*
X632850D01*
Y425350D01*
X640150D01*
Y432650D01*
D02*
G37*
G36*
X650331Y440513D02*
X649752Y440398D01*
X649261Y440070D01*
X648933Y439579D01*
X648818Y439000D01*
X648933Y438421D01*
X649261Y437930D01*
X649312Y437896D01*
Y419935D01*
X649390Y419545D01*
X649611Y419214D01*
X651482Y417343D01*
X651470Y417283D01*
X651585Y416704D01*
X651913Y416213D01*
X652404Y415885D01*
X652983Y415770D01*
X653562Y415885D01*
X654053Y416213D01*
X654381Y416704D01*
X654469Y417142D01*
X654670Y417413D01*
X654941Y417614D01*
X655379Y417701D01*
X655870Y418029D01*
X656198Y418520D01*
X656313Y419100D01*
X656198Y419679D01*
X655870Y420170D01*
X655379Y420498D01*
X654800Y420613D01*
X654740Y420601D01*
X653435Y421906D01*
Y435296D01*
X653486Y435330D01*
X653814Y435821D01*
X653929Y436400D01*
X653814Y436979D01*
X653486Y437470D01*
X652995Y437798D01*
X652416Y437913D01*
X651927Y437816D01*
X651703Y438034D01*
X651596Y438221D01*
X651730Y438421D01*
X651845Y439000D01*
X651730Y439579D01*
X651402Y440070D01*
X650911Y440398D01*
X650331Y440513D01*
D02*
G37*
G36*
X530000Y421032D02*
X528726Y420906D01*
X527500Y420534D01*
X526371Y419931D01*
X525382Y419118D01*
X524569Y418129D01*
X523966Y416999D01*
X523594Y415774D01*
X523468Y414500D01*
X523594Y413226D01*
X523966Y412001D01*
X524569Y410871D01*
X525382Y409882D01*
X526371Y409069D01*
X527500Y408466D01*
X528726Y408094D01*
X530000Y407969D01*
X531274Y408094D01*
X532500Y408466D01*
X533629Y409069D01*
X534618Y409882D01*
X535431Y410871D01*
X536034Y412001D01*
X536406Y413226D01*
X536531Y414500D01*
X536406Y415774D01*
X536034Y416999D01*
X535431Y418129D01*
X534618Y419118D01*
X533629Y419931D01*
X532500Y420534D01*
X531274Y420906D01*
X530000Y421032D01*
D02*
G37*
G36*
X596500Y378013D02*
X595921Y377898D01*
X595430Y377570D01*
X595102Y377079D01*
X594987Y376500D01*
X594999Y376440D01*
X594279Y375721D01*
X594058Y375390D01*
X593980Y375000D01*
Y365500D01*
X594058Y365110D01*
X594279Y364779D01*
X597499Y361560D01*
X597487Y361500D01*
X597602Y360921D01*
X597930Y360430D01*
X598421Y360102D01*
X599000Y359987D01*
X599579Y360102D01*
X600070Y360430D01*
X600398Y360921D01*
X600513Y361500D01*
X600398Y362079D01*
X600070Y362570D01*
X599579Y362898D01*
X599000Y363013D01*
X598940Y363001D01*
X596020Y365922D01*
Y374578D01*
X596440Y374998D01*
X596500Y374987D01*
X597079Y375102D01*
X597570Y375430D01*
X597898Y375921D01*
X598013Y376500D01*
X597898Y377079D01*
X597570Y377570D01*
X597079Y377898D01*
X596500Y378013D01*
D02*
G37*
G36*
X571382Y380631D02*
X570803Y380516D01*
X570312Y380188D01*
X569984Y379697D01*
X569869Y379118D01*
X569984Y378539D01*
X570312Y378048D01*
X570362Y378014D01*
Y367804D01*
X567060Y364502D01*
X567000Y364513D01*
X566421Y364398D01*
X565930Y364070D01*
X565602Y363579D01*
X565487Y363000D01*
X565602Y362421D01*
X565930Y361930D01*
X566421Y361602D01*
X567000Y361487D01*
X567579Y361602D01*
X568070Y361930D01*
X568398Y362421D01*
X568513Y363000D01*
X568502Y363060D01*
X572103Y366661D01*
X572324Y366992D01*
X572402Y367382D01*
Y378014D01*
X572452Y378048D01*
X572780Y378539D01*
X572895Y379118D01*
X572780Y379697D01*
X572452Y380188D01*
X571961Y380516D01*
X571382Y380631D01*
D02*
G37*
G36*
X671500Y319998D02*
X670595Y319879D01*
X669751Y319530D01*
X669026Y318974D01*
X668470Y318249D01*
X668121Y317406D01*
X668002Y316500D01*
X668121Y315595D01*
X668470Y314751D01*
X669026Y314026D01*
X669751Y313470D01*
X670595Y313121D01*
X671500Y313002D01*
X672405Y313121D01*
X673249Y313470D01*
X673974Y314026D01*
X674530Y314751D01*
X674879Y315595D01*
X674998Y316500D01*
X674879Y317406D01*
X674530Y318249D01*
X673974Y318974D01*
X673249Y319530D01*
X672405Y319879D01*
X671500Y319998D01*
D02*
G37*
G36*
X672000Y300437D02*
Y297000D01*
X675437D01*
X675366Y297536D01*
X674966Y298501D01*
X674330Y299330D01*
X673501Y299967D01*
X672536Y300366D01*
X672000Y300437D01*
D02*
G37*
G36*
X671000D02*
X670464Y300366D01*
X669499Y299967D01*
X668670Y299330D01*
X668034Y298501D01*
X667634Y297536D01*
X667563Y297000D01*
X671000D01*
Y300437D01*
D02*
G37*
G36*
X675437Y296000D02*
X672000D01*
Y292563D01*
X672536Y292634D01*
X673501Y293034D01*
X674330Y293670D01*
X674966Y294499D01*
X675366Y295464D01*
X675437Y296000D01*
D02*
G37*
G36*
X671000D02*
X667563D01*
X667634Y295464D01*
X668034Y294499D01*
X668670Y293670D01*
X669499Y293034D01*
X670464Y292634D01*
X671000Y292563D01*
Y296000D01*
D02*
G37*
%LPD*%
G36*
X687176Y399981D02*
X686984Y399520D01*
X683104D01*
X683070Y399570D01*
X682579Y399898D01*
X682000Y400013D01*
X681421Y399898D01*
X680930Y399570D01*
X680602Y399079D01*
X680487Y398500D01*
X680602Y397921D01*
X680930Y397430D01*
X680953Y397414D01*
X680935Y397122D01*
X680873Y396866D01*
X680430Y396570D01*
X680102Y396079D01*
X679987Y395500D01*
X680102Y394921D01*
X680430Y394430D01*
X680921Y394102D01*
X681500Y393987D01*
X681560Y393999D01*
X683280Y392278D01*
Y390431D01*
X682780Y390164D01*
X682579Y390298D01*
X682000Y390413D01*
X681421Y390298D01*
X680930Y389970D01*
X680602Y389479D01*
X680487Y388900D01*
X680602Y388321D01*
X680930Y387830D01*
X680980Y387796D01*
Y386477D01*
X678930Y384427D01*
X678469Y384618D01*
Y387622D01*
X673531D01*
Y386625D01*
X672469D01*
Y387622D01*
X667531D01*
Y386625D01*
X666468D01*
Y387622D01*
X661531D01*
Y386625D01*
X660468D01*
Y387622D01*
X655532D01*
Y387529D01*
X654646D01*
X654379Y388029D01*
X654525Y388248D01*
X654612Y388684D01*
X655005Y388865D01*
X655121Y388878D01*
X657500D01*
Y391150D01*
X655031D01*
Y389900D01*
X654531Y389695D01*
X654401Y389826D01*
Y399642D01*
X654531Y399734D01*
X655031Y399474D01*
Y399350D01*
X657500D01*
Y401622D01*
X656731D01*
X656540Y402084D01*
X657334Y402878D01*
X660468D01*
Y403875D01*
X661531D01*
Y402878D01*
X666468D01*
Y403875D01*
X667531D01*
Y402878D01*
X672469D01*
Y403875D01*
X673531D01*
Y402878D01*
X678469D01*
Y407421D01*
X677953D01*
X677703Y407773D01*
X677656Y407921D01*
X677758Y408437D01*
X677695Y408755D01*
X678156Y409001D01*
X687176Y399981D01*
D02*
G37*
G36*
X615419Y405919D02*
X615915Y405587D01*
X616500Y405471D01*
X647866D01*
X649269Y404068D01*
X649765Y403737D01*
X650350Y403620D01*
X653818D01*
X654009Y403158D01*
X652225Y401374D01*
X651949Y400961D01*
X651852Y400473D01*
Y389591D01*
X651729Y389406D01*
X651613Y388827D01*
X651729Y388248D01*
X651874Y388029D01*
X651607Y387529D01*
X642846D01*
X642654Y387991D01*
X643081Y388419D01*
X643413Y388915D01*
X643529Y389500D01*
X643413Y390085D01*
X643081Y390581D01*
X642585Y390913D01*
X642000Y391029D01*
X641415Y390913D01*
X640919Y390581D01*
X637866Y387529D01*
X590633D01*
X586081Y392081D01*
X585585Y392413D01*
X585000Y392529D01*
X560000D01*
X559415Y392413D01*
X558919Y392081D01*
X552919Y386081D01*
X552587Y385585D01*
X552471Y385000D01*
Y369500D01*
Y346000D01*
X552587Y345415D01*
X552852Y345018D01*
X552464Y344699D01*
X543529Y353633D01*
Y444116D01*
X546258Y446846D01*
X574492D01*
X615419Y405919D01*
D02*
G37*
G36*
X671625Y374604D02*
X668540Y371520D01*
X657157D01*
X657005Y372020D01*
X657170Y372130D01*
X657498Y372621D01*
X657613Y373200D01*
X657601Y373260D01*
X659446Y375104D01*
X671418D01*
X671625Y374604D01*
D02*
G37*
%LPC*%
G36*
X666968Y401622D02*
X666532Y401622D01*
X664500D01*
Y398850D01*
Y396079D01*
X666532D01*
X667031Y396079D01*
X667469Y396079D01*
X669500D01*
Y398850D01*
Y401622D01*
X667469D01*
X666968Y401622D01*
D02*
G37*
G36*
X673032Y401622D02*
X672532Y401622D01*
X670500D01*
Y398850D01*
Y396079D01*
X672532D01*
X672968Y396079D01*
X673468Y396079D01*
X675500D01*
Y398850D01*
Y401622D01*
X673468D01*
X673032Y401622D01*
D02*
G37*
G36*
X676500Y401622D02*
Y399350D01*
X678968D01*
Y401622D01*
X676500D01*
D02*
G37*
G36*
X661031Y401622D02*
X660532Y401622D01*
X658500D01*
Y398850D01*
Y396079D01*
X660532D01*
X660968Y396079D01*
X661469Y396079D01*
X663500D01*
Y398850D01*
Y401622D01*
X661469D01*
X661031Y401622D01*
D02*
G37*
G36*
X678968Y398350D02*
X676500D01*
Y396079D01*
X678968D01*
Y398350D01*
D02*
G37*
G36*
X657500D02*
X655031D01*
Y396079D01*
X657500D01*
Y398350D01*
D02*
G37*
G36*
X673032Y394421D02*
X672532Y394421D01*
X670500D01*
Y391650D01*
Y388878D01*
X672532D01*
X672968Y388878D01*
X673468Y388878D01*
X675500D01*
Y391650D01*
Y394421D01*
X673468D01*
X673032Y394421D01*
D02*
G37*
G36*
X667031Y394421D02*
X666532Y394421D01*
X664500D01*
Y391650D01*
Y388878D01*
X666532D01*
X666968Y388878D01*
X667469Y388878D01*
X669500D01*
Y391650D01*
Y394421D01*
X667469D01*
X667031Y394421D01*
D02*
G37*
G36*
X676500D02*
Y392150D01*
X678968D01*
Y394421D01*
X676500D01*
D02*
G37*
G36*
X657500Y394421D02*
X655031D01*
Y392150D01*
X657500D01*
Y394421D01*
D02*
G37*
G36*
X678968Y391150D02*
X676500D01*
Y388878D01*
X678968D01*
Y391150D01*
D02*
G37*
G36*
X661031Y394421D02*
X660532Y394421D01*
X658500D01*
Y391650D01*
Y388878D01*
X660532D01*
X660968Y388878D01*
X661469Y388878D01*
X663500D01*
Y391650D01*
Y394421D01*
X661469D01*
X661031Y394421D01*
D02*
G37*
G36*
X636100Y402713D02*
X635521Y402598D01*
X635030Y402270D01*
X634996Y402220D01*
X558123D01*
X557733Y402142D01*
X557402Y401921D01*
X547679Y392198D01*
X547458Y391867D01*
X547380Y391477D01*
Y364999D01*
X546321Y363940D01*
X546262Y363952D01*
X545682Y363837D01*
X545191Y363509D01*
X544863Y363018D01*
X544748Y362439D01*
X544863Y361859D01*
X545191Y361368D01*
X545682Y361040D01*
X546146Y360948D01*
X546405Y360743D01*
X546610Y360485D01*
X546702Y360021D01*
X547030Y359530D01*
X547521Y359202D01*
X548100Y359087D01*
X548679Y359202D01*
X549170Y359530D01*
X549498Y360021D01*
X549613Y360600D01*
X549602Y360660D01*
X551221Y362279D01*
X551442Y362610D01*
X551520Y363000D01*
Y389478D01*
X559622Y397580D01*
X632296D01*
X632330Y397530D01*
X632821Y397202D01*
X633400Y397087D01*
X633979Y397202D01*
X634470Y397530D01*
X634798Y398021D01*
X634913Y398600D01*
X634798Y399179D01*
X634561Y399534D01*
X634725Y399986D01*
X634774Y400046D01*
X635079Y400097D01*
X635521Y399802D01*
X636100Y399687D01*
X636679Y399802D01*
X637170Y400130D01*
X637498Y400621D01*
X637613Y401200D01*
X637498Y401779D01*
X637170Y402270D01*
X636679Y402598D01*
X636100Y402713D01*
D02*
G37*
%LPD*%
G36*
X631886Y399680D02*
X631841Y399620D01*
X559200D01*
X558810Y399542D01*
X558479Y399321D01*
X550296Y391138D01*
X549752Y391301D01*
X549737Y391372D01*
X558545Y400180D01*
X631635D01*
X631886Y399680D01*
D02*
G37*
D15*
X677500Y467500D02*
Y478252D01*
X673000Y482752D02*
X677500Y478252D01*
X689374Y399225D02*
X692075D01*
X678078Y410521D02*
X689374Y399225D01*
X692938Y397141D02*
X694159Y398362D01*
X689195Y397141D02*
X692938D01*
X688900Y397436D02*
X689195Y397141D01*
X694159Y398362D02*
Y409441D01*
X682600Y421000D02*
X694159Y409441D01*
X684500Y364000D02*
X695500Y375000D01*
X684500Y356600D02*
Y364000D01*
X682416Y357900D02*
Y380516D01*
X686500Y384600D01*
X686224Y381187D02*
X691287D01*
X697400Y387300D01*
X669274Y381700D02*
X670400D01*
X665782Y378208D02*
X669274Y381700D01*
X682000Y386055D02*
Y388900D01*
X672069Y376123D02*
X682000Y386055D01*
X659023Y376123D02*
X672069D01*
X656100Y373200D02*
X659023Y376123D01*
X668963Y370500D02*
X684300Y385837D01*
X655800Y370500D02*
X668963D01*
X668549Y409500D02*
X669570Y410521D01*
X668500Y409500D02*
X668549D01*
X669570Y410521D02*
X678078D01*
X682000Y398500D02*
X687836D01*
X688900Y397436D01*
X666531Y411147D02*
X668384Y413000D01*
X679800D02*
X682500Y410300D01*
X668384Y413000D02*
X679800D01*
X666269Y411147D02*
X666531D01*
X650331Y419935D02*
X652983Y417283D01*
X650331Y419935D02*
Y439000D01*
X656000Y409500D02*
X670000Y423500D01*
X652416Y421483D02*
X654800Y419100D01*
X652416Y421483D02*
Y436400D01*
X664000Y391650D02*
X664800Y392450D01*
X546262Y362439D02*
X548400Y364577D01*
Y391477D01*
X548100Y360600D02*
X550500Y363000D01*
Y389900D02*
X559200Y398600D01*
X550500Y363000D02*
Y389900D01*
X648500Y377800D02*
Y378000D01*
X548400Y391477D02*
X558123Y401200D01*
X675200Y434200D02*
X682200D01*
X697400Y387300D02*
Y419000D01*
X681700Y353800D02*
X684500Y356600D01*
X689000Y392100D02*
Y397336D01*
X688900Y397436D02*
X689000Y397336D01*
X670000Y423500D02*
X680300D01*
X693000Y471300D02*
Y472752D01*
X682700Y461000D02*
X693000Y471300D01*
X682700Y455200D02*
Y461000D01*
X673200Y455200D02*
X677700D01*
X653000Y472752D02*
X654033Y471719D01*
X656681D01*
X673200Y455200D01*
X684300Y385837D02*
Y392700D01*
X681500Y395500D02*
X684300Y392700D01*
X558123Y401200D02*
X636100D01*
X559200Y398600D02*
X633400D01*
X648500Y377800D02*
X655800Y370500D01*
X682200Y434200D02*
X697400Y419000D01*
X668652Y468348D02*
X677500Y459500D01*
X668652Y468348D02*
Y477100D01*
X663000Y482752D02*
X668652Y477100D01*
X569000Y335000D02*
X618000D01*
X560500Y343500D02*
X569000Y335000D01*
X595000Y375000D02*
X596500Y376500D01*
X595000Y365500D02*
Y375000D01*
Y365500D02*
X599000Y361500D01*
X567000Y363000D02*
X571382Y367382D01*
Y379118D01*
D44*
X527236Y330138D02*
D03*
D45*
X556764D02*
D03*
X527236Y251398D02*
D03*
X556764D02*
D03*
Y231713D02*
D03*
X527236D02*
D03*
D53*
X522039Y199000D02*
D03*
D54*
Y189000D02*
D03*
X551961D02*
D03*
Y199000D02*
D03*
D58*
X676000Y398850D02*
D03*
Y405150D02*
D03*
Y391650D02*
D03*
Y385350D02*
D03*
X670000Y391650D02*
D03*
Y385350D02*
D03*
Y398850D02*
D03*
Y405150D02*
D03*
X658000Y391650D02*
D03*
Y385350D02*
D03*
X664000Y405150D02*
D03*
Y398850D02*
D03*
X658000Y398850D02*
D03*
Y405150D02*
D03*
X664000Y385350D02*
D03*
Y391650D02*
D03*
D71*
X673100Y381900D02*
Y385250D01*
X673000Y385350D02*
X673100Y385250D01*
X670000Y405150D02*
X676000D01*
X657803D02*
X664000D01*
X676155Y408347D02*
X676245Y408437D01*
X664000Y405150D02*
X670000D01*
X676155Y405305D02*
Y408347D01*
X569000Y285500D02*
X581000D01*
X589500Y294000D02*
Y311000D01*
X581000Y285500D02*
X589500Y294000D01*
X563000Y291500D02*
X569000Y285500D01*
X593500Y315000D02*
X601000D01*
X589500Y311000D02*
X593500Y315000D01*
X659000Y385350D02*
X664000D01*
X545625Y448375D02*
Y474922D01*
X543000Y477547D02*
X545625Y474922D01*
X662000Y462000D02*
X673000Y451000D01*
X657000Y467000D02*
X662000Y462000D01*
X651248Y481000D02*
X653000Y482752D01*
X648000Y481000D02*
X651248D01*
X646000Y470000D02*
Y479000D01*
X648000Y481000D01*
X646000Y470000D02*
X649000Y467000D01*
X657000D01*
X673000Y451000D02*
X691000D01*
X695000Y455000D01*
X693015Y460937D02*
X695000Y458953D01*
Y455000D02*
Y458953D01*
X525900Y340700D02*
Y354300D01*
X528900Y357300D01*
X525900Y340700D02*
X530400Y336200D01*
X550702D02*
X556764Y330138D01*
X530400Y336200D02*
X550702D01*
X675850Y438650D02*
X700750D01*
X667900Y430700D02*
X675850Y438650D01*
X653127Y388827D02*
Y400473D01*
X657803Y405150D01*
X676000D02*
X676155Y405305D01*
X673000Y385350D02*
X676000D01*
X670000D02*
X673000D01*
X664000D02*
X670000D01*
X676000D02*
X676000Y385350D01*
D72*
X695500Y148500D02*
Y162500D01*
X671500Y186500D02*
X695500Y162500D01*
D73*
X616500Y407000D02*
X641201D01*
X648500D01*
X638500Y386000D02*
X658350D01*
X636500D02*
X638500D01*
X590000D02*
X636500D01*
X702000Y367000D02*
Y371300D01*
X685000Y350000D02*
X702000Y367000D01*
X651500Y350000D02*
X685000D01*
X636500Y365000D02*
Y386000D01*
Y365000D02*
X651500Y350000D01*
X659750Y418250D02*
Y432350D01*
X658350Y386000D02*
X659000Y385350D01*
X638500Y386000D02*
X642000Y389500D01*
X585000Y391000D02*
X590000Y386000D01*
X560000Y391000D02*
X585000D01*
X554000Y385000D02*
X560000Y391000D01*
X554000Y369500D02*
Y385000D01*
Y346000D02*
Y369500D01*
X569547Y324000D02*
Y330453D01*
X554000Y346000D02*
X569547Y330453D01*
X648500Y407000D02*
X659750Y418250D01*
X566000Y296000D02*
Y329000D01*
X542000Y353000D02*
Y444750D01*
Y353000D02*
X566000Y329000D01*
X650350Y405150D02*
X657803D01*
X648500Y407000D02*
X650350Y405150D01*
X545625Y448375D02*
X575125D01*
X616500Y407000D01*
X542000Y444750D02*
X545625Y448375D01*
X566000Y296000D02*
X569500Y292500D01*
D74*
X702500Y105500D02*
D03*
X523000D02*
D03*
X530000Y414500D02*
D03*
D75*
X673000Y472752D02*
D03*
Y482752D02*
D03*
X653000Y472752D02*
D03*
X663000Y482752D02*
D03*
Y472752D02*
D03*
X683000Y482752D02*
D03*
X693000D02*
D03*
X683000Y472752D02*
D03*
X693000D02*
D03*
D76*
X653000Y482752D02*
D03*
D77*
X636500Y453500D02*
D03*
Y429000D02*
D03*
D78*
Y463500D02*
D03*
Y439000D02*
D03*
D79*
X695500Y148500D02*
D03*
X554000Y149000D02*
D03*
X596500Y135500D02*
D03*
D80*
X670500Y148500D02*
D03*
X529000Y149000D02*
D03*
D81*
X602000Y292764D02*
D03*
Y263236D02*
D03*
D82*
X636000Y258315D02*
D03*
D83*
Y297685D02*
D03*
D84*
X671500Y186500D02*
D03*
D85*
Y206500D02*
D03*
Y226500D02*
D03*
Y246500D02*
D03*
Y316500D02*
D03*
Y296500D02*
D03*
D86*
X582721Y135500D02*
D03*
D87*
X677500Y467500D02*
D03*
X692075Y399225D02*
D03*
X695500Y375000D02*
D03*
X682416Y357900D02*
D03*
X686224Y381187D02*
D03*
X673100Y381900D02*
D03*
X665782Y378208D02*
D03*
X668500Y409500D02*
D03*
X682000Y398500D02*
D03*
X676245Y408437D02*
D03*
X680300Y423500D02*
D03*
X666269Y411147D02*
D03*
X656000Y409500D02*
D03*
X654800Y419100D02*
D03*
X652983Y417283D02*
D03*
X652416Y436400D02*
D03*
X569500Y324000D02*
D03*
X702500Y426500D02*
D03*
X696000D02*
D03*
X528900Y357300D02*
D03*
X543000Y477547D02*
D03*
X546262Y362439D02*
D03*
X554000Y369500D02*
D03*
X563000Y291500D02*
D03*
X567000Y363000D02*
D03*
X569500Y292500D02*
D03*
X571382Y379118D02*
D03*
X590000Y386000D02*
D03*
X599000Y361500D02*
D03*
X601000Y315000D02*
D03*
X618000Y335000D02*
D03*
X633400Y398600D02*
D03*
X636100Y401200D02*
D03*
X642000Y389500D02*
D03*
X653127Y388827D02*
D03*
X650331Y439000D02*
D03*
X652000Y454000D02*
D03*
Y460000D02*
D03*
X659750Y453150D02*
D03*
X662000Y462000D02*
D03*
X670400Y381700D02*
D03*
X667900Y395500D02*
D03*
X671000D02*
D03*
X667900Y430700D02*
D03*
X675200Y434200D02*
D03*
X677500Y459500D02*
D03*
X681700Y353800D02*
D03*
X682000Y388900D02*
D03*
X681500Y395500D02*
D03*
X682500Y410300D02*
D03*
X682600Y421000D02*
D03*
X693015Y460937D02*
D03*
X690000Y459000D02*
D03*
X692000Y457000D02*
D03*
X702000Y371300D02*
D03*
X700750Y438650D02*
D03*
X548100Y360600D02*
D03*
X545625Y448375D02*
D03*
X596500Y376500D02*
D03*
X641201Y407500D02*
D03*
X659750Y432350D02*
D03*
X677700Y455200D02*
D03*
X686500Y384600D02*
D03*
X682700Y455200D02*
D03*
X689000Y392100D02*
D03*
X607800Y385000D02*
D03*
X656100Y373200D02*
D03*
X648500Y378000D02*
D03*
X664800Y395500D02*
D03*
X674300D02*
D03*
X648000Y454000D02*
D03*
Y460000D02*
D03*
X656000D02*
D03*
X560500Y343500D02*
D03*
X573531Y331000D02*
D03*
X577468D02*
D03*
Y299500D02*
D03*
X573531D02*
D03*
D88*
X691500Y377000D02*
D03*
X705000Y410000D02*
D03*
X700000Y400000D02*
D03*
X705000Y390000D02*
D03*
X700000Y380000D02*
D03*
Y360000D02*
D03*
X705000Y330000D02*
D03*
X700000Y320000D02*
D03*
X705000Y310000D02*
D03*
X700000Y300000D02*
D03*
X690000Y360000D02*
D03*
X695000Y330000D02*
D03*
X690000Y320000D02*
D03*
X695000Y310000D02*
D03*
X690000Y300000D02*
D03*
X680000Y360000D02*
D03*
Y340000D02*
D03*
X685000Y330000D02*
D03*
X680000Y320000D02*
D03*
X685000Y310000D02*
D03*
X680000Y300000D02*
D03*
X670000Y360000D02*
D03*
Y340000D02*
D03*
X675000Y330000D02*
D03*
Y310000D02*
D03*
X660000Y360000D02*
D03*
Y340000D02*
D03*
X665000Y330000D02*
D03*
X660000Y320000D02*
D03*
X665000Y310000D02*
D03*
X650000Y360000D02*
D03*
Y340000D02*
D03*
X655000Y330000D02*
D03*
X650000Y320000D02*
D03*
X640000Y420000D02*
D03*
Y380000D02*
D03*
Y340000D02*
D03*
Y320000D02*
D03*
X630000Y440000D02*
D03*
Y420000D02*
D03*
X635000Y390000D02*
D03*
X630000Y380000D02*
D03*
Y340000D02*
D03*
Y320000D02*
D03*
X625000Y490000D02*
D03*
X620000Y480000D02*
D03*
X625000Y390000D02*
D03*
Y370000D02*
D03*
X620000Y340000D02*
D03*
X625000Y330000D02*
D03*
X615000Y490000D02*
D03*
X610000Y480000D02*
D03*
Y460000D02*
D03*
Y420000D02*
D03*
X615000Y390000D02*
D03*
X610000Y340000D02*
D03*
X615000Y330000D02*
D03*
X605000Y490000D02*
D03*
X600000Y480000D02*
D03*
X605000Y470000D02*
D03*
X600000Y460000D02*
D03*
X605000Y450000D02*
D03*
X600000Y440000D02*
D03*
X605000Y430000D02*
D03*
Y410000D02*
D03*
Y390000D02*
D03*
Y330000D02*
D03*
X600000Y320000D02*
D03*
X595000Y490000D02*
D03*
X590000Y480000D02*
D03*
X595000Y470000D02*
D03*
Y450000D02*
D03*
X590000Y440000D02*
D03*
Y420000D02*
D03*
X595000Y410000D02*
D03*
Y350000D02*
D03*
X590000Y340000D02*
D03*
X595000Y330000D02*
D03*
X585000Y490000D02*
D03*
X580000Y480000D02*
D03*
X585000Y470000D02*
D03*
X580000Y460000D02*
D03*
X585000Y450000D02*
D03*
Y430000D02*
D03*
X580000Y420000D02*
D03*
X585000Y410000D02*
D03*
Y350000D02*
D03*
X580000Y280000D02*
D03*
X575000Y490000D02*
D03*
X570000Y480000D02*
D03*
X575000Y470000D02*
D03*
X570000Y460000D02*
D03*
X575000Y430000D02*
D03*
Y410000D02*
D03*
Y350000D02*
D03*
X570000Y300000D02*
D03*
X565000Y490000D02*
D03*
X560000Y480000D02*
D03*
X565000Y470000D02*
D03*
X560000Y320000D02*
D03*
X555000Y490000D02*
D03*
X550000Y480000D02*
D03*
X555000Y470000D02*
D03*
X550000Y460000D02*
D03*
Y440000D02*
D03*
X555000Y430000D02*
D03*
X550000Y420000D02*
D03*
X555000Y410000D02*
D03*
X550000Y400000D02*
D03*
Y340000D02*
D03*
Y320000D02*
D03*
X545000Y430000D02*
D03*
Y410000D02*
D03*
Y390000D02*
D03*
Y370000D02*
D03*
X535000Y490000D02*
D03*
X530000Y460000D02*
D03*
Y440000D02*
D03*
X535000Y430000D02*
D03*
X530000Y400000D02*
D03*
X535000Y390000D02*
D03*
X530000Y380000D02*
D03*
Y360000D02*
D03*
X535000Y350000D02*
D03*
Y330000D02*
D03*
X530000Y320000D02*
D03*
X525000Y490000D02*
D03*
X520000Y440000D02*
D03*
X525000Y430000D02*
D03*
X520000Y420000D02*
D03*
Y400000D02*
D03*
X525000Y390000D02*
D03*
X520000Y380000D02*
D03*
Y320000D02*
D03*
D89*
X537500Y209500D02*
X542500Y214500D01*
X529000Y164600D02*
X537000Y172600D01*
X542500Y214500D02*
X554000Y226000D01*
X537000Y172600D02*
Y209500D01*
X529000Y149000D02*
Y164600D01*
X555000Y124000D02*
X569000Y110000D01*
X681500D01*
X555000Y124000D02*
Y142500D01*
X695500Y124000D02*
Y142000D01*
X681500Y110000D02*
X695500Y124000D01*
X537000Y209500D02*
Y220000D01*
X529500Y256500D02*
X564500D01*
X670500Y150500D01*
X537000Y209500D02*
X537500D01*
X530500Y226500D02*
X537000Y220000D01*
M02*
