G04*
G04 #@! TF.GenerationSoftware,Altium Limited,Altium Designer,20.2.8 (258)*
G04*
G04 Layer_Physical_Order=1*
G04 Layer_Color=255*
%FSLAX25Y25*%
%MOIN*%
G70*
G04*
G04 #@! TF.SameCoordinates,1A047D9A-836D-465F-8526-38319891AFC0*
G04*
G04*
G04 #@! TF.FilePolarity,Positive*
G04*
G01*
G75*
%ADD15C,0.01000*%
%ADD24R,0.04921X0.07874*%
%ADD25R,0.04231X0.02118*%
G04:AMPARAMS|DCode=26|XSize=42.31mil|YSize=21.18mil|CornerRadius=10.59mil|HoleSize=0mil|Usage=FLASHONLY|Rotation=180.000|XOffset=0mil|YOffset=0mil|HoleType=Round|Shape=RoundedRectangle|*
%AMROUNDEDRECTD26*
21,1,0.04231,0.00000,0,0,180.0*
21,1,0.02113,0.02118,0,0,180.0*
1,1,0.02118,-0.01056,0.00000*
1,1,0.02118,0.01056,0.00000*
1,1,0.02118,0.01056,0.00000*
1,1,0.02118,-0.01056,0.00000*
%
%ADD26ROUNDEDRECTD26*%
%ADD28R,0.08898X0.08504*%
%ADD33R,0.07874X0.04921*%
%ADD35R,0.01181X0.02362*%
%ADD36R,0.02362X0.01181*%
%ADD37R,0.13583X0.13583*%
%ADD38R,0.16700X0.15000*%
%ADD44R,0.07874X0.07874*%
%ADD45C,0.07874*%
%ADD53R,0.05118X0.05118*%
%ADD54C,0.05118*%
%ADD58R,0.03937X0.03543*%
%ADD59R,0.04331X0.06693*%
%ADD60R,0.07874X0.04724*%
%ADD61R,0.01181X0.01378*%
%ADD62R,0.06299X0.04331*%
%ADD63R,0.03543X0.03937*%
%ADD64R,0.10236X0.02559*%
%ADD65R,0.37795X0.30709*%
%ADD66R,0.09331X0.13268*%
%ADD67O,0.07284X0.01378*%
G04:AMPARAMS|DCode=68|XSize=64.57mil|YSize=16.14mil|CornerRadius=2.02mil|HoleSize=0mil|Usage=FLASHONLY|Rotation=90.000|XOffset=0mil|YOffset=0mil|HoleType=Round|Shape=RoundedRectangle|*
%AMROUNDEDRECTD68*
21,1,0.06457,0.01211,0,0,90.0*
21,1,0.06053,0.01614,0,0,90.0*
1,1,0.00404,0.00605,0.03027*
1,1,0.00404,0.00605,-0.03027*
1,1,0.00404,-0.00605,-0.03027*
1,1,0.00404,-0.00605,0.03027*
%
%ADD68ROUNDEDRECTD68*%
%ADD69R,0.06693X0.03150*%
%ADD70R,0.07480X0.05118*%
%ADD71C,0.03000*%
%ADD72C,0.01500*%
%ADD73C,0.02000*%
%ADD74C,0.06000*%
%ADD75C,0.06496*%
%ADD76R,0.06496X0.06496*%
%ADD77R,0.06299X0.06299*%
%ADD78C,0.06299*%
%ADD79C,0.07087*%
%ADD80R,0.07087X0.07087*%
%ADD81C,0.05150*%
%ADD82R,0.05709X0.05709*%
%ADD83C,0.05709*%
%ADD84R,0.05937X0.05937*%
%ADD85C,0.05937*%
%ADD86R,0.07087X0.07087*%
%ADD87C,0.02000*%
%ADD88C,0.01000*%
%ADD89C,0.01968*%
G36*
X630000Y498690D02*
X534222D01*
X534222Y498690D01*
X533793Y498605D01*
X533429Y498362D01*
X532136Y497069D01*
X528979D01*
Y495815D01*
X525447D01*
Y496868D01*
X517554D01*
Y492518D01*
X525447D01*
Y493571D01*
X528979D01*
Y491931D01*
X530229D01*
Y483568D01*
X528479D01*
Y478432D01*
X533222D01*
Y483568D01*
X532472D01*
Y491931D01*
X533722D01*
Y495482D01*
X534687Y496447D01*
X535278D01*
Y491931D01*
X538075D01*
X541623Y488383D01*
Y478117D01*
X538075Y474569D01*
X535278D01*
Y470115D01*
X534816Y469924D01*
X533722Y471018D01*
Y474569D01*
X528979D01*
Y472815D01*
X525947D01*
Y473868D01*
X518053D01*
Y469518D01*
X525947D01*
Y470571D01*
X528979D01*
Y469431D01*
X532136D01*
X535480Y466087D01*
X535844Y465844D01*
X536273Y465759D01*
X536273Y465759D01*
X556908D01*
Y463996D01*
X546028D01*
X546028Y463996D01*
X545598Y463910D01*
X545234Y463667D01*
X545234Y463667D01*
X532636Y451068D01*
X529479D01*
Y449622D01*
X525447D01*
Y450675D01*
X517554D01*
Y446325D01*
X525447D01*
Y447378D01*
X529479D01*
Y445931D01*
X534222D01*
Y449482D01*
X535316Y450576D01*
X535778Y450385D01*
Y445931D01*
X540521D01*
Y447123D01*
X544930D01*
X545901Y446153D01*
X546347Y445854D01*
X546874Y445750D01*
X556908D01*
Y444164D01*
X564035D01*
X565485Y442714D01*
X565278Y442214D01*
X556908D01*
Y436290D01*
X565982D01*
Y441510D01*
X566482Y441717D01*
X568623Y439575D01*
Y415306D01*
X566482Y413165D01*
X565982Y413372D01*
Y418592D01*
X556908D01*
Y412668D01*
X565278D01*
X565485Y412168D01*
X564035Y410718D01*
X556908D01*
Y404794D01*
X565982D01*
Y408772D01*
X570973Y413763D01*
X570973Y413763D01*
X571272Y414210D01*
X571377Y414736D01*
Y440146D01*
X571272Y440672D01*
X570973Y441119D01*
X570973Y441119D01*
X565982Y446110D01*
Y450088D01*
X556908D01*
Y448502D01*
X547444D01*
X546598Y449348D01*
X546598Y449348D01*
X546473Y449473D01*
X546027Y449772D01*
X545500Y449876D01*
X540521D01*
Y451068D01*
X536461D01*
X536270Y451530D01*
X546492Y461753D01*
X556908D01*
Y459912D01*
X565982D01*
Y465759D01*
X582655D01*
X615963Y432451D01*
Y428416D01*
X625037D01*
Y434340D01*
X618746D01*
X618638Y434362D01*
X618638Y434362D01*
X617224D01*
X615679Y435908D01*
X616004Y436290D01*
X616446Y436290D01*
X625037D01*
Y442214D01*
X615963D01*
Y436788D01*
X615963Y436330D01*
X615581Y436005D01*
X583913Y467673D01*
X583549Y467917D01*
X583119Y468002D01*
X583119Y468002D01*
X536738D01*
X535770Y468970D01*
X535961Y469431D01*
X540021D01*
Y472622D01*
X543973Y476574D01*
X543973Y476574D01*
X544272Y477021D01*
X544377Y477547D01*
Y488953D01*
X544272Y489479D01*
X543973Y489926D01*
X543973Y489926D01*
X540021Y493878D01*
Y496447D01*
X630000D01*
Y475386D01*
X627335Y472722D01*
X616800D01*
X616371Y472636D01*
X616007Y472393D01*
X616007Y472393D01*
X612807Y469193D01*
X612564Y468829D01*
X612478Y468400D01*
X612478Y468400D01*
Y460325D01*
X612478Y460325D01*
X612564Y459896D01*
X612807Y459532D01*
X615963Y456376D01*
Y452038D01*
X622254D01*
X622362Y452016D01*
X624898D01*
X626878Y450035D01*
Y447500D01*
X626878Y447500D01*
X626964Y447071D01*
X627207Y446707D01*
X630000Y443914D01*
Y442500D01*
X631414D01*
X633166Y440748D01*
X632847Y439979D01*
X632718Y439000D01*
X632847Y438021D01*
X633225Y437109D01*
X633826Y436326D01*
X634157Y436072D01*
X633987Y435572D01*
X632950D01*
X632950Y435572D01*
X632521Y435486D01*
X632157Y435243D01*
X632157Y435243D01*
X628807Y431893D01*
X628564Y431529D01*
X628478Y431100D01*
X628478Y431100D01*
Y425000D01*
X628478Y425000D01*
X628564Y424571D01*
X628807Y424207D01*
X631507Y421507D01*
X631507Y421507D01*
X631871Y421264D01*
X632300Y421178D01*
X632300Y421178D01*
X654034D01*
X654390Y420806D01*
X654349Y420235D01*
X654106Y419871D01*
X654056Y419621D01*
X653750Y419172D01*
X653321Y419086D01*
X652957Y418843D01*
X652714Y418479D01*
X652628Y418050D01*
X652714Y417621D01*
X652957Y417257D01*
X657034Y413180D01*
X656931Y412576D01*
X656807Y412493D01*
X656807Y412493D01*
X655707Y411393D01*
X655464Y411029D01*
X655378Y410600D01*
X655378Y410600D01*
Y407138D01*
X655378Y407138D01*
X655464Y406709D01*
X655707Y406345D01*
X658445Y403606D01*
Y403480D01*
X658445Y403480D01*
X658467Y403372D01*
Y399373D01*
X658005Y399181D01*
X652638Y404548D01*
Y408283D01*
X652553Y408712D01*
X652310Y409076D01*
X652310Y409076D01*
X650193Y411193D01*
X649872Y411408D01*
Y413068D01*
X648184D01*
X647839Y413383D01*
X647753Y413812D01*
X647510Y414176D01*
X647510Y414176D01*
X646693Y414993D01*
X646329Y415236D01*
X645900Y415322D01*
X645900Y415322D01*
X639100D01*
X638671Y415236D01*
X638307Y414993D01*
X638307Y414993D01*
X636607Y413293D01*
X636364Y412929D01*
X636278Y412500D01*
X636278Y412500D01*
Y407315D01*
X635430Y406467D01*
X634969Y406658D01*
Y407850D01*
X632500D01*
Y405579D01*
X633889D01*
X634081Y405117D01*
X633707Y404743D01*
X633464Y404379D01*
X633378Y403950D01*
X633378Y403950D01*
Y399865D01*
X633195Y399681D01*
X632971Y399636D01*
X632607Y399393D01*
X632364Y399029D01*
X632278Y398600D01*
X632364Y398171D01*
X632607Y397807D01*
X632971Y397564D01*
X633400Y397479D01*
X633700D01*
X633700Y397478D01*
X634129Y397564D01*
X634493Y397807D01*
X635293Y398607D01*
X635536Y398971D01*
X635622Y399400D01*
X635622Y399400D01*
Y399664D01*
X636100Y400078D01*
X638124D01*
X638579Y399969D01*
X638579Y399578D01*
Y397500D01*
X641350D01*
X644122D01*
Y399662D01*
X644379Y400052D01*
X644563Y400111D01*
X644826Y400164D01*
X645190Y400407D01*
X646714Y401931D01*
X648285D01*
X650239Y399978D01*
X649941Y399569D01*
X645278D01*
Y394431D01*
X650021D01*
Y395879D01*
X651114D01*
X656207Y390786D01*
X656571Y390543D01*
X657000Y390457D01*
X657000Y390457D01*
X658067D01*
Y390110D01*
X660248D01*
Y389610D01*
X660748D01*
Y388020D01*
X660916D01*
X660980Y387983D01*
X661118Y387830D01*
X661207Y387520D01*
X659664Y385977D01*
X657970D01*
X654147Y389800D01*
X653700Y390098D01*
X653173Y390203D01*
X653127D01*
X652600Y390098D01*
X652153Y389800D01*
X651855Y389353D01*
X651750Y388827D01*
X651855Y388300D01*
X652153Y387853D01*
X652294Y387760D01*
X656427Y383627D01*
X656427Y383627D01*
X656873Y383328D01*
X657400Y383224D01*
X657400Y383224D01*
X660234D01*
X660761Y383328D01*
X661207Y383627D01*
X662957Y385377D01*
X663457Y385249D01*
Y383591D01*
X659935Y380068D01*
X656778D01*
Y374932D01*
X658028D01*
Y370697D01*
X658028Y370697D01*
X658113Y370268D01*
X658357Y369904D01*
X658361Y369900D01*
Y365168D01*
X667041D01*
Y366808D01*
X667541Y366857D01*
X667564Y366742D01*
X667807Y366378D01*
X670772Y363413D01*
X671136Y363170D01*
X671565Y363085D01*
X671565Y363085D01*
X679929D01*
X683245Y359769D01*
X683213Y359318D01*
X682785Y359005D01*
X682700Y359022D01*
X682271Y358936D01*
X681907Y358693D01*
X679235Y356021D01*
X645200D01*
X644771Y355936D01*
X644407Y355693D01*
X644407Y355693D01*
X641635Y352922D01*
X626665D01*
X624622Y354965D01*
Y358100D01*
X624622Y358100D01*
X624536Y358529D01*
X624293Y358893D01*
X624293Y358893D01*
X613511Y369675D01*
X613147Y369918D01*
X612718Y370004D01*
X612718Y370003D01*
X605537D01*
X605385Y370503D01*
X605398Y370512D01*
X605683Y370938D01*
X605783Y371441D01*
X605683Y371944D01*
X605574Y372106D01*
X605649Y372758D01*
X605686Y372782D01*
X606060Y373341D01*
X606091Y373500D01*
X601516D01*
X596940D01*
X596972Y373341D01*
X597119Y373122D01*
X596851Y372621D01*
X591500D01*
X591500Y372622D01*
X591071Y372536D01*
X590707Y372293D01*
X590707Y372293D01*
X588417Y370003D01*
X582506D01*
X582354Y370503D01*
X582366Y370512D01*
X582651Y370938D01*
X582751Y371441D01*
X582651Y371944D01*
X582531Y372124D01*
X582798Y372623D01*
X588000D01*
X588527Y372728D01*
X588973Y373027D01*
X590973Y375027D01*
X591272Y375473D01*
X591376Y376000D01*
X591376Y376000D01*
Y385430D01*
X592802Y386855D01*
X592802Y386855D01*
X593100Y387302D01*
X593205Y387829D01*
Y387931D01*
X595222D01*
Y393069D01*
X590479D01*
Y389611D01*
X590452Y389478D01*
Y388399D01*
X590000Y387947D01*
X589521Y388425D01*
Y393069D01*
X584778D01*
Y387931D01*
X586637D01*
X586728Y387473D01*
X587027Y387027D01*
X588624Y385430D01*
Y376570D01*
X587430Y375377D01*
X584147D01*
X584099Y375441D01*
X583963Y375876D01*
X585293Y377207D01*
X585293Y377207D01*
X585536Y377571D01*
X585622Y378000D01*
X585622Y378000D01*
Y382500D01*
X585622Y382500D01*
X585536Y382929D01*
X585293Y383293D01*
X585293Y383293D01*
X583293Y385293D01*
X582929Y385536D01*
X582500Y385622D01*
X582500Y385622D01*
X574965D01*
X570793Y389793D01*
X570429Y390036D01*
X570000Y390122D01*
X570000Y390122D01*
X565521D01*
Y391568D01*
X560778D01*
Y386822D01*
X559854D01*
X559854Y386822D01*
X559622Y387012D01*
Y388500D01*
X557350D01*
Y386032D01*
X557946D01*
X558137Y385570D01*
X557636Y385068D01*
X554479D01*
Y379931D01*
X555729D01*
Y378569D01*
X554479D01*
Y373431D01*
X557636D01*
X558499Y372568D01*
X558292Y372069D01*
X554479D01*
Y370877D01*
X554000D01*
X553473Y370772D01*
X553027Y370473D01*
X552728Y370027D01*
X552624Y369500D01*
X552728Y368973D01*
X553027Y368527D01*
X553473Y368228D01*
X554000Y368124D01*
X554479D01*
Y366932D01*
X558878D01*
Y365568D01*
X554479D01*
Y362018D01*
X545707Y353246D01*
X545464Y352882D01*
X545378Y352453D01*
X545378Y352453D01*
Y310697D01*
X544878Y310429D01*
X544822Y310467D01*
Y355735D01*
X548893Y359807D01*
X549136Y360171D01*
X549222Y360600D01*
X549136Y361029D01*
X548893Y361393D01*
X548529Y361636D01*
X548100Y361722D01*
X547671Y361636D01*
X547633Y361611D01*
X547272Y361971D01*
X547298Y362009D01*
X547383Y362439D01*
X547298Y362868D01*
X547055Y363231D01*
X546691Y363475D01*
X546262Y363560D01*
X545832Y363475D01*
X545469Y363231D01*
X545468Y363231D01*
X540307Y358070D01*
X540064Y357706D01*
X539978Y357277D01*
X539978Y357277D01*
Y310000D01*
X515649D01*
X515649Y499351D01*
X630000Y499351D01*
Y498690D01*
D02*
G37*
G36*
X643607Y494507D02*
X643607Y494507D01*
X643971Y494264D01*
X644400Y494178D01*
X644400Y494178D01*
X697735D01*
X705278Y486635D01*
Y445000D01*
X698011D01*
X697682Y445500D01*
X697722Y445700D01*
X697722Y445700D01*
Y448779D01*
X699168D01*
Y453522D01*
X694031D01*
Y448779D01*
X695478D01*
Y446165D01*
X695335Y446022D01*
X692304D01*
X692016Y446522D01*
X692081Y446847D01*
Y449374D01*
X690250D01*
Y449874D01*
X689750D01*
Y454126D01*
X689645D01*
X689372Y454072D01*
X688872Y454385D01*
Y459903D01*
X688872Y459903D01*
X688786Y460333D01*
X688720Y460431D01*
X688987Y460931D01*
X691075D01*
X692042Y459964D01*
X692042Y459964D01*
X694031Y457975D01*
Y455078D01*
X699168D01*
Y459821D01*
X696078D01*
X693989Y461910D01*
X693989Y461910D01*
X693021Y462878D01*
Y466069D01*
X688278D01*
Y461615D01*
X687816Y461424D01*
X686722Y462518D01*
Y466069D01*
X683565D01*
X680258Y469376D01*
X680588Y469752D01*
X681059Y469391D01*
X681995Y469003D01*
X683000Y468871D01*
X684004Y469003D01*
X684941Y469391D01*
X685744Y470008D01*
X686361Y470811D01*
X686749Y471747D01*
X686881Y472752D01*
X686749Y473757D01*
X686361Y474693D01*
X685744Y475496D01*
X684941Y476113D01*
X684004Y476501D01*
X683000Y476633D01*
X681995Y476501D01*
X681176Y476162D01*
X679045Y478293D01*
X678681Y478536D01*
X678252Y478622D01*
X678252Y478622D01*
X674390D01*
X674291Y479122D01*
X674941Y479391D01*
X675744Y480008D01*
X676361Y480811D01*
X676749Y481747D01*
X676881Y482752D01*
X676749Y483756D01*
X676361Y484693D01*
X675744Y485496D01*
X674941Y486113D01*
X674005Y486501D01*
X673000Y486633D01*
X671995Y486501D01*
X671059Y486113D01*
X670256Y485496D01*
X669639Y484693D01*
X669251Y483756D01*
X669119Y482752D01*
X669251Y481747D01*
X669639Y480811D01*
X670256Y480008D01*
X671059Y479391D01*
X671709Y479122D01*
X671610Y478622D01*
X664390D01*
X664291Y479122D01*
X664941Y479391D01*
X665744Y480008D01*
X666361Y480811D01*
X666749Y481747D01*
X666881Y482752D01*
X666749Y483756D01*
X666361Y484693D01*
X665744Y485496D01*
X664941Y486113D01*
X664005Y486501D01*
X663000Y486633D01*
X661996Y486501D01*
X661059Y486113D01*
X660256Y485496D01*
X659639Y484693D01*
X659251Y483756D01*
X659119Y482752D01*
X659251Y481747D01*
X659639Y480811D01*
X660256Y480008D01*
X661059Y479391D01*
X661709Y479122D01*
X661610Y478622D01*
X660800D01*
X660800Y478622D01*
X660371Y478536D01*
X660007Y478293D01*
X660007Y478293D01*
X657307Y475593D01*
X657064Y475229D01*
X656978Y474800D01*
X656896Y474708D01*
X656653Y474701D01*
X656291Y474784D01*
X655744Y475496D01*
X654941Y476113D01*
X654004Y476501D01*
X653000Y476633D01*
X651996Y476501D01*
X651059Y476113D01*
X650256Y475496D01*
X649639Y474693D01*
X649251Y473757D01*
X649119Y472752D01*
X649251Y471747D01*
X649639Y470811D01*
X650256Y470008D01*
X651059Y469391D01*
X651996Y469003D01*
X653000Y468871D01*
X654004Y469003D01*
X654941Y469391D01*
X655744Y470008D01*
X656361Y470811D01*
X656478Y471094D01*
X656978Y470995D01*
Y469365D01*
X655392Y467778D01*
X639919D01*
X639489Y467693D01*
X639125Y467450D01*
X639125Y467450D01*
X638425Y466749D01*
X638391Y466775D01*
X637479Y467153D01*
X636500Y467282D01*
X635521Y467153D01*
X634609Y466775D01*
X633826Y466174D01*
X633225Y465391D01*
X633000Y464848D01*
X632500Y464948D01*
Y474714D01*
X637243Y479457D01*
X637243Y479457D01*
X637486Y479821D01*
X637572Y480250D01*
X637572Y480250D01*
Y484385D01*
X640965Y487778D01*
X676387D01*
X679590Y484576D01*
X679251Y483756D01*
X679119Y482752D01*
X679251Y481747D01*
X679639Y480811D01*
X680256Y480008D01*
X681059Y479391D01*
X681995Y479003D01*
X683000Y478871D01*
X684004Y479003D01*
X684941Y479391D01*
X685744Y480008D01*
X686361Y480811D01*
X686749Y481747D01*
X686881Y482752D01*
X686749Y483756D01*
X686361Y484693D01*
X685744Y485496D01*
X684941Y486113D01*
X684004Y486501D01*
X683000Y486633D01*
X681995Y486501D01*
X681176Y486162D01*
X677645Y489693D01*
X677281Y489936D01*
X676852Y490022D01*
X676852Y490022D01*
X640500D01*
X640071Y489936D01*
X639707Y489693D01*
X639707Y489693D01*
X635657Y485643D01*
X635414Y485279D01*
X635328Y484850D01*
X635328Y484850D01*
Y480715D01*
X632962Y478348D01*
X632500Y478539D01*
Y496447D01*
X641667D01*
X643607Y494507D01*
D02*
G37*
G36*
X630000Y471561D02*
Y464622D01*
X625037D01*
Y465836D01*
X615963D01*
Y460255D01*
X615463Y460048D01*
X614722Y460790D01*
Y467935D01*
X617265Y470478D01*
X627800D01*
X627800Y470478D01*
X628229Y470564D01*
X628593Y470807D01*
X629538Y471752D01*
X630000Y471561D01*
D02*
G37*
G36*
X660256Y470008D02*
X661059Y469391D01*
X661996Y469003D01*
X663000Y468871D01*
X664005Y469003D01*
X664824Y469342D01*
X666555Y467611D01*
X666555Y467611D01*
X666919Y467368D01*
X667348Y467282D01*
X671778D01*
X672530Y466530D01*
X672338Y466069D01*
X669479D01*
Y464877D01*
X663500D01*
X662973Y464772D01*
X662527Y464473D01*
X661027Y462973D01*
X658777Y460723D01*
X658478Y460277D01*
X658373Y459750D01*
Y455521D01*
X653932D01*
Y450778D01*
X659068D01*
Y451773D01*
X660431D01*
Y450778D01*
X665568D01*
Y451773D01*
X666580D01*
X669453Y448901D01*
X669453Y448901D01*
X669899Y448602D01*
X670426Y448498D01*
X671327D01*
Y446847D01*
X671389Y446535D01*
X671567Y446269D01*
X671832Y446092D01*
X672145Y446030D01*
X673355D01*
X673668Y446092D01*
X673933Y446269D01*
X674067D01*
X674332Y446092D01*
X674645Y446030D01*
X675855D01*
X676168Y446092D01*
X676433Y446269D01*
X676567D01*
X676832Y446092D01*
X677145Y446030D01*
X678355D01*
X678668Y446092D01*
X678933Y446269D01*
X679067D01*
X679332Y446092D01*
X679645Y446030D01*
X680855D01*
X681007Y446060D01*
X681475Y445760D01*
X681537Y445404D01*
X681219Y445000D01*
X665969D01*
Y446350D01*
X663000D01*
Y446850D01*
D01*
Y446350D01*
X660032D01*
Y445000D01*
X659469D01*
Y446350D01*
X656500D01*
X653532D01*
Y445000D01*
X646122D01*
Y449700D01*
X646122Y449700D01*
X646036Y450129D01*
X645793Y450493D01*
X645793Y450493D01*
X641993Y454293D01*
X641629Y454536D01*
X641200Y454622D01*
X641200Y454622D01*
X640250D01*
Y457250D01*
X632750D01*
X632500Y457646D01*
Y462052D01*
X633000Y462152D01*
X633225Y461609D01*
X633826Y460826D01*
X634609Y460225D01*
X635521Y459847D01*
X636500Y459718D01*
X637479Y459847D01*
X638391Y460225D01*
X639174Y460826D01*
X639775Y461609D01*
X640153Y462521D01*
X640282Y463500D01*
X640153Y464479D01*
X639911Y465063D01*
X640383Y465535D01*
X655857D01*
X655857Y465535D01*
X656286Y465621D01*
X656650Y465864D01*
X658893Y468107D01*
X659136Y468471D01*
X659222Y468900D01*
X659222Y468900D01*
Y470575D01*
X659247Y470590D01*
X659722Y470704D01*
X660256Y470008D01*
D02*
G37*
G36*
X669479Y460931D02*
X673878D01*
Y454071D01*
X673378Y453714D01*
X673355Y453718D01*
X672145D01*
X671832Y453656D01*
X671567Y453479D01*
X671389Y453213D01*
X671327Y452901D01*
Y451626D01*
X670827Y451419D01*
X668124Y454123D01*
X667677Y454421D01*
X667150Y454526D01*
X665568D01*
Y455521D01*
X661127D01*
Y459180D01*
X664070Y462123D01*
X669479D01*
Y460931D01*
D02*
G37*
G36*
X630000Y447739D02*
X629538Y447548D01*
X629122Y447965D01*
Y450500D01*
X629122Y450500D01*
X629036Y450929D01*
X628793Y451293D01*
X628793Y451293D01*
X626155Y453931D01*
X625791Y454174D01*
X625362Y454259D01*
X625037Y454598D01*
Y457962D01*
X617549D01*
X616100Y459412D01*
X616307Y459912D01*
X625037D01*
Y462378D01*
X630000D01*
Y447739D01*
D02*
G37*
G36*
X709851Y445000D02*
X707522D01*
Y487100D01*
X707522Y487100D01*
X707436Y487529D01*
X707193Y487893D01*
X707193Y487893D01*
X698993Y496093D01*
X698629Y496336D01*
X698200Y496422D01*
X698200Y496422D01*
X644865D01*
X642924Y498362D01*
X642561Y498605D01*
X642132Y498690D01*
X642131Y498690D01*
X632500D01*
Y499351D01*
X709851Y499351D01*
X709851Y445000D01*
D02*
G37*
G36*
X643878Y449235D02*
Y445000D01*
X632500D01*
Y449354D01*
X632750Y449750D01*
X640250D01*
Y452344D01*
X640750Y452364D01*
X643878Y449235D01*
D02*
G37*
G36*
X650852Y442038D02*
X649538Y440725D01*
X649295Y440361D01*
X649210Y439931D01*
X649210Y439931D01*
Y439000D01*
X649295Y438571D01*
X649538Y438207D01*
X649902Y437964D01*
X650331Y437878D01*
X650761Y437964D01*
X651125Y438207D01*
X651368Y438571D01*
X651453Y439000D01*
Y439467D01*
X653565Y441578D01*
X660144D01*
X660480Y441138D01*
X660431Y441021D01*
X660431D01*
Y437145D01*
X659932Y437001D01*
X659068Y437864D01*
Y441021D01*
X653932D01*
Y438499D01*
X653278D01*
X653278Y438499D01*
X652849Y438414D01*
X652485Y438171D01*
X652485Y438171D01*
X651507Y437193D01*
X651264Y436829D01*
X651178Y436400D01*
X651264Y435971D01*
X651507Y435607D01*
X651871Y435364D01*
X652300Y435278D01*
X652729Y435364D01*
X653093Y435607D01*
X653743Y436256D01*
X655425D01*
X655425Y436256D01*
X655534Y436278D01*
X657482D01*
X658538Y435222D01*
X658331Y434722D01*
X653932D01*
Y429979D01*
X659068D01*
Y430974D01*
X660431D01*
Y429979D01*
X665568D01*
Y430378D01*
X666069Y430585D01*
X668827Y427827D01*
X669273Y427528D01*
X669800Y427423D01*
X671327D01*
Y426099D01*
X671389Y425787D01*
X671567Y425521D01*
X671832Y425344D01*
X672145Y425282D01*
X673355D01*
X673668Y425344D01*
X673933Y425521D01*
X674067D01*
X674332Y425344D01*
X674645Y425282D01*
X675855D01*
X675878Y425286D01*
X676378Y424929D01*
Y423700D01*
X676378Y423700D01*
X676464Y423271D01*
X676707Y422907D01*
X679407Y420207D01*
X679407Y420207D01*
X679771Y419964D01*
X680200Y419878D01*
X680200Y419878D01*
X682600D01*
X683029Y419964D01*
X683393Y420207D01*
X683636Y420571D01*
X683722Y421000D01*
X683636Y421429D01*
X683393Y421793D01*
X683029Y422036D01*
X682600Y422122D01*
X681117D01*
X680965Y422622D01*
X681093Y422707D01*
X681336Y423071D01*
X681422Y423500D01*
Y424567D01*
X681869Y424955D01*
X681922Y424969D01*
X682021Y424914D01*
X682264Y424550D01*
X685407Y421407D01*
X685407Y421407D01*
X685771Y421164D01*
X686200Y421078D01*
X686200Y421078D01*
X707264D01*
Y345550D01*
X703835Y342122D01*
X698069D01*
Y346521D01*
X692932D01*
Y345271D01*
X691069D01*
Y346521D01*
X689622D01*
Y348557D01*
X695037D01*
Y350497D01*
X697463D01*
Y348557D01*
X706537D01*
Y354679D01*
X697463D01*
Y352740D01*
X695037D01*
Y354679D01*
X688184D01*
Y360808D01*
X688185Y360808D01*
X688099Y361237D01*
X687856Y361601D01*
X686998Y362459D01*
X687189Y362921D01*
X690000D01*
Y365882D01*
X685563D01*
Y364547D01*
X685101Y364356D01*
X683022Y366435D01*
Y374532D01*
X684650D01*
Y377500D01*
X685650D01*
Y374532D01*
X687921D01*
Y375085D01*
X688062Y375203D01*
X688421Y375331D01*
X688671Y375164D01*
X689100Y375078D01*
X689529Y375164D01*
X689893Y375407D01*
X690136Y375771D01*
X690222Y376200D01*
X690136Y376629D01*
X690122Y376651D01*
Y386121D01*
X694521D01*
Y388085D01*
X694914Y388378D01*
X695343Y388464D01*
X695707Y388707D01*
X696293Y389293D01*
X696293Y389293D01*
X696536Y389657D01*
X696622Y390086D01*
Y400500D01*
X696536Y400929D01*
X696293Y401293D01*
X696293Y401293D01*
X695293Y402293D01*
X694929Y402536D01*
X694521Y402617D01*
Y405465D01*
X693271D01*
Y407432D01*
X694521D01*
Y412569D01*
X689778D01*
Y407432D01*
X691028D01*
Y405465D01*
X689778D01*
Y400328D01*
X690975D01*
X690978Y400325D01*
X691197Y399828D01*
X691064Y399629D01*
X690978Y399200D01*
X691028Y398951D01*
Y398362D01*
X689778D01*
Y393505D01*
X689671Y393391D01*
X689304Y393161D01*
X689000Y393221D01*
X688696Y393161D01*
X688329Y393391D01*
X688222Y393505D01*
Y398362D01*
X684868D01*
X683764Y399466D01*
X683955Y399928D01*
X685350D01*
Y402897D01*
Y405865D01*
X683079D01*
Y405865D01*
X682622Y405969D01*
Y407500D01*
X682536Y407929D01*
X682293Y408293D01*
X682293Y408293D01*
X681627Y408959D01*
X681946Y409347D01*
X682071Y409264D01*
X682500Y409178D01*
X683479D01*
Y407432D01*
X688222D01*
Y412569D01*
X683479D01*
Y411422D01*
X682500D01*
X682071Y411336D01*
X681707Y411093D01*
X681464Y410729D01*
X681378Y410300D01*
X681464Y409871D01*
X681547Y409746D01*
X681159Y409427D01*
X675971Y414615D01*
Y415332D01*
X677221D01*
Y420469D01*
X672478D01*
Y415332D01*
X673728D01*
Y414150D01*
X673728Y414150D01*
X673813Y413721D01*
X674056Y413357D01*
X677272Y410142D01*
X676953Y409754D01*
X676627Y409972D01*
X676100Y410077D01*
X675573Y409972D01*
X675127Y409673D01*
X674828Y409227D01*
X674723Y408700D01*
X674828Y408173D01*
X674922Y408033D01*
X674726Y407533D01*
X673574D01*
Y410073D01*
X673489Y410502D01*
X673246Y410866D01*
X673246Y410866D01*
X669642Y414470D01*
X669833Y414931D01*
X671322D01*
Y417400D01*
X668550D01*
X665779D01*
Y416160D01*
X665692Y416087D01*
X665279Y415952D01*
X651470Y429762D01*
X651106Y430005D01*
X650677Y430090D01*
X650677Y430090D01*
X640250D01*
Y432750D01*
X634005D01*
X633738Y433250D01*
X633790Y433328D01*
X642850D01*
X642850Y433328D01*
X643279Y433414D01*
X643643Y433657D01*
X645793Y435807D01*
X646036Y436171D01*
X646122Y436600D01*
X646122Y436600D01*
Y442500D01*
X650661D01*
X650852Y442038D01*
D02*
G37*
G36*
X643878Y437065D02*
X642385Y435572D01*
X639013D01*
X638843Y436072D01*
X639174Y436326D01*
X639775Y437109D01*
X640153Y438021D01*
X640282Y439000D01*
X640153Y439979D01*
X639775Y440891D01*
X639174Y441674D01*
X638750Y442000D01*
X638919Y442500D01*
X643878D01*
Y437065D01*
D02*
G37*
G36*
X684128Y434885D02*
Y433202D01*
X683689Y432921D01*
X683628Y432916D01*
X683355Y432970D01*
X682145D01*
X681832Y432908D01*
X681567Y432731D01*
X681433D01*
X681168Y432908D01*
X680855Y432970D01*
X679645D01*
X679332Y432908D01*
X679067Y432731D01*
X678933D01*
X678668Y432908D01*
X678355Y432970D01*
X677145D01*
X676832Y432908D01*
X676822Y432901D01*
X676322Y433168D01*
Y434200D01*
X676236Y434629D01*
X675993Y434993D01*
X675629Y435236D01*
X675200Y435322D01*
X674771Y435236D01*
X674407Y434993D01*
X674164Y434629D01*
X674078Y434200D01*
Y433235D01*
X673909Y433100D01*
X673578Y432926D01*
X673355Y432970D01*
X672145D01*
X671832Y432908D01*
X671567Y432731D01*
X671389Y432465D01*
X671327Y432153D01*
Y430176D01*
X670370D01*
X667223Y433324D01*
X666776Y433622D01*
X666250Y433727D01*
X665568D01*
Y434685D01*
X665853Y434742D01*
X666217Y434985D01*
X667160Y435928D01*
X683086D01*
X684128Y434885D01*
D02*
G37*
G36*
X707264Y441950D02*
Y435499D01*
X706968Y435122D01*
X706764Y435122D01*
X704500D01*
Y432350D01*
Y429579D01*
X706764D01*
X706968Y429579D01*
X707264Y429201D01*
Y423322D01*
X686665D01*
X685166Y424820D01*
X685358Y425282D01*
X685855D01*
X686168Y425344D01*
X686433Y425521D01*
X686567D01*
X686832Y425344D01*
X687145Y425282D01*
X688355D01*
X688668Y425344D01*
X688693Y425361D01*
X688778Y425233D01*
X689176Y424967D01*
X689645Y424874D01*
X689750D01*
Y429126D01*
Y433378D01*
X689645D01*
X689372Y433323D01*
X688872Y433637D01*
Y435950D01*
X688872Y435950D01*
X688786Y436379D01*
X688543Y436743D01*
X688543Y436743D01*
X685844Y439443D01*
X685480Y439686D01*
X685050Y439771D01*
X685050Y439771D01*
X665568D01*
Y441021D01*
X664008D01*
X663522Y441100D01*
X663436Y441529D01*
X663193Y441893D01*
X663193Y441893D01*
X663048Y442038D01*
X663239Y442500D01*
X706714D01*
X707264Y441950D01*
D02*
G37*
G36*
X632750Y432011D02*
Y425250D01*
X640250D01*
Y427847D01*
X650212D01*
X654138Y423922D01*
X653930Y423422D01*
X632765D01*
X630722Y425465D01*
Y430635D01*
X632289Y432202D01*
X632750Y432011D01*
D02*
G37*
G36*
X680533Y388420D02*
Y388420D01*
X680533Y388420D01*
X680992Y388321D01*
X681207Y388107D01*
X681207Y388107D01*
X681571Y387864D01*
X682000Y387778D01*
X682429Y387864D01*
X682793Y388107D01*
X682979Y388385D01*
X683381Y388339D01*
X683479Y388302D01*
Y386121D01*
X685378D01*
Y384600D01*
X685464Y384171D01*
X685707Y383807D01*
X686071Y383564D01*
X686500Y383478D01*
X686929Y383564D01*
X687293Y383807D01*
X687378Y383935D01*
X687878Y383783D01*
Y380469D01*
X685935D01*
X685853Y380569D01*
X685767Y380998D01*
X685524Y381362D01*
X685160Y381605D01*
X684731Y381690D01*
X683996D01*
X682293Y383393D01*
X681929Y383636D01*
X681500Y383722D01*
X681500Y383721D01*
X678827D01*
X677582Y384967D01*
X677580Y385467D01*
X677580D01*
Y388420D01*
X680533D01*
X680533Y388420D01*
D02*
G37*
G36*
X560778Y384482D02*
Y379931D01*
X565521D01*
Y381379D01*
X567535D01*
X569796Y379118D01*
X567799Y377121D01*
X565521D01*
Y378569D01*
X560778D01*
Y374115D01*
X560316Y373924D01*
X559222Y375018D01*
Y378569D01*
X557972D01*
Y379931D01*
X559222D01*
Y383482D01*
X560278Y384538D01*
X560778Y384482D01*
D02*
G37*
G36*
X574614Y374938D02*
X574602Y374929D01*
X574317Y374503D01*
X574217Y374000D01*
X574317Y373497D01*
X574602Y373071D01*
X574614Y373062D01*
X574463Y372563D01*
X572941D01*
X572941Y372563D01*
X572512Y372477D01*
X572148Y372234D01*
X572148Y372234D01*
X569207Y369293D01*
X568964Y368929D01*
X568878Y368500D01*
X568878Y368500D01*
Y359965D01*
X566535Y357622D01*
X565521D01*
Y359068D01*
X561359D01*
X561066Y359569D01*
X561122Y359846D01*
X561122Y359846D01*
Y360432D01*
X565521D01*
Y361878D01*
X567000D01*
X567429Y361964D01*
X567793Y362207D01*
X568036Y362571D01*
X568122Y363000D01*
X568036Y363429D01*
X567793Y363793D01*
X567429Y364036D01*
X567000Y364122D01*
X565521D01*
Y365568D01*
X561122D01*
Y366932D01*
X565521D01*
Y370482D01*
X566917Y371879D01*
X569500D01*
X569500Y371878D01*
X569929Y371964D01*
X570293Y372207D01*
X573524Y375437D01*
X574463D01*
X574614Y374938D01*
D02*
G37*
G36*
X665816Y382098D02*
X666628Y381286D01*
X666426Y380875D01*
X666388Y380819D01*
X665971Y380736D01*
X665607Y380493D01*
X665364Y380129D01*
X665278Y379700D01*
X665364Y379271D01*
X665607Y378907D01*
X667478Y377035D01*
Y371637D01*
X667041Y371486D01*
Y371486D01*
X660271D01*
Y374932D01*
X661521D01*
Y378482D01*
X665171Y382132D01*
X665704Y382157D01*
X665816Y382098D01*
D02*
G37*
G36*
X670207Y377707D02*
X670207Y377707D01*
X670571Y377464D01*
X671000Y377379D01*
X676479D01*
Y374932D01*
X677729D01*
Y371486D01*
X670959D01*
Y367052D01*
X670497Y366860D01*
X669722Y367636D01*
Y377485D01*
X669754Y377516D01*
X670186Y377728D01*
X670207Y377707D01*
D02*
G37*
G36*
X597722Y369919D02*
X597708Y369861D01*
X597634Y369811D01*
X597349Y369385D01*
X597249Y368882D01*
X597349Y368379D01*
X597634Y367953D01*
X597708Y367903D01*
Y367302D01*
X597634Y367252D01*
X597349Y366826D01*
X597249Y366323D01*
X597349Y365820D01*
X597634Y365394D01*
X598060Y365109D01*
X598563Y365009D01*
X604468D01*
X604971Y365109D01*
X605110Y365201D01*
X612158D01*
X615876Y361483D01*
X615685Y361021D01*
X612431D01*
Y359771D01*
X611068D01*
Y361021D01*
X605932D01*
Y357864D01*
X605068Y357001D01*
X604568Y357208D01*
Y361021D01*
X601018D01*
X599888Y362151D01*
X599793Y362293D01*
X599429Y362536D01*
X599000Y362621D01*
X598571Y362536D01*
X598207Y362293D01*
X597964Y361929D01*
X597878Y361500D01*
Y361453D01*
X597878Y361453D01*
X597964Y361024D01*
X598207Y360660D01*
X599432Y359435D01*
Y357729D01*
X598970Y357538D01*
X598214Y358293D01*
X597851Y358536D01*
X597421Y358622D01*
X597421Y358622D01*
X595942D01*
Y362037D01*
X594003D01*
Y364882D01*
X593918Y365311D01*
X593675Y365675D01*
X593675Y365675D01*
X590468Y368882D01*
X591965Y370378D01*
X597583D01*
X597722Y369919D01*
D02*
G37*
G36*
X620178Y357181D02*
Y354100D01*
X620178Y354100D01*
X620264Y353671D01*
X620507Y353307D01*
X625607Y348207D01*
X625971Y347964D01*
X626400Y347878D01*
X626400Y347879D01*
X642600D01*
X642600Y347878D01*
X643029Y347964D01*
X643393Y348207D01*
X646765Y351578D01*
X680600D01*
X680600Y351578D01*
X681029Y351664D01*
X681393Y351907D01*
X682493Y353007D01*
X682493Y353007D01*
X682736Y353371D01*
X682822Y353800D01*
X682736Y354229D01*
X682493Y354593D01*
X682129Y354836D01*
X681963Y354869D01*
X681798Y355412D01*
X682916Y356530D01*
X683378Y356339D01*
Y342000D01*
X683378Y342000D01*
X683464Y341571D01*
X683707Y341207D01*
X684707Y340207D01*
X684707Y340207D01*
X685071Y339964D01*
X685500Y339879D01*
X685532D01*
Y338350D01*
X688500D01*
Y337350D01*
X685532D01*
Y336100D01*
X618107D01*
X618000Y336122D01*
X617571Y336036D01*
X617207Y335793D01*
X616964Y335429D01*
X616878Y335000D01*
X616964Y334571D01*
X617207Y334207D01*
X617228Y334186D01*
X617228Y334186D01*
X617592Y333943D01*
X618021Y333857D01*
X618021Y333857D01*
X635454D01*
X635551Y333398D01*
X635551Y333357D01*
Y328646D01*
X641000D01*
X646449D01*
Y333357D01*
X646449Y333398D01*
X646547Y333857D01*
X690924D01*
X690924Y333857D01*
X691353Y333943D01*
X691717Y334186D01*
X692361Y334830D01*
X692362Y334830D01*
X692571Y335143D01*
X692932Y335479D01*
X693132Y335479D01*
X698069D01*
Y339879D01*
X704300D01*
X704300Y339878D01*
X704729Y339964D01*
X705093Y340207D01*
X709179Y344293D01*
X709351Y344550D01*
X709851Y344444D01*
Y290000D01*
X670000D01*
X653504Y306496D01*
X653568Y307139D01*
X653868Y307340D01*
X660887Y314359D01*
X668645D01*
X668955Y313955D01*
X669700Y313383D01*
X670568Y313023D01*
X671500Y312901D01*
X672432Y313023D01*
X673300Y313383D01*
X674045Y313955D01*
X674617Y314700D01*
X674977Y315568D01*
X675099Y316500D01*
X674977Y317432D01*
X674617Y318300D01*
X674045Y319045D01*
X673300Y319617D01*
X672432Y319977D01*
X671500Y320099D01*
X670568Y319977D01*
X669700Y319617D01*
X668955Y319045D01*
X668645Y318641D01*
X660000D01*
X659181Y318478D01*
X658486Y318014D01*
X651468Y310996D01*
X646049D01*
Y313706D01*
X635951D01*
Y310996D01*
X632033D01*
X623514Y319514D01*
X622819Y319978D01*
X622000Y320141D01*
X610803D01*
Y332791D01*
X610640Y333611D01*
X610175Y334305D01*
X605521Y338960D01*
Y341069D01*
X604526D01*
Y342350D01*
X604526Y342350D01*
X604421Y342877D01*
X604123Y343324D01*
X601973Y345473D01*
X601527Y345772D01*
X601000Y345877D01*
X597819D01*
X597612Y346376D01*
X601215Y349979D01*
X604568D01*
Y354379D01*
X605154D01*
X605154Y354378D01*
X605532Y354068D01*
Y352850D01*
X608000D01*
Y355122D01*
X607015D01*
X606824Y355584D01*
X607518Y356278D01*
X611068D01*
Y357528D01*
X612431D01*
Y356278D01*
X617568D01*
Y359138D01*
X618030Y359329D01*
X620178Y357181D01*
D02*
G37*
G36*
X574614Y369819D02*
X574602Y369811D01*
X574317Y369385D01*
X574217Y368882D01*
X574317Y368379D01*
X574602Y367953D01*
X574676Y367903D01*
Y367302D01*
X574602Y367252D01*
X574317Y366826D01*
X574217Y366323D01*
X574317Y365820D01*
X574602Y365394D01*
X575029Y365109D01*
X575531Y365009D01*
X577363D01*
Y362037D01*
X575058D01*
Y352963D01*
X581179D01*
Y362037D01*
X579606D01*
Y365009D01*
X581437D01*
X581940Y365109D01*
X582366Y365394D01*
X582651Y365820D01*
X582751Y366323D01*
X582651Y366826D01*
X582366Y367252D01*
X582354Y367260D01*
X582506Y367760D01*
X588417D01*
X591760Y364417D01*
Y362037D01*
X589821D01*
Y352963D01*
X595942D01*
Y356379D01*
X596957D01*
X598628Y354707D01*
X598628Y354707D01*
X598992Y354464D01*
X599421Y354378D01*
X599432Y353905D01*
Y351368D01*
X596185Y348122D01*
X571500D01*
X571500Y348122D01*
X571071Y348036D01*
X570707Y347793D01*
X570707Y347793D01*
X565707Y342793D01*
X565464Y342429D01*
X565378Y342000D01*
X565378Y342000D01*
Y280654D01*
X565378Y280654D01*
X565464Y280224D01*
X565707Y279860D01*
X570931Y274636D01*
Y271479D01*
X572378D01*
Y270021D01*
X570931D01*
Y270000D01*
X560000D01*
X555000Y275000D01*
Y297121D01*
X555492Y297210D01*
X555791Y296763D01*
X561447Y291107D01*
X561493Y290876D01*
X561846Y290347D01*
X562376Y289993D01*
X563000Y289869D01*
X563624Y289993D01*
X564153Y290347D01*
X564507Y290876D01*
X564631Y291500D01*
X564507Y292124D01*
X564153Y292653D01*
X563624Y293007D01*
X563393Y293053D01*
X558140Y298306D01*
Y325797D01*
X559052Y326175D01*
X560000Y326902D01*
X560727Y327850D01*
X561184Y328953D01*
X561340Y330138D01*
X561184Y331322D01*
X560727Y332426D01*
X560000Y333374D01*
X559052Y334101D01*
X557948Y334558D01*
X556764Y334714D01*
X555579Y334558D01*
X554476Y334101D01*
X553528Y333374D01*
X552801Y332426D01*
X552344Y331322D01*
X552188Y330138D01*
X552344Y328953D01*
X552801Y327850D01*
X553528Y326902D01*
X554476Y326175D01*
X555387Y325797D01*
Y300272D01*
X554887Y300113D01*
X547622Y307379D01*
Y351988D01*
X554017Y358383D01*
X554479Y358192D01*
Y353931D01*
X557636D01*
X558137Y353430D01*
X557946Y352969D01*
X557350D01*
Y350000D01*
Y347031D01*
X558601D01*
Y344278D01*
X558601Y344278D01*
X558686Y343849D01*
X558929Y343485D01*
X559707Y342707D01*
X559707Y342707D01*
X560071Y342464D01*
X560500Y342378D01*
X560929Y342464D01*
X561293Y342707D01*
X561536Y343071D01*
X561622Y343500D01*
X561536Y343929D01*
X561293Y344293D01*
X561293Y344293D01*
X560844Y344742D01*
Y347431D01*
X565521D01*
Y352569D01*
X564271D01*
Y353931D01*
X565521D01*
Y355379D01*
X567000D01*
X567000Y355378D01*
X567429Y355464D01*
X567793Y355707D01*
X570793Y358707D01*
X571036Y359071D01*
X571122Y359500D01*
X571122Y359500D01*
Y368035D01*
X573406Y370319D01*
X574463D01*
X574614Y369819D01*
D02*
G37*
G36*
X582285Y345750D02*
X582385Y345378D01*
X579075Y342069D01*
X575778D01*
Y339060D01*
X575425Y338825D01*
X575425Y338825D01*
X575084Y338483D01*
X574622Y338674D01*
Y339000D01*
X571850D01*
X569079D01*
Y336531D01*
X570983D01*
X571357Y336226D01*
Y334165D01*
X571350D01*
Y331500D01*
X575500D01*
Y330500D01*
X571350D01*
Y327835D01*
X571357D01*
Y325774D01*
X571426D01*
Y325082D01*
X570964Y324891D01*
X570701Y325153D01*
X570171Y325507D01*
X569547Y325631D01*
X569500D01*
X568876Y325507D01*
X568347Y325153D01*
X568122Y324817D01*
X567622Y324969D01*
Y341535D01*
X568596Y342510D01*
X569079Y342285D01*
Y340000D01*
X571350D01*
Y342469D01*
X569262D01*
X569038Y342951D01*
X571965Y345879D01*
X582195D01*
X582285Y345750D01*
D02*
G37*
G36*
X601773Y341780D02*
Y341069D01*
X600778D01*
Y335931D01*
X602493D01*
X606520Y331904D01*
Y319880D01*
X602943D01*
Y318067D01*
X601253Y316376D01*
X601000D01*
X600473Y316272D01*
X600027Y315973D01*
X599728Y315527D01*
X599623Y315000D01*
X599728Y314473D01*
X600027Y314027D01*
X600473Y313728D01*
X601000Y313623D01*
X601823D01*
X602350Y313728D01*
X602796Y314027D01*
X604890Y316121D01*
X606323D01*
X606515Y315658D01*
X602801Y311945D01*
X581799D01*
Y313137D01*
X577056D01*
Y308000D01*
X576762Y307622D01*
X576712D01*
X576712Y307622D01*
X576712Y307622D01*
X575900D01*
Y310068D01*
X573128D01*
X570357D01*
Y307600D01*
X573307D01*
X573514Y307100D01*
X571707Y305293D01*
X571464Y304929D01*
X571423Y304726D01*
X571357D01*
Y303400D01*
X571335Y303292D01*
X571357Y303183D01*
Y302665D01*
X571350D01*
Y300000D01*
X575500D01*
Y299000D01*
X571350D01*
Y296335D01*
X571357D01*
Y294274D01*
X571426D01*
Y293636D01*
X571234Y293497D01*
X570945Y293409D01*
X570701Y293653D01*
X570171Y294007D01*
X569547Y294131D01*
X569500D01*
X568876Y294007D01*
X568347Y293653D01*
X568122Y293317D01*
X567622Y293469D01*
Y323031D01*
X568122Y323183D01*
X568347Y322847D01*
X568489Y322751D01*
X569979Y321261D01*
Y318431D01*
X574722D01*
Y323569D01*
X574279D01*
X574072Y324068D01*
X575218Y325215D01*
X575218Y325215D01*
X575232Y325235D01*
X575559Y325281D01*
X575844Y325251D01*
X576626Y324468D01*
X576419Y323969D01*
X575878D01*
Y321500D01*
X578650D01*
X581421D01*
Y323962D01*
X581429Y323964D01*
X581793Y324207D01*
X583793Y326207D01*
X583793Y326207D01*
X584036Y326571D01*
X584122Y327000D01*
X584122Y327000D01*
Y336122D01*
X584122Y336122D01*
X584036Y336551D01*
X583793Y336915D01*
X581391Y339317D01*
X581110Y339504D01*
X580997Y339878D01*
X580979Y340079D01*
X584023Y343124D01*
X600430D01*
X601773Y341780D01*
D02*
G37*
G36*
X626510Y310462D02*
X626319Y310000D01*
X605403D01*
X605211Y310462D01*
X609635Y314886D01*
X609933Y315332D01*
X610038Y315859D01*
X621113D01*
X626510Y310462D01*
D02*
G37*
G36*
X598730Y308730D02*
X585000Y295000D01*
Y275000D01*
X580000Y270000D01*
X576068D01*
Y270021D01*
X574622D01*
Y271479D01*
X576068D01*
Y276222D01*
X572518D01*
X571824Y276916D01*
X572015Y277378D01*
X573000D01*
Y279650D01*
X570532D01*
Y278861D01*
X570070Y278670D01*
X567622Y281118D01*
Y291531D01*
X568122Y291683D01*
X568347Y291347D01*
X568489Y291251D01*
X569979Y289761D01*
Y286931D01*
X574722D01*
Y290663D01*
X574744Y290772D01*
X574744Y290772D01*
Y292016D01*
X575309Y292581D01*
X575309Y292581D01*
X575552Y292945D01*
X575617Y293271D01*
X575896Y293417D01*
X576137Y293457D01*
X576614Y292981D01*
X576632Y292969D01*
X576480Y292469D01*
X575878D01*
Y290000D01*
X578650D01*
X581421D01*
Y292310D01*
X581421Y292469D01*
X581500Y292936D01*
X581567Y292981D01*
X582793Y294207D01*
X582793Y294207D01*
X583036Y294571D01*
X583122Y295000D01*
X583122Y295000D01*
Y305000D01*
X583122Y305000D01*
X583036Y305429D01*
X582793Y305793D01*
X581293Y307293D01*
X581273Y307908D01*
X581345Y308000D01*
X581799D01*
Y309192D01*
X598539D01*
X598730Y308730D01*
D02*
G37*
%LPC*%
G36*
X525846Y483882D02*
X522000D01*
Y481807D01*
X525846D01*
Y483882D01*
D02*
G37*
G36*
X521000D02*
X517154D01*
Y481807D01*
X521000D01*
Y483882D01*
D02*
G37*
G36*
X539921Y483968D02*
X537650D01*
Y481500D01*
X539921D01*
Y483968D01*
D02*
G37*
G36*
X536650D02*
X534378D01*
Y481500D01*
X536650D01*
Y483968D01*
D02*
G37*
G36*
X525846Y480807D02*
X522000D01*
Y478732D01*
X525846D01*
Y480807D01*
D02*
G37*
G36*
X521000D02*
X517154D01*
Y478732D01*
X521000D01*
Y480807D01*
D02*
G37*
G36*
X539921Y480500D02*
X537650D01*
Y478031D01*
X539921D01*
Y480500D01*
D02*
G37*
G36*
X536650D02*
X534378D01*
Y478031D01*
X536650D01*
Y480500D01*
D02*
G37*
G36*
X526346Y460882D02*
X522500D01*
Y458807D01*
X526346D01*
Y460882D01*
D02*
G37*
G36*
X521500D02*
X517654D01*
Y458807D01*
X521500D01*
Y460882D01*
D02*
G37*
G36*
X526346Y457807D02*
X522500D01*
Y455732D01*
X526346D01*
Y457807D01*
D02*
G37*
G36*
X521500D02*
X517654D01*
Y455732D01*
X521500D01*
Y457807D01*
D02*
G37*
G36*
X565982Y457962D02*
X556908D01*
Y452038D01*
X565982D01*
Y457962D01*
D02*
G37*
G36*
X625037Y450088D02*
X615963D01*
Y444164D01*
X625037D01*
Y450088D01*
D02*
G37*
G36*
X525846Y437689D02*
X522000D01*
Y435614D01*
X525846D01*
Y437689D01*
D02*
G37*
G36*
X521000D02*
X517154D01*
Y435614D01*
X521000D01*
Y437689D01*
D02*
G37*
G36*
X525846Y434614D02*
X522000D01*
Y432539D01*
X525846D01*
Y434614D01*
D02*
G37*
G36*
X521000D02*
X517154D01*
Y432539D01*
X521000D01*
Y434614D01*
D02*
G37*
G36*
X565982Y434340D02*
X556908D01*
Y428416D01*
X565982D01*
Y434340D01*
D02*
G37*
G36*
X625037Y426466D02*
X615963D01*
Y420542D01*
X625037D01*
Y426466D01*
D02*
G37*
G36*
X565982D02*
X556908D01*
Y420542D01*
X565982D01*
Y426466D01*
D02*
G37*
G36*
X625037Y418592D02*
X615963D01*
Y412668D01*
X625037D01*
Y414508D01*
X629431D01*
Y412278D01*
X634569D01*
Y417021D01*
X629431D01*
Y416751D01*
X625037D01*
Y418592D01*
D02*
G37*
G36*
X634969Y411122D02*
X632500D01*
Y408850D01*
X634969D01*
Y411122D01*
D02*
G37*
G36*
X631500D02*
X629032D01*
Y408850D01*
X631500D01*
Y411122D01*
D02*
G37*
G36*
X625437Y411118D02*
X621000D01*
Y408256D01*
X625437D01*
Y411118D01*
D02*
G37*
G36*
X620000D02*
X615563D01*
Y408256D01*
X620000D01*
Y411118D01*
D02*
G37*
G36*
X530000Y421132D02*
X528706Y421004D01*
X527462Y420627D01*
X526315Y420014D01*
X525311Y419190D01*
X524486Y418185D01*
X523873Y417038D01*
X523495Y415794D01*
X523368Y414500D01*
X523495Y413206D01*
X523873Y411962D01*
X524486Y410815D01*
X525311Y409810D01*
X526315Y408986D01*
X527462Y408373D01*
X528706Y407996D01*
X530000Y407868D01*
X531294Y407996D01*
X532538Y408373D01*
X533684Y408986D01*
X534690Y409810D01*
X535514Y410815D01*
X536127Y411962D01*
X536505Y413206D01*
X536632Y414500D01*
X536505Y415794D01*
X536127Y417038D01*
X535514Y418185D01*
X534690Y419190D01*
X533684Y420014D01*
X532538Y420627D01*
X531294Y421004D01*
X530000Y421132D01*
D02*
G37*
G36*
X631500Y407850D02*
X629032D01*
Y405579D01*
X631500D01*
Y407850D01*
D02*
G37*
G36*
X625437Y407256D02*
X621000D01*
Y404394D01*
X625437D01*
Y407256D01*
D02*
G37*
G36*
X620000D02*
X615563D01*
Y404394D01*
X620000D01*
Y407256D01*
D02*
G37*
G36*
X613423Y405797D02*
X607892D01*
Y397904D01*
X613423D01*
Y405797D01*
D02*
G37*
G36*
X605549D02*
X600018D01*
Y397904D01*
X605549D01*
Y405797D01*
D02*
G37*
G36*
X597675D02*
X592144D01*
Y397904D01*
X597675D01*
Y405797D01*
D02*
G37*
G36*
X589801D02*
X584270D01*
Y397904D01*
X589801D01*
Y405797D01*
D02*
G37*
G36*
X581927D02*
X576396D01*
Y397904D01*
X581927D01*
Y405797D01*
D02*
G37*
G36*
X574053D02*
X568522D01*
Y397904D01*
X574053D01*
Y405797D01*
D02*
G37*
G36*
X635000Y396622D02*
X635000Y396621D01*
X557701D01*
X557701Y396622D01*
X557272Y396536D01*
X556908Y396293D01*
X556908Y396293D01*
X538579Y377964D01*
X538336Y377601D01*
X538251Y377171D01*
X538251Y377171D01*
Y375521D01*
X536432D01*
Y373504D01*
X536105D01*
X535579Y373400D01*
X535132Y373101D01*
X529950Y367919D01*
X526466D01*
Y364601D01*
X531896D01*
Y365972D01*
X535532Y369607D01*
X536031Y369400D01*
X536031Y369214D01*
Y367350D01*
X538500D01*
Y369622D01*
X536463D01*
X536253Y369622D01*
X536046Y370122D01*
X536676Y370752D01*
X537978D01*
X538111Y370778D01*
X541569D01*
Y375521D01*
X540494D01*
Y376707D01*
X553617Y389830D01*
X554079Y389638D01*
Y389500D01*
X556350D01*
Y392110D01*
X556218Y392430D01*
X558166Y394378D01*
X634535D01*
X637707Y391207D01*
X637707Y391207D01*
X638071Y390964D01*
X638500Y390878D01*
X638500Y390879D01*
X640742D01*
X640852Y390721D01*
X640963Y390378D01*
X640728Y390027D01*
X640624Y389500D01*
Y387943D01*
X637463D01*
Y381821D01*
X646537D01*
Y387943D01*
X643376D01*
Y389500D01*
X643272Y390027D01*
X643037Y390378D01*
X643148Y390721D01*
X643258Y390879D01*
X645449D01*
X647378Y388949D01*
Y378000D01*
X647464Y377571D01*
X647707Y377207D01*
X648071Y376964D01*
X648500Y376878D01*
X648929Y376964D01*
X649293Y377207D01*
X649536Y377571D01*
X649579Y377785D01*
X650079Y377736D01*
Y374532D01*
X652350D01*
Y377500D01*
Y380469D01*
X650122D01*
X650079Y380469D01*
X649622Y380572D01*
Y389414D01*
X649622Y389414D01*
X649536Y389843D01*
X649293Y390207D01*
X649293Y390207D01*
X646707Y392793D01*
X646343Y393036D01*
X645914Y393122D01*
X645914Y393122D01*
X638965D01*
X638538Y393549D01*
X638762Y394032D01*
X640850D01*
Y396500D01*
X638579D01*
Y394215D01*
X638096Y393990D01*
X635793Y396293D01*
X635429Y396536D01*
X635000Y396622D01*
D02*
G37*
G36*
X644122Y396500D02*
X641850D01*
Y394032D01*
X644122D01*
Y396500D01*
D02*
G37*
G36*
X583622Y393468D02*
X581350D01*
Y391000D01*
X583622D01*
Y393468D01*
D02*
G37*
G36*
X580350D02*
X578079D01*
Y391000D01*
X580350D01*
Y393468D01*
D02*
G37*
G36*
X601921D02*
X599650D01*
Y391000D01*
X601921D01*
Y393468D01*
D02*
G37*
G36*
X598650D02*
X596378D01*
Y391000D01*
X598650D01*
Y393468D01*
D02*
G37*
G36*
X559622Y391968D02*
X557350D01*
Y389500D01*
X559622D01*
Y391968D01*
D02*
G37*
G36*
X659748Y389110D02*
X658067D01*
Y388020D01*
X659748D01*
Y389110D01*
D02*
G37*
G36*
X601921Y390000D02*
X599650D01*
Y387531D01*
X601921D01*
Y390000D01*
D02*
G37*
G36*
X598650D02*
X596378D01*
Y387531D01*
X598650D01*
Y390000D01*
D02*
G37*
G36*
X583622Y390000D02*
X581350D01*
Y387531D01*
X583622D01*
Y390000D01*
D02*
G37*
G36*
X580350D02*
X578079D01*
Y387531D01*
X580350D01*
Y390000D01*
D02*
G37*
G36*
X556350Y388500D02*
X554079D01*
Y386032D01*
X556350D01*
Y388500D01*
D02*
G37*
G36*
X635937Y388342D02*
X631500D01*
Y385382D01*
X635937D01*
Y388342D01*
D02*
G37*
G36*
X630500D02*
X626063D01*
Y385382D01*
X630500D01*
Y388342D01*
D02*
G37*
G36*
X620521Y387568D02*
X615778D01*
Y384018D01*
X614684Y382924D01*
X614222Y383115D01*
Y387568D01*
X609479D01*
Y386122D01*
X607800D01*
X607371Y386036D01*
X607007Y385793D01*
X606764Y385429D01*
X606684Y385027D01*
X606672Y384992D01*
X606462Y384744D01*
X606251Y384588D01*
X597586D01*
X597586Y384588D01*
X597157Y384502D01*
X596793Y384259D01*
X596793Y384259D01*
X595981Y383447D01*
X595738Y383084D01*
X595652Y382654D01*
X595652Y382654D01*
Y377211D01*
X595464Y376929D01*
X595378Y376500D01*
X595464Y376071D01*
X595707Y375707D01*
X596071Y375464D01*
X596500Y375378D01*
X596500Y375378D01*
X596851D01*
X597119Y374879D01*
X596972Y374659D01*
X596940Y374500D01*
X601516D01*
X606091D01*
X606060Y374659D01*
X605686Y375218D01*
X605649Y375242D01*
X605574Y375894D01*
X605683Y376056D01*
X605783Y376559D01*
X605683Y377062D01*
X605423Y377450D01*
X605519Y377716D01*
X605627Y377920D01*
X606005Y377964D01*
X626931Y357037D01*
Y353979D01*
X632068D01*
Y358722D01*
X628419D01*
X627363Y359778D01*
X627570Y360278D01*
X632068D01*
Y361528D01*
X633931D01*
Y360278D01*
X639069D01*
Y365021D01*
X633931D01*
Y363771D01*
X632068D01*
Y365021D01*
X630622D01*
Y367057D01*
X635537D01*
Y368997D01*
X637463D01*
Y367057D01*
X646537D01*
Y368997D01*
X653018D01*
X653018Y368997D01*
X653447Y369082D01*
X653811Y369325D01*
X656893Y372407D01*
X657136Y372771D01*
X657222Y373200D01*
X657136Y373629D01*
X656893Y373993D01*
X656529Y374236D01*
X656100Y374322D01*
X656029Y374307D01*
X655622Y374736D01*
Y377000D01*
X653350D01*
Y374532D01*
X655213D01*
X655365Y374031D01*
X655307Y373993D01*
X652554Y371240D01*
X646537D01*
Y373179D01*
X637463D01*
Y371240D01*
X635537D01*
Y373179D01*
X626463D01*
Y367057D01*
X628378D01*
Y365021D01*
X626931D01*
Y360916D01*
X626432Y360709D01*
X611171Y375970D01*
X611363Y376431D01*
X614222D01*
Y379428D01*
X614244Y379432D01*
X614608Y379676D01*
X614916Y379983D01*
X615378Y379792D01*
Y379500D01*
X618150D01*
X620921D01*
Y381968D01*
X620611D01*
X620521Y382432D01*
X620521D01*
Y387568D01*
D02*
G37*
G36*
X635937Y384382D02*
X631500D01*
Y381421D01*
X635937D01*
Y384382D01*
D02*
G37*
G36*
X630500D02*
X626063D01*
Y381421D01*
X630500D01*
Y384382D01*
D02*
G37*
G36*
X653350Y380469D02*
Y378000D01*
X655622D01*
Y380469D01*
X653350D01*
D02*
G37*
G36*
X620921Y378500D02*
X618650D01*
Y376031D01*
X620921D01*
Y378500D01*
D02*
G37*
G36*
X617650D02*
X615378D01*
Y376031D01*
X617650D01*
Y378500D01*
D02*
G37*
G36*
X530237Y375839D02*
X529681D01*
Y374240D01*
X532237D01*
X532177Y374544D01*
X531722Y375225D01*
X531041Y375680D01*
X530237Y375839D01*
D02*
G37*
G36*
X528681D02*
X528125D01*
X527321Y375680D01*
X526640Y375225D01*
X526185Y374544D01*
X526125Y374240D01*
X528681D01*
Y375839D01*
D02*
G37*
G36*
X532237Y373240D02*
X529681D01*
Y371641D01*
X530237D01*
X531041Y371801D01*
X531722Y372256D01*
X532177Y372937D01*
X532237Y373240D01*
D02*
G37*
G36*
X528681D02*
X526125D01*
X526185Y372937D01*
X526640Y372256D01*
X527321Y371801D01*
X528125Y371641D01*
X528681D01*
Y373240D01*
D02*
G37*
G36*
X539500Y369622D02*
Y367350D01*
X541968D01*
Y369622D01*
X539500D01*
D02*
G37*
G36*
X541968Y366350D02*
X539500D01*
Y364079D01*
X541968D01*
Y366350D01*
D02*
G37*
G36*
X538500D02*
X536031D01*
Y364079D01*
X538500D01*
Y366350D01*
D02*
G37*
G36*
X639468Y359122D02*
X637000D01*
Y356850D01*
X639468D01*
Y359122D01*
D02*
G37*
G36*
X636000D02*
X633532D01*
Y356850D01*
X636000D01*
Y359122D01*
D02*
G37*
G36*
X639468Y355850D02*
X637000D01*
Y353579D01*
X639468D01*
Y355850D01*
D02*
G37*
G36*
X636000D02*
X633532D01*
Y353579D01*
X636000D01*
Y355850D01*
D02*
G37*
G36*
X538443Y361537D02*
X532321D01*
Y358421D01*
X528900D01*
X528471Y358336D01*
X528107Y358093D01*
X527864Y357729D01*
X527778Y357300D01*
X527864Y356871D01*
X528107Y356507D01*
X528471Y356264D01*
X528900Y356178D01*
X532321D01*
Y352463D01*
X538443D01*
Y361537D01*
D02*
G37*
G36*
X522875Y371691D02*
X520762D01*
X520115Y371563D01*
X519566Y371196D01*
X519200Y370647D01*
X519071Y370000D01*
X519200Y369353D01*
X519566Y368804D01*
X520115Y368437D01*
X520442Y368372D01*
Y361537D01*
X517557D01*
Y352463D01*
X519242D01*
Y336756D01*
X519346Y336229D01*
X519645Y335783D01*
X522699Y332728D01*
Y325601D01*
X531773D01*
Y334675D01*
X524646D01*
X521995Y337326D01*
Y352463D01*
X523679D01*
Y361537D01*
X523195D01*
Y368372D01*
X523523Y368437D01*
X524071Y368804D01*
X524438Y369353D01*
X524567Y370000D01*
X524438Y370647D01*
X524071Y371196D01*
X523523Y371563D01*
X522875Y371691D01*
D02*
G37*
G36*
X656848Y486600D02*
X649152D01*
Y483626D01*
X643868D01*
Y484621D01*
X638731D01*
Y479878D01*
X643868D01*
Y480873D01*
X649152D01*
Y478904D01*
X656848D01*
Y486600D01*
D02*
G37*
G36*
X693500Y486971D02*
Y483252D01*
X697219D01*
X697139Y483861D01*
X696711Y484894D01*
X696030Y485782D01*
X695142Y486463D01*
X694109Y486891D01*
X693500Y486971D01*
D02*
G37*
G36*
X692500D02*
X691891Y486891D01*
X690858Y486463D01*
X689970Y485782D01*
X689289Y484894D01*
X688861Y483861D01*
X688781Y483252D01*
X692500D01*
Y486971D01*
D02*
G37*
G36*
X697219Y482252D02*
X693500D01*
Y478533D01*
X694109Y478613D01*
X695142Y479041D01*
X696030Y479722D01*
X696711Y480610D01*
X697139Y481643D01*
X697219Y482252D01*
D02*
G37*
G36*
X692500D02*
X688781D01*
X688861Y481643D01*
X689289Y480610D01*
X689970Y479722D01*
X690858Y479041D01*
X691891Y478613D01*
X692500Y478533D01*
Y482252D01*
D02*
G37*
G36*
X644269Y478722D02*
X641800D01*
Y476450D01*
X644269D01*
Y478722D01*
D02*
G37*
G36*
X640800D02*
X638332D01*
Y476450D01*
X640800D01*
Y478722D01*
D02*
G37*
G36*
X644269Y475450D02*
X641800D01*
Y473179D01*
X644269D01*
Y475450D01*
D02*
G37*
G36*
X640800D02*
X638332D01*
Y473179D01*
X640800D01*
Y475450D01*
D02*
G37*
G36*
X693000Y476633D02*
X691995Y476501D01*
X691059Y476113D01*
X690256Y475496D01*
X689639Y474693D01*
X689251Y473757D01*
X689119Y472752D01*
X689251Y471747D01*
X689639Y470811D01*
X690256Y470008D01*
X691059Y469391D01*
X691995Y469003D01*
X693000Y468871D01*
X694004Y469003D01*
X694941Y469391D01*
X695744Y470008D01*
X696361Y470811D01*
X696749Y471747D01*
X696881Y472752D01*
X696749Y473757D01*
X696361Y474693D01*
X695744Y475496D01*
X694941Y476113D01*
X694004Y476501D01*
X693000Y476633D01*
D02*
G37*
G36*
X690855Y454126D02*
X690750D01*
Y450374D01*
X692081D01*
Y452901D01*
X691987Y453370D01*
X691722Y453767D01*
X691324Y454033D01*
X690855Y454126D01*
D02*
G37*
G36*
X665969Y449622D02*
X663500D01*
Y447350D01*
X665969D01*
Y449622D01*
D02*
G37*
G36*
X659469D02*
X657000D01*
Y447350D01*
X659469D01*
Y449622D01*
D02*
G37*
G36*
X662500D02*
X660032D01*
Y447350D01*
X662500D01*
Y449622D01*
D02*
G37*
G36*
X656000D02*
X653532D01*
Y447350D01*
X656000D01*
Y449622D01*
D02*
G37*
G36*
X671322Y420868D02*
X669050D01*
Y418400D01*
X671322D01*
Y420868D01*
D02*
G37*
G36*
X668050D02*
X665779D01*
Y418400D01*
X668050D01*
Y420868D01*
D02*
G37*
G36*
X688622Y405865D02*
X686350D01*
Y403397D01*
X688622D01*
Y405865D01*
D02*
G37*
G36*
Y402397D02*
X686350D01*
Y399928D01*
X688622D01*
Y402397D01*
D02*
G37*
G36*
X695437Y369843D02*
X691000D01*
Y366882D01*
X695437D01*
Y369843D01*
D02*
G37*
G36*
X690000D02*
X685563D01*
Y366882D01*
X690000D01*
Y369843D01*
D02*
G37*
G36*
X702100Y372777D02*
X701573Y372672D01*
X701127Y372373D01*
X701027Y372273D01*
X700728Y371827D01*
X700624Y371300D01*
Y369443D01*
X697463D01*
Y363321D01*
X706537D01*
Y369443D01*
X703376D01*
Y370897D01*
X703476Y371400D01*
X703372Y371927D01*
X703073Y372373D01*
X702627Y372672D01*
X702100Y372777D01*
D02*
G37*
G36*
X695437Y365882D02*
X691000D01*
Y362921D01*
X695437D01*
Y365882D01*
D02*
G37*
G36*
X706568Y441021D02*
X701432D01*
Y440026D01*
X700069D01*
Y441021D01*
X694932D01*
Y436278D01*
X700069D01*
Y437273D01*
X701432D01*
Y436278D01*
X706568D01*
Y441021D01*
D02*
G37*
G36*
X703500Y435122D02*
X701031D01*
Y432850D01*
X703500D01*
Y435122D01*
D02*
G37*
G36*
X700468D02*
X698000D01*
Y432850D01*
X700468D01*
Y435122D01*
D02*
G37*
G36*
X697000D02*
X694531D01*
Y432850D01*
X697000D01*
Y435122D01*
D02*
G37*
G36*
X690855Y433378D02*
X690750D01*
Y429626D01*
X692081D01*
Y432153D01*
X691987Y432621D01*
X691722Y433019D01*
X691324Y433285D01*
X690855Y433378D01*
D02*
G37*
G36*
X700468Y431850D02*
X698000D01*
Y429579D01*
X700468D01*
Y431850D01*
D02*
G37*
G36*
X697000D02*
X694531D01*
Y429579D01*
X697000D01*
Y431850D01*
D02*
G37*
G36*
X703500D02*
X701031D01*
Y429579D01*
X703500D01*
Y431850D01*
D02*
G37*
G36*
X692081Y428626D02*
X690750D01*
Y424874D01*
X690855D01*
X691324Y424967D01*
X691722Y425233D01*
X691987Y425631D01*
X692081Y426099D01*
Y428626D01*
D02*
G37*
G36*
X617969Y355122D02*
X615500D01*
Y352850D01*
X617969D01*
Y355122D01*
D02*
G37*
G36*
X611469D02*
X609000D01*
Y352850D01*
X611469D01*
Y355122D01*
D02*
G37*
G36*
X614500D02*
X612032D01*
Y352850D01*
X614500D01*
Y355122D01*
D02*
G37*
G36*
X617969Y351850D02*
X615500D01*
Y349579D01*
X617969D01*
Y351850D01*
D02*
G37*
G36*
X614500D02*
X612032D01*
Y349579D01*
X614500D01*
Y351850D01*
D02*
G37*
G36*
X611469D02*
X609000D01*
Y349579D01*
X611469D01*
Y351850D01*
D02*
G37*
G36*
X608000D02*
X605532D01*
Y349579D01*
X608000D01*
Y351850D01*
D02*
G37*
G36*
X679639Y349832D02*
X670959D01*
Y343514D01*
X679639D01*
Y349832D01*
D02*
G37*
G36*
X667041D02*
X658361D01*
Y343514D01*
X667041D01*
Y349832D01*
D02*
G37*
G36*
X646449Y327646D02*
X641500D01*
Y322894D01*
X646449D01*
Y327646D01*
D02*
G37*
G36*
X640500D02*
X635551D01*
Y322894D01*
X640500D01*
Y327646D01*
D02*
G37*
G36*
X672000Y300437D02*
Y297000D01*
X675437D01*
X675366Y297536D01*
X674966Y298501D01*
X674330Y299330D01*
X673501Y299967D01*
X672536Y300366D01*
X672000Y300437D01*
D02*
G37*
G36*
X671000D02*
X670464Y300366D01*
X669499Y299967D01*
X668670Y299330D01*
X668034Y298501D01*
X667634Y297536D01*
X667563Y297000D01*
X671000D01*
Y300437D01*
D02*
G37*
G36*
X675437Y296000D02*
X672000D01*
Y292563D01*
X672536Y292634D01*
X673501Y293034D01*
X674330Y293670D01*
X674966Y294499D01*
X675366Y295464D01*
X675437Y296000D01*
D02*
G37*
G36*
X671000D02*
X667563D01*
X667634Y295464D01*
X668034Y294499D01*
X668670Y293670D01*
X669499Y293034D01*
X670464Y292634D01*
X671000Y292563D01*
Y296000D01*
D02*
G37*
G36*
X556350Y352969D02*
X554079D01*
Y350500D01*
X556350D01*
Y352969D01*
D02*
G37*
G36*
Y349500D02*
X554079D01*
Y347031D01*
X556350D01*
Y349500D01*
D02*
G37*
G36*
X574622Y342469D02*
X572350D01*
Y340000D01*
X574622D01*
Y342469D01*
D02*
G37*
G36*
X599622Y341469D02*
X597350D01*
Y339000D01*
X599622D01*
Y341469D01*
D02*
G37*
G36*
X596350D02*
X594079D01*
Y339000D01*
X596350D01*
Y341469D01*
D02*
G37*
G36*
X599622Y338000D02*
X597350D01*
Y335531D01*
X599622D01*
Y338000D01*
D02*
G37*
G36*
X596350D02*
X594079D01*
Y335531D01*
X596350D01*
Y338000D01*
D02*
G37*
G36*
X597457Y320280D02*
X591839D01*
Y318500D01*
X597457D01*
Y320280D01*
D02*
G37*
G36*
X590839D02*
X585220D01*
Y318500D01*
X590839D01*
Y320280D01*
D02*
G37*
G36*
X581421Y320500D02*
X579150D01*
Y318032D01*
X581421D01*
Y320500D01*
D02*
G37*
G36*
X578150D02*
X575878D01*
Y318032D01*
X578150D01*
Y320500D01*
D02*
G37*
G36*
X597457Y317500D02*
X591839D01*
Y315721D01*
X597457D01*
Y317500D01*
D02*
G37*
G36*
X590839D02*
X585220D01*
Y315721D01*
X590839D01*
Y317500D01*
D02*
G37*
G36*
X575900Y313537D02*
X573628D01*
Y311069D01*
X575900D01*
Y313537D01*
D02*
G37*
G36*
X572628D02*
X570357D01*
Y311069D01*
X572628D01*
Y313537D01*
D02*
G37*
G36*
X581421Y289000D02*
X579150D01*
Y286531D01*
X581421D01*
Y289000D01*
D02*
G37*
G36*
X578150D02*
X575878D01*
Y286531D01*
X578150D01*
Y289000D01*
D02*
G37*
G36*
X576469Y282921D02*
X574000D01*
Y280650D01*
X576469D01*
Y282921D01*
D02*
G37*
G36*
X573000D02*
X570532D01*
Y280650D01*
X573000D01*
Y282921D01*
D02*
G37*
G36*
X576469Y279650D02*
X574000D01*
Y277378D01*
X576469D01*
Y279650D01*
D02*
G37*
%LPD*%
D15*
X571500Y347000D02*
X596650D01*
X566500Y342000D02*
X571500Y347000D01*
X566500Y280654D02*
X573303Y273850D01*
X566500Y280654D02*
Y342000D01*
X655142Y418995D02*
X664569Y409569D01*
X655142Y418995D02*
Y419442D01*
X653750Y418050D02*
X662600Y409200D01*
X662610Y389610D02*
X669500Y396500D01*
X572500Y303335D02*
Y304500D01*
X572457Y303292D02*
X572500Y303335D01*
X574500Y306500D02*
X576712D01*
X572500Y304500D02*
X574500Y306500D01*
X572547Y293555D02*
Y295563D01*
Y293555D02*
X573622Y292480D01*
X638500Y392000D02*
X645914D01*
X648500Y378000D02*
Y389414D01*
X645914Y392000D02*
X648500Y389414D01*
X635000Y395500D02*
X638500Y392000D01*
X624000Y395500D02*
X635000D01*
X578453Y306500D02*
Y309594D01*
Y303437D02*
Y306500D01*
X580500D01*
X576712D02*
X578453D01*
X580500D02*
X582000Y305000D01*
X579476Y338524D02*
Y340524D01*
X574394Y336207D02*
X574606D01*
X573224D02*
X574394D01*
X582000Y295000D02*
Y305000D01*
X580774Y293774D02*
X582000Y295000D01*
X577407Y293774D02*
X580774D01*
X576484Y295563D02*
X576575Y295472D01*
Y294606D02*
Y295472D01*
Y294606D02*
X577407Y293774D01*
X576484Y331000D02*
X578362Y329122D01*
X576484Y299500D02*
X578362Y297622D01*
X517500Y312500D02*
X521000Y316000D01*
X575500Y299500D02*
X576484D01*
X578362Y295654D02*
Y297622D01*
Y295654D02*
X578453Y295563D01*
Y334937D02*
Y339000D01*
Y309594D02*
X579428Y310568D01*
X575500Y331000D02*
X576484D01*
X578362Y327153D02*
Y329122D01*
Y327153D02*
X578453Y327063D01*
Y339000D02*
X578929Y338524D01*
X578150Y339303D02*
X578453Y339000D01*
X579476Y338524D02*
X580598D01*
X578929D02*
X579476D01*
X580598D02*
X583000Y336122D01*
X581000Y325000D02*
X583000Y327000D01*
Y336122D01*
X577681Y325000D02*
X581000D01*
X576484Y327063D02*
X576575Y326972D01*
Y326106D02*
Y326972D01*
Y326106D02*
X577681Y325000D01*
X660248Y389610D02*
X662610D01*
X676390Y403390D02*
X678752D01*
X669500Y396500D02*
X676390Y403390D01*
X531350Y471803D02*
Y472000D01*
Y471803D02*
X536273Y466881D01*
X583119D01*
X618638Y433240D02*
X620500Y431378D01*
X616760Y433240D02*
X618638D01*
X583119Y466881D02*
X616760Y433240D01*
X556764Y231713D02*
X573500Y248449D01*
Y261350D01*
X544900Y196061D02*
Y301122D01*
X541100Y304922D02*
X544900Y301122D01*
X546500Y305200D02*
X550200Y301500D01*
X546500Y305200D02*
Y352453D01*
X550200Y218100D02*
Y301500D01*
X543700Y304922D02*
X547500Y301121D01*
Y203461D02*
X551961Y199000D01*
X547500Y203461D02*
Y301121D01*
X550200Y218100D02*
X567400Y200900D01*
X544900Y196061D02*
X551961Y189000D01*
X567500Y173697D02*
Y200900D01*
X567400D02*
X567500D01*
X546500Y352453D02*
X556850Y362803D01*
X535082Y357300D02*
X535382Y357000D01*
X528900Y357300D02*
X535082D01*
X675200Y429176D02*
Y434200D01*
Y429176D02*
X675250Y429126D01*
X666696Y437050D02*
X683550D01*
X685250Y429126D02*
Y435350D01*
X683550Y437050D02*
X685250Y435350D01*
X656697Y438650D02*
X659569Y435778D01*
X665424D01*
X666696Y437050D01*
X663000Y438650D02*
X685050D01*
X687750Y429126D02*
Y435950D01*
X685050Y438650D02*
X687750Y435950D01*
X662400Y439250D02*
X663000Y438650D01*
X695800Y444900D02*
X696600Y445700D01*
Y451150D01*
X683500Y444900D02*
X695800D01*
X682750Y445650D02*
Y449874D01*
Y445650D02*
X683500Y444900D01*
X698200Y495300D02*
X706400Y487100D01*
Y444400D02*
Y487100D01*
Y444400D02*
X708386Y442414D01*
X689000Y376300D02*
Y392100D01*
Y376300D02*
X689100Y376200D01*
X679700Y354900D02*
X682700Y357900D01*
X645200Y354900D02*
X679700D01*
X646300Y352700D02*
X680600D01*
X681700Y353800D01*
X626400Y349000D02*
X642600D01*
X646300Y352700D01*
X621300Y354100D02*
Y357645D01*
Y354100D02*
X626400Y349000D01*
X623500Y354500D02*
Y358100D01*
Y354500D02*
X626200Y351800D01*
X642100D01*
X645200Y354900D01*
X601516Y366323D02*
X612623D01*
X621300Y357645D01*
X601516Y368882D02*
X612718D01*
X623500Y358100D01*
X708386Y422200D02*
Y442414D01*
Y345086D02*
Y422200D01*
X683057Y425343D02*
X686200Y422200D01*
X708386D01*
X682750Y429126D02*
X683057Y428819D01*
Y425343D02*
Y428819D01*
X682750Y449874D02*
Y455150D01*
X682700Y455200D02*
X682750Y455150D01*
X639919Y466657D02*
X655857D01*
X658100Y468900D02*
Y474800D01*
X660800Y477500D01*
X655857Y466657D02*
X658100Y468900D01*
X660800Y477500D02*
X678252D01*
X597586Y383466D02*
X606331D01*
X609393Y380404D01*
X611850Y379000D02*
Y379133D01*
X610579Y380404D02*
X611850Y379133D01*
X609393Y380404D02*
X610579D01*
X668516Y383584D02*
Y387248D01*
Y383584D02*
X670400Y381700D01*
X668600Y367171D02*
Y377500D01*
X666400Y379700D02*
X668600Y377500D01*
Y367171D02*
X671565Y364206D01*
X678850Y377000D02*
X679350Y377500D01*
X678079Y376228D02*
X678850Y377000D01*
X671000Y378500D02*
X677850D01*
X678850Y377000D02*
Y377500D01*
X666547Y387248D02*
X666638Y387158D01*
X677850Y378500D02*
X678850Y377500D01*
X666547Y382953D02*
Y387248D01*
Y382953D02*
X671000Y378500D01*
X671565Y364206D02*
X680394D01*
X684500Y342000D02*
Y360100D01*
X680394Y364206D02*
X684500Y360100D01*
X685500Y341000D02*
X704300D01*
X684500Y342000D02*
X685500Y341000D01*
X704300D02*
X708386Y345086D01*
X681900Y365971D02*
X687063Y360808D01*
X681900Y365971D02*
Y379746D01*
X680646Y381000D02*
X681900Y379746D01*
X677700Y381000D02*
X680646D01*
X678850Y370697D02*
Y377000D01*
X676480Y368327D02*
X678850Y370697D01*
X644400Y495300D02*
X698200D01*
X531350Y494500D02*
Y494697D01*
X534222Y497569D01*
X642132D01*
X644400Y495300D01*
X678752Y395516D02*
X681484D01*
X681500Y395500D01*
X692150Y395793D02*
Y399150D01*
X692100Y399200D02*
X692150Y399150D01*
X676852Y488900D02*
X683000Y482752D01*
X640500Y488900D02*
X676852D01*
X627800Y471600D02*
X636450Y480250D01*
Y484850D01*
X640500Y488900D01*
X616800Y471600D02*
X627800D01*
X613600Y468400D02*
X616800Y471600D01*
X613600Y460325D02*
Y468400D01*
X618925Y455000D02*
X620500D01*
X613600Y460325D02*
X618925Y455000D01*
X678252Y477500D02*
X683000Y472752D01*
X636500Y463500D02*
X636762D01*
X639919Y466657D01*
X634500Y403950D02*
X637400Y406850D01*
Y412500D02*
X639100Y414200D01*
X637400Y406850D02*
Y412500D01*
X639100Y414200D02*
X645900D01*
X646717Y411283D02*
X647600Y410400D01*
X645900Y414200D02*
X646717Y413383D01*
Y411283D02*
Y413383D01*
X636100Y401200D02*
X644397D01*
X634500Y399400D02*
Y403950D01*
X633400Y398600D02*
X633700D01*
X634500Y399400D01*
X644397Y401200D02*
X647500Y404303D01*
Y404500D01*
X660157Y393638D02*
X660248Y393547D01*
X658165Y393638D02*
X660157D01*
X647500Y404303D02*
X658165Y393638D01*
X541100Y357277D02*
X546262Y362439D01*
X541100Y304922D02*
Y357277D01*
X649400Y410400D02*
X651517Y408283D01*
X647600Y410400D02*
X649400D01*
X651517Y404083D02*
Y408283D01*
X660157Y397575D02*
X660248Y397484D01*
X658025Y397575D02*
X660157D01*
X651517Y404083D02*
X658025Y397575D01*
X543700Y356200D02*
X548100Y360600D01*
X543700Y304922D02*
Y356200D01*
X559854Y385700D02*
X569300D01*
X556850Y382697D02*
X559854Y385700D01*
X539372Y377171D02*
X557701Y395500D01*
X539372Y373522D02*
Y377171D01*
X557701Y395500D02*
X624000D01*
X569300Y385700D02*
X573323Y381677D01*
X685850Y395793D02*
Y395990D01*
Y388690D02*
Y395793D01*
Y388690D02*
X686500Y388040D01*
Y384600D02*
Y388040D01*
X683532Y380569D02*
X684731D01*
X681500Y382600D02*
X683532Y380569D01*
X690461Y351618D02*
X690500D01*
X689024D02*
X690461D01*
X676390Y384573D02*
Y387248D01*
X678363Y382600D02*
X681500D01*
X676390Y384573D02*
X678363Y382600D01*
X674421Y384279D02*
Y387248D01*
Y384279D02*
X677700Y381000D01*
X687063Y353579D02*
X689024Y351618D01*
X687063Y353579D02*
Y360808D01*
X655425Y437378D02*
X656697Y438650D01*
X653278Y437378D02*
X655425D01*
X652300Y436400D02*
X653278Y437378D01*
X662400Y439250D02*
Y441100D01*
X660800Y442700D02*
X662400Y441100D01*
X653100Y442700D02*
X660800D01*
X650331Y439931D02*
X653100Y442700D01*
X650331Y439000D02*
Y439931D01*
X654547Y422300D02*
X664047Y412800D01*
X632300Y422300D02*
X654547D01*
X664047Y412800D02*
X667463D01*
X650677Y428968D02*
X664601Y415044D01*
X636531Y428968D02*
X650677D01*
X664601Y415044D02*
Y415044D01*
X629600Y425000D02*
X632300Y422300D01*
X629600Y425000D02*
Y431100D01*
X632950Y434450D01*
X642850D01*
X664569Y407443D02*
Y409569D01*
Y407443D02*
X664579Y407433D01*
Y405752D02*
Y407433D01*
X662600Y407443D02*
Y409200D01*
Y407443D02*
X662610Y407433D01*
Y405752D02*
Y407433D01*
X607800Y385000D02*
X611850D01*
X681428Y397394D02*
X681471Y397436D01*
X678842Y397394D02*
X681428D01*
X678752Y397484D02*
X678842Y397394D01*
X681290Y389610D02*
X682000Y388900D01*
X678752Y389610D02*
X681290D01*
X642000Y370118D02*
X653018D01*
X656100Y373200D01*
X674850Y414150D02*
X681500Y407500D01*
Y400144D02*
Y407500D01*
X674850Y414150D02*
Y417900D01*
X677500Y428876D02*
X677750Y429126D01*
X677500Y423700D02*
X680200Y421000D01*
X677500Y423700D02*
Y428876D01*
X680200Y421000D02*
X682600D01*
X680300Y423500D02*
Y429076D01*
X680250Y429126D02*
X680300Y429076D01*
X681500Y400144D02*
X684382Y397262D01*
X684579D01*
X685850Y395990D01*
X668125Y414400D02*
X672453Y410073D01*
X664601Y415044D02*
X665245Y414400D01*
X668125D01*
X656500Y407138D02*
Y410600D01*
X657600Y411700D01*
X659657Y403390D02*
X660248D01*
X659567Y403480D02*
X659657Y403390D01*
X659567Y403480D02*
Y404071D01*
X656500Y407138D02*
X659567Y404071D01*
X636500Y453500D02*
X641200D01*
X645000Y436600D02*
Y449700D01*
X641200Y453500D02*
X645000Y449700D01*
X642850Y434450D02*
X645000Y436600D01*
X628000Y447500D02*
X636500Y439000D01*
X628000Y447500D02*
Y450500D01*
X622362Y453138D02*
X625362D01*
X628000Y450500D01*
X620500Y455000D02*
X622362Y453138D01*
X636500Y429000D02*
X636531Y428968D01*
X672453Y405752D02*
Y410073D01*
X667463Y412800D02*
X670484Y409778D01*
Y405752D02*
Y409778D01*
X666547Y405752D02*
Y409453D01*
X668500Y409500D02*
X668516Y409484D01*
X685550Y410300D02*
X685850Y410000D01*
X682500Y410300D02*
X685550D01*
X668516Y405752D02*
Y409484D01*
X659150Y377500D02*
Y377697D01*
X664579Y383126D01*
Y387248D01*
X659150Y370697D02*
Y377500D01*
Y370697D02*
X661520Y368327D01*
X662701D01*
X675299D02*
X676480D01*
X675000Y450124D02*
X675250Y449874D01*
X675000Y450124D02*
Y465646D01*
X672242Y468404D02*
X675000Y465646D01*
X663000Y472752D02*
X667348Y468404D01*
X672242D01*
X676347Y471700D02*
X684350Y463697D01*
Y463303D02*
Y463500D01*
Y463697D01*
X674052Y471700D02*
X676347D01*
X673000Y472752D02*
X674052Y471700D01*
X678150Y463500D02*
Y467350D01*
X677500Y459500D02*
X680250Y456750D01*
Y449874D02*
Y456750D01*
X677700Y455200D02*
X677750Y455150D01*
Y449874D02*
Y455150D01*
X573622Y292480D02*
X574516Y293374D01*
X572350Y289500D02*
X573622Y290772D01*
X574516Y293374D02*
Y295563D01*
X573622Y290772D02*
Y292480D01*
X621126Y463500D02*
X636500D01*
X620500Y462874D02*
X621126Y463500D01*
X647650Y397000D02*
X651579D01*
X657000Y391579D02*
X660248D01*
X651579Y397000D02*
X657000Y391579D01*
X678150Y463303D02*
X685250Y456203D01*
X687750Y449874D02*
Y459903D01*
X684350Y463303D02*
X687750Y459903D01*
X678150Y463303D02*
Y463500D01*
X685250Y449874D02*
Y456203D01*
X690500Y351618D02*
X702000D01*
X688500Y349658D02*
X690461Y351618D01*
X688500Y344150D02*
Y349658D01*
X695500Y344150D02*
X695500Y344150D01*
X688500Y344150D02*
X695500D01*
X692150Y402897D02*
Y410000D01*
Y402772D02*
X693421Y401500D01*
X694500D01*
X692150Y402772D02*
Y402897D01*
X692960Y389500D02*
X694914D01*
X695500Y390086D01*
Y400500D01*
X694500Y401500D02*
X695500Y400500D01*
X692150Y388690D02*
X692960Y389500D01*
X631020Y415630D02*
X632000Y414650D01*
X620500Y415630D02*
X631020D01*
X629500Y362650D02*
X636500D01*
X606436Y379118D02*
X627933Y357622D01*
X629500Y362650D02*
Y368618D01*
X627933Y357622D02*
X628228D01*
X629500Y356350D01*
Y368618D02*
X631000Y370118D01*
X629500Y362650D02*
X629500Y362650D01*
X631000Y370118D02*
X642000D01*
X559722Y344278D02*
Y353432D01*
X556850Y356303D02*
Y356500D01*
Y356303D02*
X559722Y353432D01*
Y344278D02*
X560500Y343500D01*
X618021Y334979D02*
X690924D01*
X618000Y335000D02*
X618021Y334979D01*
X691569Y337265D02*
X692154Y337850D01*
X695500D01*
X691569Y335623D02*
Y337265D01*
X690924Y334979D02*
X691569Y335623D01*
X601516Y379118D02*
X606436D01*
X601516D02*
Y381677D01*
X596774Y382654D02*
X597586Y383466D01*
X596500Y376500D02*
X596774Y376774D01*
Y382654D01*
X611850Y379197D02*
X613122Y380469D01*
X618150Y384803D02*
Y385000D01*
X613815Y380469D02*
X618150Y384803D01*
X613122Y380469D02*
X613815D01*
X611850Y379000D02*
Y379197D01*
X601457Y376500D02*
X601516Y376559D01*
X596500Y376500D02*
X601457D01*
X599000Y361453D02*
X601803Y358650D01*
X599000Y361453D02*
Y361500D01*
X601803Y358650D02*
X602000D01*
X608500D02*
X615000D01*
X596650Y347000D02*
X602000Y352350D01*
X556850Y382500D02*
Y382697D01*
Y376000D02*
Y382500D01*
X556850Y356500D02*
Y356697D01*
X560000Y359846D01*
Y372654D01*
X556850Y375803D02*
Y376000D01*
Y375803D02*
X560000Y372654D01*
X531850Y448697D02*
X546028Y462874D01*
X561445D01*
X531850Y448500D02*
Y448697D01*
X521500Y448500D02*
X531850D01*
X522000Y471693D02*
X531043D01*
X531350Y472000D01*
Y481500D02*
Y494500D01*
X530850Y481000D02*
X531350Y481500D01*
X521500Y494693D02*
X531157D01*
X531350Y494500D01*
X573303Y273850D02*
X573500D01*
X574606Y304394D02*
X576712Y306500D01*
X574606Y303528D02*
Y304394D01*
X572547Y324130D02*
X574425Y326008D01*
X599421Y355500D02*
X605154D01*
X572547Y321197D02*
Y324130D01*
X574425Y326972D02*
X574516Y327063D01*
X574425Y326008D02*
Y326972D01*
X574516Y326965D02*
Y327063D01*
X572547Y324130D02*
Y327063D01*
X605154Y355500D02*
X608303Y358650D01*
X597421Y357500D02*
X599421Y355500D01*
X572350Y321000D02*
X572547Y321197D01*
X573500Y267650D02*
Y273850D01*
X574516Y303437D02*
X574606Y303528D01*
X608303Y358650D02*
X608500D01*
X592882Y357500D02*
X597421D01*
X592882D02*
Y364882D01*
X588882Y368882D02*
X592882Y364882D01*
X578484Y357866D02*
Y366323D01*
X578118Y357500D02*
X578484Y357866D01*
X601457Y371500D02*
X601516Y371441D01*
X591500Y371500D02*
X601457D01*
X578484Y368882D02*
X588882D01*
X591500Y371500D01*
X563150Y350000D02*
Y356500D01*
X570000Y359500D02*
Y368500D01*
X572941Y371441D02*
X578484D01*
X570000Y368500D02*
X572941Y371441D01*
X567000Y356500D02*
X570000Y359500D01*
X563150Y356500D02*
X567000D01*
X563150Y363000D02*
X567000D01*
X556850Y362803D02*
Y363000D01*
X566453Y373000D02*
X569500D01*
X578484Y376559D02*
X583059D01*
X569500Y373000D02*
X573059Y376559D01*
X578484D01*
X563150Y369697D02*
X566453Y373000D01*
X563150Y369500D02*
Y369697D01*
X583059Y376559D02*
X584500Y378000D01*
Y382500D01*
X574500Y384500D02*
X582500D01*
X584500Y382500D01*
X563150Y389000D02*
X570000D01*
X574500Y384500D01*
X573323Y381677D02*
X578484D01*
X563150Y376000D02*
X568264D01*
X571382Y379118D01*
X578484D01*
X563150Y382500D02*
X568000D01*
X571382Y379118D01*
X567500Y173697D02*
X586500Y154697D01*
Y154500D02*
Y154697D01*
X597500Y136500D02*
Y142500D01*
X592799Y147201D02*
Y154500D01*
Y147201D02*
X597500Y142500D01*
X596500Y135500D02*
X597500Y136500D01*
X580000Y127500D02*
X594414D01*
X596500Y129586D02*
Y135500D01*
X594414Y127500D02*
X596500Y129586D01*
X565000Y150000D02*
X572500Y142500D01*
Y135000D02*
Y142500D01*
Y135000D02*
X580000Y127500D01*
X555000Y150000D02*
X565000D01*
X554000Y149000D02*
X555000Y150000D01*
X553000D02*
X554000Y149000D01*
X545000Y150000D02*
X553000D01*
X522039Y172961D02*
Y189000D01*
Y172961D02*
X545000Y150000D01*
X517500Y220000D02*
Y312500D01*
X522039Y199000D02*
Y215461D01*
X517500Y220000D02*
X522039Y215461D01*
Y189000D02*
Y199000D01*
X574606Y335028D02*
Y336207D01*
X574394D02*
X576219Y338032D01*
X576878D01*
X572638Y335621D02*
X573224Y336207D01*
X572547Y334937D02*
X572638Y335028D01*
Y335621D01*
X576878Y338032D02*
X578150Y339303D01*
X574516Y334937D02*
X574606Y335028D01*
X642469Y154500D02*
X642500Y154469D01*
X586000Y154000D02*
X586500Y154500D01*
X586000Y146000D02*
Y154000D01*
X582721Y135500D02*
Y142720D01*
X586000Y146000D01*
X693000Y482500D02*
Y482752D01*
X515000Y97500D02*
Y500000D01*
Y97500D02*
X710500D01*
Y500000D01*
X515000D02*
X710500D01*
D24*
X535382Y357000D02*
D03*
X520618D02*
D03*
X592882Y357500D02*
D03*
X578118D02*
D03*
D25*
X529181Y366260D02*
D03*
D26*
Y373740D02*
D03*
X521819Y370000D02*
D03*
D28*
X641000Y308854D02*
D03*
Y328146D02*
D03*
D33*
X702000Y366382D02*
D03*
Y351618D02*
D03*
X690500D02*
D03*
Y366382D02*
D03*
X642000Y384882D02*
D03*
Y370118D02*
D03*
X631000D02*
D03*
Y384882D02*
D03*
D35*
X662610Y387248D02*
D03*
X664579D02*
D03*
X666547D02*
D03*
X668516D02*
D03*
X670484D02*
D03*
X672453D02*
D03*
X674421D02*
D03*
X676390D02*
D03*
Y405752D02*
D03*
X674421D02*
D03*
X672453D02*
D03*
X670484D02*
D03*
X668516D02*
D03*
X666547D02*
D03*
X664579D02*
D03*
X662610D02*
D03*
D36*
X678752Y389610D02*
D03*
Y391579D02*
D03*
Y393547D02*
D03*
Y395516D02*
D03*
Y397484D02*
D03*
Y399453D02*
D03*
Y401421D02*
D03*
Y403390D02*
D03*
X660248D02*
D03*
Y401421D02*
D03*
Y399453D02*
D03*
Y397484D02*
D03*
Y395516D02*
D03*
Y393547D02*
D03*
Y391579D02*
D03*
Y389610D02*
D03*
D37*
X669500Y396500D02*
D03*
D38*
X618450Y131500D02*
D03*
X643550D02*
D03*
D44*
X527236Y330138D02*
D03*
D45*
X556764D02*
D03*
X527236Y251398D02*
D03*
X556764D02*
D03*
Y231713D02*
D03*
X527236D02*
D03*
D53*
X522039Y199000D02*
D03*
D54*
Y189000D02*
D03*
X551961D02*
D03*
Y199000D02*
D03*
D58*
X696600Y451150D02*
D03*
Y457450D02*
D03*
X704000Y432350D02*
D03*
Y438650D02*
D03*
X697500D02*
D03*
Y432350D02*
D03*
X539000Y366850D02*
D03*
Y373150D02*
D03*
X573500Y273850D02*
D03*
Y280150D02*
D03*
Y261350D02*
D03*
Y267650D02*
D03*
X615000Y358650D02*
D03*
Y352350D02*
D03*
X608500Y358650D02*
D03*
Y352350D02*
D03*
X602000Y358650D02*
D03*
Y352350D02*
D03*
X632000Y414650D02*
D03*
Y408350D02*
D03*
X656500Y432350D02*
D03*
Y438650D02*
D03*
X663000Y432350D02*
D03*
Y438650D02*
D03*
X656500Y453150D02*
D03*
Y446850D02*
D03*
X663000Y453150D02*
D03*
Y446850D02*
D03*
X636500Y362650D02*
D03*
Y356350D02*
D03*
X695500Y337850D02*
D03*
Y344150D02*
D03*
X629500Y356350D02*
D03*
Y362650D02*
D03*
X688500Y344150D02*
D03*
Y337850D02*
D03*
X641300Y482250D02*
D03*
Y475950D02*
D03*
D59*
X610658Y401850D02*
D03*
X602783D02*
D03*
X594909D02*
D03*
X587035D02*
D03*
X579161D02*
D03*
X571287D02*
D03*
D60*
X620500Y462874D02*
D03*
Y455000D02*
D03*
Y447126D02*
D03*
Y439252D02*
D03*
Y431378D02*
D03*
Y423504D02*
D03*
Y415630D02*
D03*
Y407756D02*
D03*
X561445D02*
D03*
Y415630D02*
D03*
Y423504D02*
D03*
Y431378D02*
D03*
Y439252D02*
D03*
Y447126D02*
D03*
Y455000D02*
D03*
Y462874D02*
D03*
D61*
X572547Y327063D02*
D03*
X574516D02*
D03*
X576484D02*
D03*
X578453D02*
D03*
X572547Y334937D02*
D03*
X574516D02*
D03*
X576484D02*
D03*
X578453D02*
D03*
Y303437D02*
D03*
X576484D02*
D03*
X574516D02*
D03*
X572547D02*
D03*
X578453Y295563D02*
D03*
X576484D02*
D03*
X574516D02*
D03*
X572547D02*
D03*
D62*
X575500Y331000D02*
D03*
Y299500D02*
D03*
D63*
X573128Y310568D02*
D03*
X579428D02*
D03*
X572350Y289500D02*
D03*
X578650D02*
D03*
Y321000D02*
D03*
X572350D02*
D03*
X571850Y339500D02*
D03*
X578150D02*
D03*
X603150Y338500D02*
D03*
X596850D02*
D03*
X580850Y390500D02*
D03*
X587150D02*
D03*
X592850D02*
D03*
X599150D02*
D03*
X611850Y385000D02*
D03*
X618150D02*
D03*
X563150Y356500D02*
D03*
X556850D02*
D03*
X563150Y363000D02*
D03*
X556850D02*
D03*
X556850Y369500D02*
D03*
X563150D02*
D03*
X556850Y376000D02*
D03*
X563150D02*
D03*
X556850Y382500D02*
D03*
X563150D02*
D03*
X563150Y389000D02*
D03*
X556850D02*
D03*
X563150Y350000D02*
D03*
X556850D02*
D03*
X611850Y379000D02*
D03*
X618150D02*
D03*
X671850Y463500D02*
D03*
X678150D02*
D03*
X690650D02*
D03*
X684350D02*
D03*
X685850Y402897D02*
D03*
X692150D02*
D03*
X674850Y417900D02*
D03*
X668550D02*
D03*
X678850Y377500D02*
D03*
X685150D02*
D03*
X692150Y388690D02*
D03*
X685850D02*
D03*
X692150Y395793D02*
D03*
X685850D02*
D03*
X647650Y397000D02*
D03*
X641350D02*
D03*
X641201Y404500D02*
D03*
X647500D02*
D03*
X659150Y377500D02*
D03*
X652850D02*
D03*
X641201Y410500D02*
D03*
X647500D02*
D03*
X685850Y410000D02*
D03*
X692150D02*
D03*
X538150Y448500D02*
D03*
X531850D02*
D03*
X537650Y472000D02*
D03*
X531350D02*
D03*
X592799Y154500D02*
D03*
X586500D02*
D03*
X531350Y494500D02*
D03*
X537650D02*
D03*
X537150Y481000D02*
D03*
X530850D02*
D03*
D64*
X608661Y318000D02*
D03*
X591339D02*
D03*
D65*
X611500Y236106D02*
D03*
Y186894D02*
D03*
D66*
X623531Y154500D02*
D03*
X642469D02*
D03*
D67*
X601516Y366323D02*
D03*
Y368882D02*
D03*
Y371441D02*
D03*
Y374000D02*
D03*
Y376559D02*
D03*
Y379118D02*
D03*
Y381677D02*
D03*
X578484Y366323D02*
D03*
Y368882D02*
D03*
Y371441D02*
D03*
Y374000D02*
D03*
Y376559D02*
D03*
Y379118D02*
D03*
Y381677D02*
D03*
D68*
X672750Y449874D02*
D03*
X675250D02*
D03*
X677750D02*
D03*
X680250D02*
D03*
X682750D02*
D03*
X685250D02*
D03*
X687750D02*
D03*
X690250D02*
D03*
Y429126D02*
D03*
X687750D02*
D03*
X685250D02*
D03*
X682750D02*
D03*
X680250D02*
D03*
X677750D02*
D03*
X675250D02*
D03*
X672750D02*
D03*
D69*
X521500Y481307D02*
D03*
Y494693D02*
D03*
X522000Y458307D02*
D03*
Y471693D02*
D03*
X521500Y435114D02*
D03*
Y448500D02*
D03*
D70*
X662701Y346673D02*
D03*
X675299D02*
D03*
X662701Y368327D02*
D03*
X675299D02*
D03*
D71*
X642315Y297685D02*
X683300Y256700D01*
X635442Y297685D02*
X642315D01*
X683300Y198300D02*
Y256700D01*
X677211Y192211D02*
X683300Y198300D01*
X677211Y192211D02*
X677211D01*
X671500Y186500D02*
X677211Y192211D01*
X670705Y296500D02*
X671500D01*
X602000Y292764D02*
X630521D01*
X635442Y297685D01*
X608661Y318000D02*
Y332791D01*
X603150Y338303D02*
Y338500D01*
Y338303D02*
X608661Y332791D01*
Y318000D02*
X622000D01*
X631146Y308854D01*
X641000D01*
X652354D01*
X660000Y316500D02*
X671500D01*
X652354Y308854D02*
X660000Y316500D01*
X580500Y177000D02*
Y253000D01*
X592000Y165500D02*
X642000D01*
X580500Y177000D02*
X592000Y165500D01*
X658000Y181500D02*
Y198500D01*
X654650Y226500D02*
X671500D01*
X615043Y186894D02*
X654650Y226500D01*
X642469Y165969D02*
X658000Y181500D01*
Y198500D02*
X665438Y205938D01*
X670938D01*
X671500Y206500D01*
X611500Y186894D02*
X615043D01*
X642000Y165500D02*
X642469Y165969D01*
X636000Y258315D02*
X659685D01*
X671500Y246500D01*
X611500Y236106D02*
X615043D01*
X634646Y255709D01*
Y256961D01*
X636000Y258315D01*
X590736Y263236D02*
X602000D01*
X580500Y253000D02*
X590736Y263236D01*
X642469Y154500D02*
Y165969D01*
X618450Y131500D02*
Y147450D01*
X623531Y152532D01*
Y154500D01*
X659500Y137500D02*
X670500Y148500D01*
X649550Y137500D02*
X659500D01*
X643550Y131500D02*
X649550Y137500D01*
D72*
X556764Y297736D02*
Y330138D01*
Y297736D02*
X563000Y291500D01*
X554000Y369500D02*
X556850D01*
X642000Y384882D02*
Y389500D01*
X641201Y407500D02*
Y410500D01*
Y404500D02*
Y407500D01*
X604823Y318000D02*
X608661D01*
X601823Y315000D02*
X604823Y318000D01*
X601000Y315000D02*
X601823D01*
X608661Y315859D02*
Y318000D01*
X579428Y310568D02*
X603371D01*
X608661Y315859D01*
X579476Y340524D02*
X583453Y344500D01*
X561445Y407756D02*
X563020D01*
X570000Y414736D01*
X561445Y447126D02*
X563020D01*
X570000Y440146D01*
Y414736D02*
Y440146D01*
X538150Y448500D02*
X545500D01*
X545625Y448375D01*
X546874Y447126D01*
X561445D01*
X537650Y472000D02*
Y472197D01*
X543000Y477547D01*
Y488953D01*
X537650Y494303D02*
Y494500D01*
Y494303D02*
X543000Y488953D01*
X652498Y482250D02*
X653000Y482752D01*
X641300Y482250D02*
X652498D01*
X659750Y453150D02*
Y459750D01*
X662000Y462000D01*
X663500Y463500D02*
X671850D01*
X662000Y462000D02*
X663500Y463500D01*
X693015Y460937D02*
X695381Y458571D01*
X690650Y463303D02*
X693015Y460937D01*
X659750Y453150D02*
X663000D01*
X656500D02*
X659750D01*
X670426Y449874D02*
X672750D01*
X663000Y453150D02*
X667150D01*
X670426Y449874D01*
X663000Y432350D02*
X666250D01*
X659750D02*
X663000D01*
X700750Y438650D02*
X704000D01*
X697500D02*
X700750D01*
X656500Y432350D02*
X659750D01*
X666250D02*
X669800Y428800D01*
X690650Y463303D02*
Y463500D01*
X695381Y458471D02*
Y458571D01*
Y458471D02*
X696403Y457450D01*
X696600D01*
X702000Y366382D02*
Y371300D01*
X702100Y371400D01*
X672750Y428857D02*
Y429126D01*
X672693Y428800D02*
X672750Y428857D01*
X669800Y428800D02*
X672693D01*
X653173Y388827D02*
X657400Y384600D01*
X653127Y388827D02*
X653173D01*
X657400Y384600D02*
X660234D01*
X662610Y386976D01*
Y387248D01*
X676245Y408555D02*
X676390Y408410D01*
X676100Y408700D02*
X676245Y408555D01*
X676390Y405752D02*
Y408410D01*
X670484Y384516D02*
Y387248D01*
Y384516D02*
X673100Y381900D01*
X539000Y373150D02*
X539372Y373522D01*
X583453Y344500D02*
X601000D01*
X603150Y338500D02*
Y342350D01*
X601000Y344500D02*
X603150Y342350D01*
X537978Y372128D02*
X539000Y373150D01*
X530237Y366260D02*
X536105Y372128D01*
X529181Y366260D02*
X530237D01*
X536105Y372128D02*
X537978D01*
X520618Y357000D02*
X521819Y358201D01*
Y370000D01*
X520618Y336756D02*
X527236Y330138D01*
X520618Y336756D02*
Y357000D01*
X587150Y390500D02*
X588000Y389650D01*
Y388000D02*
Y389650D01*
Y388000D02*
X590000Y386000D01*
X591829Y389478D02*
X592850Y390500D01*
X591829Y387829D02*
Y389478D01*
X590000Y386000D02*
X591829Y387829D01*
X590000Y376000D02*
Y386000D01*
X588000Y374000D02*
X590000Y376000D01*
X578484Y374000D02*
X588000D01*
D73*
X572350Y321000D02*
Y321197D01*
X569547Y324000D02*
X572350Y321197D01*
X569500Y324000D02*
X569547D01*
X572350Y289500D02*
Y289697D01*
X569547Y292500D02*
X572350Y289697D01*
X569500Y292500D02*
X569547D01*
D74*
X702500Y105500D02*
D03*
X523000D02*
D03*
X530000Y414500D02*
D03*
D75*
X673000Y472752D02*
D03*
Y482752D02*
D03*
X653000Y472752D02*
D03*
X663000Y482752D02*
D03*
Y472752D02*
D03*
X683000Y482752D02*
D03*
X693000D02*
D03*
X683000Y472752D02*
D03*
X693000D02*
D03*
D76*
X653000Y482752D02*
D03*
D77*
X636500Y453500D02*
D03*
Y429000D02*
D03*
D78*
Y463500D02*
D03*
Y439000D02*
D03*
D79*
X695500Y148500D02*
D03*
X554000Y149000D02*
D03*
X596500Y135500D02*
D03*
D80*
X670500Y148500D02*
D03*
X529000Y149000D02*
D03*
D81*
X602000Y292764D02*
D03*
Y263236D02*
D03*
D82*
X636000Y258315D02*
D03*
D83*
Y297685D02*
D03*
D84*
X671500Y186500D02*
D03*
D85*
Y206500D02*
D03*
Y226500D02*
D03*
Y246500D02*
D03*
Y316500D02*
D03*
Y296500D02*
D03*
D86*
X582721Y135500D02*
D03*
D87*
X569500Y324000D02*
D03*
X702500Y426500D02*
D03*
X696000D02*
D03*
X700000Y420000D02*
D03*
X705000Y410000D02*
D03*
X700000Y400000D02*
D03*
X705000Y390000D02*
D03*
X700000Y380000D02*
D03*
Y360000D02*
D03*
X705000Y330000D02*
D03*
X700000Y320000D02*
D03*
X705000Y310000D02*
D03*
X700000Y300000D02*
D03*
X690000Y420000D02*
D03*
Y360000D02*
D03*
X695000Y330000D02*
D03*
X690000Y320000D02*
D03*
X695000Y310000D02*
D03*
X690000Y300000D02*
D03*
X680000Y360000D02*
D03*
Y340000D02*
D03*
X685000Y330000D02*
D03*
X680000Y320000D02*
D03*
X685000Y310000D02*
D03*
X680000Y300000D02*
D03*
X670000Y360000D02*
D03*
Y340000D02*
D03*
X675000Y330000D02*
D03*
Y310000D02*
D03*
X660000Y360000D02*
D03*
Y340000D02*
D03*
X665000Y330000D02*
D03*
X660000Y320000D02*
D03*
X665000Y310000D02*
D03*
X650000Y360000D02*
D03*
Y340000D02*
D03*
X655000Y330000D02*
D03*
X650000Y320000D02*
D03*
X640000Y420000D02*
D03*
Y380000D02*
D03*
Y340000D02*
D03*
Y320000D02*
D03*
X630000Y440000D02*
D03*
Y420000D02*
D03*
X635000Y390000D02*
D03*
X630000Y380000D02*
D03*
Y340000D02*
D03*
X635000Y330000D02*
D03*
X630000Y320000D02*
D03*
X625000Y490000D02*
D03*
X620000Y480000D02*
D03*
X625000Y390000D02*
D03*
Y370000D02*
D03*
X620000Y340000D02*
D03*
X625000Y330000D02*
D03*
X615000Y490000D02*
D03*
X610000Y480000D02*
D03*
Y460000D02*
D03*
Y420000D02*
D03*
X615000Y390000D02*
D03*
X610000Y340000D02*
D03*
X615000Y330000D02*
D03*
X605000Y490000D02*
D03*
X600000Y480000D02*
D03*
X605000Y470000D02*
D03*
X600000Y460000D02*
D03*
X605000Y450000D02*
D03*
X600000Y440000D02*
D03*
X605000Y430000D02*
D03*
Y410000D02*
D03*
Y390000D02*
D03*
Y330000D02*
D03*
X600000Y320000D02*
D03*
X595000Y490000D02*
D03*
X590000Y480000D02*
D03*
X595000Y470000D02*
D03*
Y450000D02*
D03*
X590000Y440000D02*
D03*
Y420000D02*
D03*
X595000Y410000D02*
D03*
Y350000D02*
D03*
X590000Y340000D02*
D03*
X595000Y330000D02*
D03*
X585000Y490000D02*
D03*
X580000Y480000D02*
D03*
X585000Y470000D02*
D03*
X580000Y460000D02*
D03*
X585000Y450000D02*
D03*
Y430000D02*
D03*
X580000Y420000D02*
D03*
X585000Y410000D02*
D03*
Y350000D02*
D03*
X575000Y490000D02*
D03*
X570000Y480000D02*
D03*
X575000Y470000D02*
D03*
X570000Y460000D02*
D03*
X575000Y430000D02*
D03*
Y410000D02*
D03*
Y350000D02*
D03*
X570000Y300000D02*
D03*
X565000Y490000D02*
D03*
X560000Y480000D02*
D03*
X565000Y470000D02*
D03*
X560000Y320000D02*
D03*
X555000Y490000D02*
D03*
X550000Y480000D02*
D03*
X555000Y470000D02*
D03*
X550000Y460000D02*
D03*
Y440000D02*
D03*
X555000Y430000D02*
D03*
X550000Y420000D02*
D03*
X555000Y410000D02*
D03*
X550000Y400000D02*
D03*
Y340000D02*
D03*
Y320000D02*
D03*
X540000Y460000D02*
D03*
X545000Y430000D02*
D03*
Y410000D02*
D03*
Y390000D02*
D03*
Y370000D02*
D03*
X535000Y490000D02*
D03*
X530000Y460000D02*
D03*
Y440000D02*
D03*
X535000Y430000D02*
D03*
X530000Y400000D02*
D03*
X535000Y390000D02*
D03*
X530000Y380000D02*
D03*
Y360000D02*
D03*
X535000Y350000D02*
D03*
X530000Y340000D02*
D03*
X535000Y330000D02*
D03*
X530000Y320000D02*
D03*
X525000Y490000D02*
D03*
X520000Y440000D02*
D03*
X525000Y430000D02*
D03*
X520000Y420000D02*
D03*
Y400000D02*
D03*
X525000Y390000D02*
D03*
X520000Y380000D02*
D03*
Y320000D02*
D03*
X563000Y291500D02*
D03*
X569500Y292500D02*
D03*
X582000Y278000D02*
D03*
X561500Y280000D02*
D03*
X561000Y301500D02*
D03*
X583000Y292000D02*
D03*
D88*
X528900Y357300D02*
D03*
X543000Y477547D02*
D03*
X546262Y362439D02*
D03*
X554000Y369500D02*
D03*
X567000Y363000D02*
D03*
X571382Y379118D02*
D03*
X590000Y386000D02*
D03*
X599000Y361500D02*
D03*
X601000Y315000D02*
D03*
X618000Y335000D02*
D03*
X633400Y398600D02*
D03*
X636100Y401200D02*
D03*
X642000Y389500D02*
D03*
X653127Y388827D02*
D03*
X653750Y418050D02*
D03*
X652300Y436400D02*
D03*
X650331Y439000D02*
D03*
X652000Y454000D02*
D03*
Y460000D02*
D03*
X657600Y411700D02*
D03*
X659750Y453150D02*
D03*
X662000Y462000D02*
D03*
X666400Y379700D02*
D03*
X670400Y381700D02*
D03*
X667400Y395500D02*
D03*
X670000D02*
D03*
X669800Y402100D02*
D03*
X667200D02*
D03*
X668500Y409500D02*
D03*
X666547Y409453D02*
D03*
X667900Y430700D02*
D03*
X673100Y381900D02*
D03*
X675200Y434200D02*
D03*
X677500Y459500D02*
D03*
X678150Y467350D02*
D03*
X681700Y353800D02*
D03*
X682700Y357900D02*
D03*
X684731Y380569D02*
D03*
X682000Y388900D02*
D03*
X681471Y397436D02*
D03*
X681500Y395500D02*
D03*
X682500Y410300D02*
D03*
X682600Y421000D02*
D03*
X693015Y460937D02*
D03*
X690000Y459000D02*
D03*
X692000Y457000D02*
D03*
X702000Y371300D02*
D03*
X700750Y438650D02*
D03*
X548100Y360600D02*
D03*
X545625Y448375D02*
D03*
X596500Y376500D02*
D03*
X641201Y407500D02*
D03*
X659750Y432350D02*
D03*
X676245Y408555D02*
D03*
X677700Y455200D02*
D03*
X686500Y384600D02*
D03*
X682700Y455200D02*
D03*
X689100Y376200D02*
D03*
X692100Y399200D02*
D03*
X689000Y392100D02*
D03*
X607800Y385000D02*
D03*
X656100Y373200D02*
D03*
X648500Y378000D02*
D03*
X664800Y395500D02*
D03*
X672800D02*
D03*
X664600Y402100D02*
D03*
X672700Y401900D02*
D03*
X655142Y419442D02*
D03*
X648000Y454000D02*
D03*
Y460000D02*
D03*
X656000D02*
D03*
X560500Y343500D02*
D03*
X680300Y423500D02*
D03*
D89*
X573531Y331000D02*
D03*
X577468D02*
D03*
Y299500D02*
D03*
X573531D02*
D03*
M02*
