G04*
G04 #@! TF.GenerationSoftware,Altium Limited,Altium Designer,20.2.8 (258)*
G04*
G04 Layer_Physical_Order=2*
G04 Layer_Color=16711680*
%FSLAX25Y25*%
%MOIN*%
G70*
G04*
G04 #@! TF.SameCoordinates,1A047D9A-836D-465F-8526-38319891AFC0*
G04*
G04*
G04 #@! TF.FilePolarity,Positive*
G04*
G01*
G75*
%ADD15C,0.01000*%
%ADD44R,0.07874X0.07874*%
%ADD45C,0.07874*%
%ADD53R,0.05118X0.05118*%
%ADD54C,0.05118*%
%ADD58R,0.03937X0.03543*%
%ADD71C,0.03000*%
%ADD72C,0.01500*%
%ADD73C,0.02000*%
%ADD74C,0.06000*%
%ADD75C,0.06496*%
%ADD76R,0.06496X0.06496*%
%ADD77R,0.06299X0.06299*%
%ADD78C,0.06299*%
%ADD79C,0.07087*%
%ADD80R,0.07087X0.07087*%
%ADD81C,0.05150*%
%ADD82R,0.05709X0.05709*%
%ADD83C,0.05709*%
%ADD84R,0.05937X0.05937*%
%ADD85C,0.05937*%
%ADD86R,0.07087X0.07087*%
%ADD87C,0.02000*%
%ADD88C,0.01000*%
%ADD89C,0.01968*%
%ADD90C,0.20000*%
G36*
X709851Y445649D02*
X632649D01*
Y449292D01*
X632750Y449750D01*
X633149Y449750D01*
X640250D01*
Y457250D01*
X633149D01*
X632750Y457250D01*
X632649Y457708D01*
Y461691D01*
X633149Y461791D01*
X633225Y461609D01*
X633826Y460826D01*
X634609Y460225D01*
X635521Y459847D01*
X636500Y459718D01*
X637479Y459847D01*
X638391Y460225D01*
X639174Y460826D01*
X639775Y461609D01*
X640153Y462521D01*
X640282Y463500D01*
X640153Y464479D01*
X639775Y465391D01*
X639174Y466174D01*
X638391Y466775D01*
X637479Y467153D01*
X636500Y467282D01*
X635521Y467153D01*
X634609Y466775D01*
X633826Y466174D01*
X633225Y465391D01*
X633149Y465209D01*
X632649Y465309D01*
Y499351D01*
X709851Y499351D01*
X709851Y445649D01*
D02*
G37*
G36*
X630000Y442500D02*
X634081D01*
X634250Y442000D01*
X633826Y441674D01*
X633225Y440891D01*
X632847Y439979D01*
X632718Y439000D01*
X632847Y438021D01*
X633225Y437109D01*
X633826Y436326D01*
X634609Y435725D01*
X635521Y435347D01*
X636500Y435218D01*
X637479Y435347D01*
X638391Y435725D01*
X639174Y436326D01*
X639775Y437109D01*
X640153Y438021D01*
X640282Y439000D01*
X640153Y439979D01*
X639775Y440891D01*
X639174Y441674D01*
X638750Y442000D01*
X638919Y442500D01*
X709851D01*
X709851Y290000D01*
X670000D01*
X650000Y310000D01*
X600000D01*
X591338Y301338D01*
X590876Y301530D01*
Y310430D01*
X594070Y313623D01*
X601000D01*
X601527Y313728D01*
X601973Y314027D01*
X602272Y314473D01*
X602377Y315000D01*
X602272Y315527D01*
X601973Y315973D01*
X601527Y316272D01*
X601000Y316376D01*
X593500D01*
X592973Y316272D01*
X592527Y315973D01*
X592527Y315973D01*
X588527Y311973D01*
X588228Y311527D01*
X588124Y311000D01*
Y298124D01*
X585000Y295000D01*
Y291447D01*
X580430Y286877D01*
X569570D01*
X564553Y291894D01*
X564507Y292124D01*
X564153Y292653D01*
X563624Y293007D01*
X563000Y293131D01*
X562376Y293007D01*
X561846Y292653D01*
X561493Y292124D01*
X561369Y291500D01*
X561493Y290876D01*
X561846Y290347D01*
X562376Y289993D01*
X562606Y289947D01*
X568027Y284527D01*
X568473Y284228D01*
X569000Y284123D01*
X581000D01*
X581527Y284228D01*
X581973Y284527D01*
X584538Y287091D01*
X585000Y286900D01*
Y275000D01*
X580000Y270000D01*
X560000D01*
X555000Y275000D01*
Y300000D01*
X545000Y310000D01*
X515649D01*
X515649Y499351D01*
X630000Y499351D01*
Y442500D01*
D02*
G37*
%LPC*%
G36*
X693500Y486971D02*
Y483252D01*
X697219D01*
X697139Y483861D01*
X696711Y484894D01*
X696030Y485782D01*
X695142Y486463D01*
X694109Y486891D01*
X693500Y486971D01*
D02*
G37*
G36*
X692500D02*
X691891Y486891D01*
X690858Y486463D01*
X689970Y485782D01*
X689289Y484894D01*
X688861Y483861D01*
X688781Y483252D01*
X692500D01*
Y486971D01*
D02*
G37*
G36*
X656848Y486600D02*
X649152D01*
Y482376D01*
X648000D01*
X648000Y482376D01*
X647473Y482272D01*
X647027Y481973D01*
X645027Y479973D01*
X644728Y479527D01*
X644624Y479000D01*
Y470000D01*
X644728Y469473D01*
X645027Y469027D01*
X648027Y466027D01*
X648473Y465728D01*
X649000Y465624D01*
X656430D01*
X661027Y461027D01*
X672027Y450027D01*
X672473Y449728D01*
X673000Y449623D01*
X691000D01*
X691527Y449728D01*
X691973Y450027D01*
X695973Y454027D01*
X695973Y454027D01*
X696272Y454473D01*
X696377Y455000D01*
Y458953D01*
X696377Y458953D01*
X696272Y459480D01*
X695973Y459926D01*
X695973Y459926D01*
X693989Y461910D01*
X693542Y462209D01*
X693015Y462314D01*
X692489Y462209D01*
X692042Y461910D01*
X691744Y461464D01*
X691639Y460937D01*
X691744Y460410D01*
X692042Y459964D01*
X693623Y458383D01*
Y455570D01*
X690430Y452377D01*
X673570D01*
X662973Y462973D01*
X657973Y467973D01*
X657527Y468272D01*
X657000Y468376D01*
X653076D01*
X653043Y468876D01*
X653427Y468927D01*
X654004Y469003D01*
X654941Y469391D01*
X655744Y470008D01*
X655899Y470208D01*
X656562Y470252D01*
X672407Y454407D01*
X672407Y454407D01*
X672771Y454164D01*
X673200Y454078D01*
X673200Y454078D01*
X677700D01*
X678129Y454164D01*
X678493Y454407D01*
X678736Y454771D01*
X678822Y455200D01*
X678736Y455629D01*
X678493Y455993D01*
X678129Y456236D01*
X677700Y456322D01*
X673665D01*
X661191Y468795D01*
X661475Y469219D01*
X661996Y469003D01*
X663000Y468871D01*
X664005Y469003D01*
X664941Y469391D01*
X665744Y470008D01*
X666361Y470811D01*
X666749Y471747D01*
X666881Y472752D01*
X666749Y473757D01*
X666361Y474693D01*
X665744Y475496D01*
X664941Y476113D01*
X664005Y476501D01*
X663000Y476633D01*
X661996Y476501D01*
X661059Y476113D01*
X660256Y475496D01*
X659639Y474693D01*
X659251Y473757D01*
X659119Y472752D01*
X659251Y471747D01*
X659467Y471227D01*
X659043Y470943D01*
X657474Y472512D01*
X657111Y472755D01*
X656875Y472802D01*
X656749Y473757D01*
X656361Y474693D01*
X655744Y475496D01*
X654941Y476113D01*
X654004Y476501D01*
X653000Y476633D01*
X651996Y476501D01*
X651059Y476113D01*
X650256Y475496D01*
X649639Y474693D01*
X649251Y473757D01*
X649119Y472752D01*
X649251Y471747D01*
X649639Y470811D01*
X650256Y470008D01*
X651059Y469391D01*
X651996Y469003D01*
X652957Y468876D01*
X652924Y468376D01*
X649570D01*
X647376Y470570D01*
Y478430D01*
X648570Y479624D01*
X649152D01*
Y478904D01*
X656848D01*
Y486600D01*
D02*
G37*
G36*
X683000Y486633D02*
X681995Y486501D01*
X681059Y486113D01*
X680256Y485496D01*
X679639Y484693D01*
X679251Y483756D01*
X679119Y482752D01*
X679251Y481747D01*
X679639Y480811D01*
X680256Y480008D01*
X681059Y479391D01*
X681995Y479003D01*
X683000Y478871D01*
X684004Y479003D01*
X684941Y479391D01*
X685744Y480008D01*
X686361Y480811D01*
X686749Y481747D01*
X686881Y482752D01*
X686749Y483756D01*
X686361Y484693D01*
X685744Y485496D01*
X684941Y486113D01*
X684004Y486501D01*
X683000Y486633D01*
D02*
G37*
G36*
X697219Y482252D02*
X693500D01*
Y478533D01*
X694109Y478613D01*
X695142Y479041D01*
X696030Y479722D01*
X696711Y480610D01*
X697139Y481643D01*
X697219Y482252D01*
D02*
G37*
G36*
X692500D02*
X688781D01*
X688861Y481643D01*
X689289Y480610D01*
X689970Y479722D01*
X690858Y479041D01*
X691891Y478613D01*
X692500Y478533D01*
Y482252D01*
D02*
G37*
G36*
X673000Y486633D02*
X671995Y486501D01*
X671059Y486113D01*
X670256Y485496D01*
X669639Y484693D01*
X669251Y483756D01*
X669119Y482752D01*
X669251Y481747D01*
X669639Y480811D01*
X670256Y480008D01*
X671059Y479391D01*
X671995Y479003D01*
X673000Y478871D01*
X674005Y479003D01*
X674824Y479342D01*
X677028Y477138D01*
Y474389D01*
X676528Y474290D01*
X676361Y474693D01*
X675744Y475496D01*
X674941Y476113D01*
X674005Y476501D01*
X673000Y476633D01*
X671995Y476501D01*
X671059Y476113D01*
X670273Y475510D01*
X670094Y475537D01*
X669773Y475646D01*
Y477100D01*
X669688Y477529D01*
X669445Y477893D01*
X669445Y477893D01*
X666410Y480928D01*
X666749Y481747D01*
X666881Y482752D01*
X666749Y483756D01*
X666361Y484693D01*
X665744Y485496D01*
X664941Y486113D01*
X664005Y486501D01*
X663000Y486633D01*
X661996Y486501D01*
X661059Y486113D01*
X660256Y485496D01*
X659639Y484693D01*
X659251Y483756D01*
X659119Y482752D01*
X659251Y481747D01*
X659639Y480811D01*
X660256Y480008D01*
X661059Y479391D01*
X661996Y479003D01*
X663000Y478871D01*
X664005Y479003D01*
X664824Y479342D01*
X667530Y476635D01*
Y468348D01*
X667530Y468348D01*
X667616Y467919D01*
X667859Y467555D01*
X676707Y458707D01*
X676707Y458707D01*
X677071Y458464D01*
X677500Y458378D01*
X677929Y458464D01*
X678293Y458707D01*
X678536Y459071D01*
X678622Y459500D01*
X678536Y459929D01*
X678293Y460293D01*
X678293Y460293D01*
X669773Y468813D01*
Y469858D01*
X670094Y469967D01*
X670273Y469994D01*
X671059Y469391D01*
X671995Y469003D01*
X673000Y468871D01*
X674005Y469003D01*
X674941Y469391D01*
X675744Y470008D01*
X676361Y470811D01*
X676528Y471214D01*
X677028Y471115D01*
Y467350D01*
X677113Y466921D01*
X677356Y466557D01*
X677720Y466314D01*
X678150Y466229D01*
X678579Y466314D01*
X678943Y466557D01*
X679186Y466921D01*
X679271Y467350D01*
Y470469D01*
X679771Y470639D01*
X680256Y470008D01*
X681059Y469391D01*
X681995Y469003D01*
X683000Y468871D01*
X684004Y469003D01*
X684941Y469391D01*
X685744Y470008D01*
X686361Y470811D01*
X686749Y471747D01*
X686881Y472752D01*
X686749Y473757D01*
X686361Y474693D01*
X685744Y475496D01*
X684941Y476113D01*
X684004Y476501D01*
X683000Y476633D01*
X681995Y476501D01*
X681059Y476113D01*
X680256Y475496D01*
X679771Y474865D01*
X679271Y475035D01*
Y477602D01*
X679186Y478032D01*
X678943Y478395D01*
X678943Y478395D01*
X676410Y480928D01*
X676749Y481747D01*
X676881Y482752D01*
X676749Y483756D01*
X676361Y484693D01*
X675744Y485496D01*
X674941Y486113D01*
X674005Y486501D01*
X673000Y486633D01*
D02*
G37*
G36*
X693000Y476633D02*
X691995Y476501D01*
X691059Y476113D01*
X690256Y475496D01*
X689639Y474693D01*
X689251Y473757D01*
X689119Y472752D01*
X689251Y471747D01*
X689639Y470811D01*
X690197Y470083D01*
X681907Y461793D01*
X681664Y461429D01*
X681578Y461000D01*
X681578Y461000D01*
Y455200D01*
X681664Y454771D01*
X681907Y454407D01*
X682271Y454164D01*
X682700Y454078D01*
X683129Y454164D01*
X683493Y454407D01*
X683736Y454771D01*
X683822Y455200D01*
Y460535D01*
X692255Y468969D01*
X693000Y468871D01*
X694004Y469003D01*
X694941Y469391D01*
X695744Y470008D01*
X696361Y470811D01*
X696749Y471747D01*
X696881Y472752D01*
X696749Y473757D01*
X696361Y474693D01*
X695744Y475496D01*
X694941Y476113D01*
X694004Y476501D01*
X693000Y476633D01*
D02*
G37*
G36*
X659750Y454271D02*
X659321Y454186D01*
X658957Y453943D01*
X658714Y453579D01*
X658628Y453150D01*
X658714Y452720D01*
X658957Y452356D01*
X659321Y452113D01*
X659750Y452028D01*
X660179Y452113D01*
X660543Y452356D01*
X660786Y452720D01*
X660872Y453150D01*
X660786Y453579D01*
X660543Y453943D01*
X660179Y454186D01*
X659750Y454271D01*
D02*
G37*
G36*
X640250Y432750D02*
X632750D01*
Y425250D01*
X640250D01*
Y432750D01*
D02*
G37*
G36*
X650331Y440122D02*
X649902Y440036D01*
X649538Y439793D01*
X649295Y439429D01*
X649210Y439000D01*
Y421468D01*
X649210Y421468D01*
X649295Y421039D01*
X649538Y420675D01*
X652957Y417257D01*
X652957Y417257D01*
X653321Y417014D01*
X653750Y416928D01*
X654179Y417014D01*
X654543Y417257D01*
X654786Y417621D01*
X654836Y417871D01*
X655032Y418160D01*
X655321Y418356D01*
X655571Y418406D01*
X655935Y418649D01*
X656178Y419013D01*
X656263Y419442D01*
X656178Y419871D01*
X655935Y420235D01*
X653422Y422748D01*
Y436400D01*
X653336Y436829D01*
X653093Y437193D01*
X652729Y437436D01*
X652300Y437522D01*
X651953Y437453D01*
X651656Y437602D01*
X651453Y437758D01*
Y439000D01*
X651368Y439429D01*
X651125Y439793D01*
X650761Y440036D01*
X650331Y440122D01*
D02*
G37*
G36*
X530000Y421132D02*
X528706Y421004D01*
X527462Y420627D01*
X526315Y420014D01*
X525311Y419190D01*
X524486Y418185D01*
X523873Y417038D01*
X523495Y415794D01*
X523368Y414500D01*
X523495Y413206D01*
X523873Y411962D01*
X524486Y410815D01*
X525311Y409810D01*
X526315Y408986D01*
X527462Y408373D01*
X528706Y407996D01*
X530000Y407868D01*
X531294Y407996D01*
X532538Y408373D01*
X533684Y408986D01*
X534690Y409810D01*
X535514Y410815D01*
X536127Y411962D01*
X536505Y413206D01*
X536632Y414500D01*
X536505Y415794D01*
X536127Y417038D01*
X535514Y418185D01*
X534690Y419190D01*
X533684Y420014D01*
X532538Y420627D01*
X531294Y421004D01*
X530000Y421132D01*
D02*
G37*
G36*
X543000Y478924D02*
X542473Y478819D01*
X542027Y478520D01*
X541728Y478074D01*
X541623Y477547D01*
X541728Y477021D01*
X542027Y476574D01*
X544248Y474352D01*
Y449306D01*
X540846Y445903D01*
X540493Y445374D01*
X540369Y444750D01*
Y353000D01*
X540493Y352376D01*
X540846Y351847D01*
X557582Y335110D01*
X557349Y334637D01*
X556764Y334714D01*
X555579Y334558D01*
X554668Y334180D01*
X551675Y337173D01*
X551228Y337472D01*
X550702Y337577D01*
X530970D01*
X527277Y341270D01*
Y353730D01*
X529873Y356327D01*
X530172Y356773D01*
X530276Y357300D01*
X530172Y357827D01*
X529873Y358273D01*
X529427Y358572D01*
X528900Y358677D01*
X528373Y358572D01*
X527927Y358273D01*
X524927Y355273D01*
X524628Y354827D01*
X524523Y354300D01*
Y340700D01*
X524628Y340173D01*
X524927Y339727D01*
X529427Y335227D01*
X529504Y335175D01*
X529353Y334675D01*
X522699D01*
Y325601D01*
X531773D01*
Y334324D01*
X531773Y334675D01*
X532212Y334823D01*
X550131D01*
X552721Y332234D01*
X552344Y331322D01*
X552188Y330138D01*
X552344Y328953D01*
X552801Y327850D01*
X553528Y326902D01*
X554476Y326175D01*
X555579Y325718D01*
X556764Y325562D01*
X557948Y325718D01*
X559052Y326175D01*
X560000Y326902D01*
X560727Y327850D01*
X561184Y328953D01*
X561340Y330138D01*
X561263Y330723D01*
X561736Y330956D01*
X564369Y328324D01*
Y296000D01*
X564493Y295376D01*
X564847Y294847D01*
X568347Y291347D01*
X568876Y290993D01*
X569500Y290869D01*
X570124Y290993D01*
X570653Y291347D01*
X571007Y291876D01*
X571131Y292500D01*
X571007Y293124D01*
X570653Y293653D01*
X567631Y296676D01*
Y323017D01*
X568131Y323168D01*
X568347Y322847D01*
X568876Y322493D01*
X569500Y322369D01*
X569524Y322373D01*
X569547Y322369D01*
X570171Y322493D01*
X570701Y322847D01*
X571054Y323376D01*
X571179Y324000D01*
Y330453D01*
X571054Y331077D01*
X570701Y331606D01*
X568916Y333391D01*
X568942Y333540D01*
X569136Y333878D01*
X618000D01*
X618429Y333964D01*
X618793Y334207D01*
X619036Y334571D01*
X619122Y335000D01*
X619036Y335429D01*
X618793Y335793D01*
X618429Y336036D01*
X618000Y336122D01*
X569465D01*
X561293Y344293D01*
X560929Y344536D01*
X560500Y344622D01*
X560071Y344536D01*
X559707Y344293D01*
X559464Y343929D01*
X559401Y343613D01*
X559077Y343448D01*
X558891Y343416D01*
X555631Y346676D01*
Y369500D01*
Y384324D01*
X560676Y389369D01*
X584324D01*
X588846Y384846D01*
X589376Y384493D01*
X590000Y384369D01*
X606899D01*
X607007Y384207D01*
X607371Y383964D01*
X607800Y383878D01*
X608229Y383964D01*
X608593Y384207D01*
X608701Y384369D01*
X634869D01*
Y365000D01*
X634993Y364376D01*
X635347Y363846D01*
X650347Y348847D01*
X650876Y348493D01*
X651500Y348369D01*
X685000D01*
X685624Y348493D01*
X686154Y348847D01*
X703154Y365846D01*
X703507Y366376D01*
X703631Y367000D01*
Y371300D01*
X703507Y371924D01*
X703154Y372453D01*
X702624Y372807D01*
X702000Y372931D01*
X701376Y372807D01*
X700846Y372453D01*
X700493Y371924D01*
X700369Y371300D01*
Y367676D01*
X684324Y351631D01*
X652176D01*
X638131Y365676D01*
Y384369D01*
X655432D01*
Y382979D01*
X660569D01*
Y383974D01*
X661432D01*
Y382979D01*
X666569D01*
Y383974D01*
X667431D01*
Y382979D01*
X667434D01*
X667590Y382540D01*
X667593Y382479D01*
X665607Y380493D01*
X665364Y380129D01*
X665278Y379700D01*
X665364Y379271D01*
X665607Y378907D01*
X665971Y378664D01*
X666400Y378578D01*
X666829Y378664D01*
X667193Y378907D01*
X668865Y380578D01*
X670400D01*
X670829Y380664D01*
X671193Y380907D01*
X671389Y381200D01*
X671400Y381204D01*
X671718Y381239D01*
X671935Y381214D01*
X672127Y380927D01*
X672573Y380628D01*
X673100Y380523D01*
X673627Y380628D01*
X674073Y380927D01*
X674372Y381373D01*
X674476Y381900D01*
Y382979D01*
X676939D01*
X677131Y382517D01*
X672635Y378022D01*
X659800D01*
X659800Y378022D01*
X659371Y377936D01*
X659007Y377693D01*
X655307Y373993D01*
X655064Y373629D01*
X655047Y373546D01*
X654505Y373381D01*
X649556Y378330D01*
X649536Y378429D01*
X649293Y378793D01*
X648929Y379036D01*
X648500Y379121D01*
X648071Y379036D01*
X647707Y378793D01*
X647464Y378429D01*
X647378Y378000D01*
Y377800D01*
X647378Y377800D01*
X647464Y377371D01*
X647707Y377007D01*
X655007Y369707D01*
X655007Y369707D01*
X655371Y369464D01*
X655800Y369378D01*
X655800Y369378D01*
X657800D01*
X657800Y369378D01*
X658229Y369464D01*
X658593Y369707D01*
X662765Y373879D01*
X673463D01*
X673463Y373878D01*
X673892Y373964D01*
X674256Y374207D01*
X681123Y381074D01*
X681584Y380828D01*
X681578Y380800D01*
X681578Y380800D01*
Y357900D01*
X681664Y357471D01*
X681907Y357107D01*
X682271Y356864D01*
X682437Y356831D01*
X682602Y356288D01*
X680907Y354593D01*
X680664Y354229D01*
X680578Y353800D01*
X680664Y353371D01*
X680907Y353007D01*
X681271Y352764D01*
X681700Y352678D01*
X682129Y352764D01*
X682493Y353007D01*
X685293Y355807D01*
X685293Y355807D01*
X685536Y356171D01*
X685622Y356600D01*
X685622Y356600D01*
Y371135D01*
X689893Y375407D01*
X689893Y375407D01*
X690136Y375771D01*
X690222Y376200D01*
X690136Y376629D01*
X689893Y376993D01*
X689529Y377236D01*
X689100Y377322D01*
X688671Y377236D01*
X688307Y376993D01*
X688307Y376993D01*
X684283Y372970D01*
X683822Y373161D01*
Y379252D01*
X684299Y379531D01*
X684322Y379528D01*
X684731Y379447D01*
X690668D01*
X690668Y379447D01*
X691098Y379532D01*
X691462Y379776D01*
X698193Y386507D01*
X698193Y386507D01*
X698436Y386871D01*
X698522Y387300D01*
Y406100D01*
X698436Y406529D01*
X698193Y406893D01*
X698193Y406893D01*
X686093Y418993D01*
X686050Y419022D01*
X685822Y419250D01*
Y431700D01*
X685736Y432129D01*
X685493Y432493D01*
X685493Y432493D01*
X682993Y434993D01*
X682629Y435236D01*
X682200Y435322D01*
X682200Y435322D01*
X675200D01*
X675169Y435315D01*
X674923Y435776D01*
X676420Y437273D01*
X700750D01*
X701277Y437378D01*
X701723Y437676D01*
X702022Y438123D01*
X702127Y438650D01*
X702022Y439176D01*
X701723Y439623D01*
X701277Y439921D01*
X700750Y440026D01*
X675850D01*
X675323Y439921D01*
X674876Y439623D01*
X666927Y431673D01*
X666628Y431227D01*
X666524Y430700D01*
X666628Y430173D01*
X666927Y429727D01*
X667373Y429428D01*
X667900Y429323D01*
X668427Y429428D01*
X668873Y429727D01*
X673624Y434477D01*
X674085Y434231D01*
X674078Y434200D01*
X674164Y433771D01*
X674407Y433407D01*
X674771Y433164D01*
X675200Y433078D01*
X681735D01*
X683578Y431235D01*
Y422270D01*
X683078Y422003D01*
X683029Y422036D01*
X682600Y422122D01*
X682171Y422036D01*
X681922Y421870D01*
X681526Y422011D01*
X681422Y422091D01*
Y423500D01*
X681336Y423929D01*
X681093Y424293D01*
X680729Y424536D01*
X680300Y424622D01*
X679871Y424536D01*
X679507Y424293D01*
X679264Y423929D01*
X679178Y423500D01*
Y416065D01*
X678335Y415222D01*
X660000D01*
X659670Y415156D01*
X659425Y415459D01*
X659375Y415568D01*
X660653Y416847D01*
X661007Y417376D01*
X661131Y418000D01*
Y431538D01*
X661257Y431726D01*
X661381Y432350D01*
X661257Y432975D01*
X660904Y433504D01*
X660374Y433858D01*
X659750Y433982D01*
X659126Y433858D01*
X658597Y433504D01*
X658347Y433254D01*
X657993Y432725D01*
X657869Y432100D01*
Y418676D01*
X647824Y408631D01*
X617176D01*
X576278Y449529D01*
X575749Y449882D01*
X575125Y450006D01*
X547002D01*
Y474922D01*
X546897Y475449D01*
X546598Y475896D01*
X543973Y478520D01*
X543527Y478819D01*
X543000Y478924D01*
D02*
G37*
G36*
X571382Y380240D02*
X570953Y380154D01*
X570589Y379911D01*
X570346Y379547D01*
X570260Y379118D01*
Y367846D01*
X566207Y363793D01*
X565964Y363429D01*
X565878Y363000D01*
X565964Y362571D01*
X566207Y362207D01*
X566571Y361964D01*
X567000Y361878D01*
X567429Y361964D01*
X567793Y362207D01*
X572175Y366589D01*
X572175Y366589D01*
X572418Y366953D01*
X572503Y367382D01*
X572503Y367382D01*
Y379118D01*
X572418Y379547D01*
X572175Y379911D01*
X571811Y380154D01*
X571382Y380240D01*
D02*
G37*
G36*
X596500Y377622D02*
X596071Y377536D01*
X595707Y377293D01*
X594207Y375793D01*
X593964Y375429D01*
X593878Y375000D01*
X593878Y375000D01*
Y365500D01*
X593878Y365500D01*
X593964Y365071D01*
X594207Y364707D01*
X598207Y360707D01*
X598207Y360707D01*
X598571Y360464D01*
X599000Y360379D01*
X599429Y360464D01*
X599793Y360707D01*
X600036Y361071D01*
X600122Y361500D01*
X600036Y361929D01*
X599793Y362293D01*
X599793Y362293D01*
X596122Y365965D01*
Y374535D01*
X597293Y375707D01*
X597536Y376071D01*
X597622Y376500D01*
X597536Y376929D01*
X597293Y377293D01*
X596929Y377536D01*
X596500Y377622D01*
D02*
G37*
G36*
X671500Y320099D02*
X670568Y319977D01*
X669700Y319617D01*
X668955Y319045D01*
X668383Y318300D01*
X668023Y317432D01*
X667901Y316500D01*
X668023Y315568D01*
X668383Y314700D01*
X668955Y313955D01*
X669700Y313383D01*
X670568Y313023D01*
X671500Y312901D01*
X672432Y313023D01*
X673300Y313383D01*
X674045Y313955D01*
X674617Y314700D01*
X674977Y315568D01*
X675099Y316500D01*
X674977Y317432D01*
X674617Y318300D01*
X674045Y319045D01*
X673300Y319617D01*
X672432Y319977D01*
X671500Y320099D01*
D02*
G37*
G36*
X672000Y300437D02*
Y297000D01*
X675437D01*
X675366Y297536D01*
X674966Y298501D01*
X674330Y299330D01*
X673501Y299967D01*
X672536Y300366D01*
X672000Y300437D01*
D02*
G37*
G36*
X671000D02*
X670464Y300366D01*
X669499Y299967D01*
X668670Y299330D01*
X668034Y298501D01*
X667634Y297536D01*
X667563Y297000D01*
X671000D01*
Y300437D01*
D02*
G37*
G36*
X675437Y296000D02*
X672000D01*
Y292563D01*
X672536Y292634D01*
X673501Y293034D01*
X674330Y293670D01*
X674966Y294499D01*
X675366Y295464D01*
X675437Y296000D01*
D02*
G37*
G36*
X671000D02*
X667563D01*
X667634Y295464D01*
X668034Y294499D01*
X668670Y293670D01*
X669499Y293034D01*
X670464Y292634D01*
X671000Y292563D01*
Y296000D01*
D02*
G37*
%LPD*%
G36*
X665668Y412478D02*
X665511Y412243D01*
X665426Y411814D01*
X665426Y411814D01*
Y409453D01*
X665511Y409024D01*
X665754Y408660D01*
X666118Y408417D01*
X666547Y408331D01*
X666976Y408417D01*
X667200Y408566D01*
X667707Y408707D01*
X668071Y408464D01*
X668500Y408378D01*
X668929Y408464D01*
X669293Y408707D01*
X669967Y409380D01*
X674617D01*
X674933Y408880D01*
X674868Y408555D01*
Y407521D01*
X673431D01*
Y406526D01*
X672569D01*
Y407521D01*
X667431D01*
Y406526D01*
X666569D01*
Y407521D01*
X661432D01*
Y406526D01*
X660569D01*
Y407521D01*
X655432D01*
Y406781D01*
X651295D01*
X651088Y407281D01*
X656132Y412325D01*
X656241Y412275D01*
X656544Y412030D01*
X656478Y411700D01*
X656564Y411271D01*
X656807Y410907D01*
X657171Y410664D01*
X657600Y410578D01*
X658029Y410664D01*
X658393Y410907D01*
X660465Y412978D01*
X665478D01*
X665668Y412478D01*
D02*
G37*
G36*
X693378Y404235D02*
Y400167D01*
X692941Y400010D01*
X692878Y400008D01*
X692793Y400093D01*
X692429Y400336D01*
X692000Y400422D01*
X692000Y400421D01*
X683665D01*
X682622Y401465D01*
Y406200D01*
X682536Y406629D01*
X682293Y406993D01*
X682293Y406993D01*
X678470Y410816D01*
X678661Y411278D01*
X679935D01*
X681707Y409507D01*
X681707Y409507D01*
X682071Y409264D01*
X682500Y409178D01*
X682929Y409264D01*
X683293Y409507D01*
X683536Y409871D01*
X683622Y410300D01*
X683536Y410729D01*
X683293Y411093D01*
X683293Y411093D01*
X681193Y413193D01*
X680829Y413436D01*
X680496Y413503D01*
X680336Y413799D01*
X680289Y414003D01*
X681093Y414807D01*
X681336Y415171D01*
X681406Y415520D01*
X681516Y415599D01*
X681589Y415631D01*
X681922Y415692D01*
X693378Y404235D01*
D02*
G37*
G36*
X680378Y405735D02*
Y401000D01*
X680378Y401000D01*
X680464Y400571D01*
X680707Y400207D01*
X681894Y399020D01*
X681703Y398558D01*
X681471D01*
X681042Y398472D01*
X680678Y398229D01*
X680435Y397865D01*
X680349Y397436D01*
X680435Y397007D01*
X680678Y396643D01*
X680582Y396106D01*
X680464Y395929D01*
X680378Y395500D01*
X680464Y395071D01*
X680707Y394707D01*
X683178Y392235D01*
Y389991D01*
X683075Y389911D01*
X682678Y389770D01*
X682429Y389936D01*
X682000Y390021D01*
X681571Y389936D01*
X681207Y389693D01*
X680964Y389329D01*
X680878Y388900D01*
Y386265D01*
X679030Y384417D01*
X678569Y384608D01*
Y387722D01*
X673431D01*
Y386727D01*
X672569D01*
Y387722D01*
X667431D01*
Y386727D01*
X666569D01*
Y387722D01*
X661432D01*
Y386727D01*
X660569D01*
Y387722D01*
X655432D01*
Y387631D01*
X654553D01*
X654286Y388131D01*
X654398Y388300D01*
X654503Y388827D01*
Y399456D01*
X654531Y399475D01*
X654764Y399350D01*
X657500D01*
Y401622D01*
X656876D01*
X656684Y402084D01*
X657378Y402778D01*
X660569D01*
Y403773D01*
X661432D01*
Y402778D01*
X666569D01*
Y403773D01*
X667431D01*
Y402778D01*
X672569D01*
Y403773D01*
X673431D01*
Y402778D01*
X678569D01*
Y406838D01*
X679069Y407045D01*
X680378Y405735D01*
D02*
G37*
G36*
X684493Y417407D02*
X684493Y417407D01*
X684536Y417378D01*
X696278Y405635D01*
Y387765D01*
X690204Y381690D01*
X685829D01*
X685638Y382152D01*
X687293Y383807D01*
X687293Y383807D01*
X687536Y384171D01*
X687622Y384600D01*
X687536Y385029D01*
X687293Y385393D01*
X686929Y385636D01*
X686500Y385722D01*
X686071Y385636D01*
X685864Y385498D01*
X685410Y385781D01*
X685422Y385837D01*
X685422Y385837D01*
Y392700D01*
X685422Y392700D01*
X685336Y393129D01*
X685093Y393493D01*
X685093Y393493D01*
X682771Y395815D01*
X682979Y396315D01*
X687878D01*
Y392100D01*
X687964Y391671D01*
X688207Y391307D01*
X688571Y391064D01*
X689000Y390979D01*
X689429Y391064D01*
X689793Y391307D01*
X690036Y391671D01*
X690122Y392100D01*
Y396315D01*
X693736D01*
X693736Y396315D01*
X694165Y396400D01*
X694529Y396643D01*
X695293Y397407D01*
X695293Y397407D01*
X695536Y397771D01*
X695622Y398200D01*
Y404700D01*
X695622Y404700D01*
X695536Y405129D01*
X695293Y405493D01*
X695293Y405493D01*
X683777Y417009D01*
X683824Y417429D01*
X684288Y417611D01*
X684493Y417407D01*
D02*
G37*
G36*
X615346Y405847D02*
X615876Y405493D01*
X616500Y405369D01*
X647824D01*
X649197Y403996D01*
X649726Y403642D01*
X650350Y403518D01*
X653572D01*
X653763Y403056D01*
X652153Y401446D01*
X651855Y401000D01*
X651750Y400473D01*
Y388827D01*
X651855Y388300D01*
X651968Y388131D01*
X651700Y387631D01*
X643092D01*
X642900Y388093D01*
X643153Y388347D01*
X643507Y388876D01*
X643631Y389500D01*
X643507Y390124D01*
X643153Y390653D01*
X642624Y391007D01*
X642000Y391131D01*
X641376Y391007D01*
X640846Y390653D01*
X637824Y387631D01*
X590676D01*
X586154Y392154D01*
X585624Y392507D01*
X585000Y392631D01*
X560000D01*
X559376Y392507D01*
X558847Y392154D01*
X552846Y386154D01*
X552493Y385624D01*
X552369Y385000D01*
Y369500D01*
Y346000D01*
X552457Y345557D01*
X551996Y345311D01*
X543631Y353676D01*
Y444074D01*
X546301Y446744D01*
X574449D01*
X615346Y405847D01*
D02*
G37*
%LPC*%
G36*
X666968Y401622D02*
X666532Y401622D01*
X664500D01*
Y398850D01*
Y396079D01*
X666532D01*
X667031Y396079D01*
X667469Y396079D01*
X669500D01*
Y398850D01*
Y401622D01*
X667469D01*
X666968Y401622D01*
D02*
G37*
G36*
X673032Y401622D02*
X672532Y401622D01*
X670500D01*
Y398850D01*
Y396079D01*
X672532D01*
X672968Y396079D01*
X673468Y396079D01*
X675500D01*
Y398850D01*
Y401622D01*
X673468D01*
X673032Y401622D01*
D02*
G37*
G36*
X676500Y401622D02*
Y399350D01*
X678968D01*
Y401622D01*
X676500D01*
D02*
G37*
G36*
X661031Y401622D02*
X660532Y401622D01*
X658500D01*
Y398850D01*
Y396079D01*
X660532D01*
X660968Y396079D01*
X661469Y396079D01*
X663500D01*
Y398850D01*
Y401622D01*
X661469D01*
X661031Y401622D01*
D02*
G37*
G36*
X678968Y398350D02*
X676500D01*
Y396079D01*
X678968D01*
Y398350D01*
D02*
G37*
G36*
X657500D02*
X655031D01*
Y396079D01*
X657500D01*
Y398350D01*
D02*
G37*
G36*
X673032Y394421D02*
X672532Y394421D01*
X670500D01*
Y391650D01*
Y388878D01*
X672532D01*
X672968Y388878D01*
X673468Y388878D01*
X675500D01*
Y391650D01*
Y394421D01*
X673468D01*
X673032Y394421D01*
D02*
G37*
G36*
X667031Y394421D02*
X666532Y394421D01*
X664500D01*
Y391650D01*
Y388878D01*
X666532D01*
X666968Y388878D01*
X667469Y388878D01*
X669500D01*
Y391650D01*
Y394421D01*
X667469D01*
X667031Y394421D01*
D02*
G37*
G36*
X676500D02*
Y392150D01*
X678968D01*
Y394421D01*
X676500D01*
D02*
G37*
G36*
X657500Y394421D02*
X655031D01*
Y392150D01*
X657500D01*
Y394421D01*
D02*
G37*
G36*
X678968Y391150D02*
X676500D01*
Y388878D01*
X678968D01*
Y391150D01*
D02*
G37*
G36*
X661031Y394421D02*
X660532Y394421D01*
X658500D01*
Y391650D01*
Y388878D01*
X660532D01*
X660968Y388878D01*
X661469Y388878D01*
X663500D01*
Y391650D01*
Y394421D01*
X661469D01*
X661031Y394421D01*
D02*
G37*
G36*
X657500Y391150D02*
X655031D01*
Y388878D01*
X657500D01*
Y391150D01*
D02*
G37*
G36*
X558123Y402322D02*
X557694Y402236D01*
X557330Y401993D01*
X557330Y401993D01*
X547607Y392270D01*
X547364Y391906D01*
X547278Y391477D01*
X547278Y391477D01*
Y365041D01*
X545469Y363231D01*
X545225Y362868D01*
X545140Y362439D01*
X545225Y362009D01*
X545469Y361645D01*
X545832Y361402D01*
X546262Y361317D01*
X546691Y361402D01*
X546729Y361428D01*
X547089Y361067D01*
X547064Y361029D01*
X546978Y360600D01*
X547064Y360171D01*
X547307Y359807D01*
X547671Y359564D01*
X548100Y359478D01*
X548529Y359564D01*
X548893Y359807D01*
X551293Y362207D01*
X551293Y362207D01*
X551536Y362571D01*
X551622Y363000D01*
Y389435D01*
X559665Y397479D01*
X633400D01*
X633829Y397564D01*
X634193Y397807D01*
X634436Y398171D01*
X634522Y398600D01*
X634436Y399029D01*
X634193Y399393D01*
X633916Y399578D01*
X633963Y399984D01*
X633999Y400078D01*
X636100D01*
X636529Y400164D01*
X636893Y400407D01*
X637136Y400771D01*
X637222Y401200D01*
X637136Y401629D01*
X636893Y401993D01*
X636529Y402236D01*
X636100Y402321D01*
X558123D01*
X558123Y402322D01*
D02*
G37*
%LPD*%
D15*
X650331Y421468D02*
X653750Y418050D01*
X652300Y422284D02*
X655142Y419442D01*
X652300Y422284D02*
Y436400D01*
X664000Y391650D02*
X664800Y392450D01*
X664000Y398850D02*
X664800Y398050D01*
X546262Y362439D02*
X548400Y364577D01*
Y391477D01*
X548100Y360600D02*
X550500Y363000D01*
Y389900D02*
X559200Y398600D01*
X550500Y363000D02*
Y389900D01*
X648500Y377800D02*
Y378000D01*
X548400Y391477D02*
X558123Y401200D01*
X675200Y434200D02*
X682200D01*
X684700Y431700D01*
X684500Y371600D02*
X689100Y376200D01*
X684500Y356600D02*
Y371600D01*
X681700Y353800D02*
X684500Y356600D01*
X688900Y397436D02*
X693736D01*
X681471D02*
X688900D01*
X689000Y392100D02*
Y397336D01*
X688900Y397436D02*
X689000Y397336D01*
X682700Y357900D02*
Y380800D01*
X686500Y384600D01*
X668500Y409500D02*
X669502Y410502D01*
X677198D02*
X681500Y406200D01*
X669502Y410502D02*
X677198D01*
X667133Y412400D02*
X680400D01*
X682500Y410300D01*
X666547Y409453D02*
Y411814D01*
X667133Y412400D01*
X657600Y411700D02*
X660000Y414100D01*
X678800D02*
X680300Y415600D01*
X660000Y414100D02*
X678800D01*
X693000Y471300D02*
Y472752D01*
X682700Y461000D02*
X693000Y471300D01*
X682700Y455200D02*
Y461000D01*
X673200Y455200D02*
X677700D01*
X653000Y472752D02*
X654033Y471719D01*
X656681D01*
X673200Y455200D01*
X668400Y381700D02*
X670400D01*
X666400Y379700D02*
X668400Y381700D01*
X694500Y398200D02*
Y404700D01*
X684300Y385837D02*
Y392700D01*
X693736Y397436D02*
X694500Y398200D01*
X681500Y395500D02*
X684300Y392700D01*
X692000Y399300D02*
X692100Y399200D01*
X683200Y399300D02*
X692000D01*
X681500Y401000D02*
X683200Y399300D01*
X558123Y401200D02*
X636100D01*
X559200Y398600D02*
X633400D01*
X673463Y375000D02*
X684300Y385837D01*
X684731Y380569D02*
X690668D01*
X697400Y387300D01*
X673100Y376900D02*
X682000Y385800D01*
Y388900D01*
X662300Y375000D02*
X673463D01*
X659800Y376900D02*
X673100D01*
X650331Y421468D02*
Y439000D01*
X648500Y377800D02*
X655800Y370500D01*
X657800D01*
X662300Y375000D01*
X656100Y373200D02*
X659800Y376900D01*
X681500Y401000D02*
Y406200D01*
X680300Y415600D02*
Y423500D01*
X685286Y418200D02*
X685300D01*
X684700Y418786D02*
X685286Y418200D01*
X684700Y418786D02*
Y431700D01*
X685300Y418200D02*
X697400Y406100D01*
Y387300D02*
Y406100D01*
X682600Y416600D02*
Y421000D01*
Y416600D02*
X694500Y404700D01*
X678150Y467350D02*
Y477602D01*
X673000Y482752D02*
X678150Y477602D01*
X668652Y468348D02*
X677500Y459500D01*
X668652Y468348D02*
Y477100D01*
X663000Y482752D02*
X668652Y477100D01*
X569000Y335000D02*
X618000D01*
X560500Y343500D02*
X569000Y335000D01*
X595000Y375000D02*
X596500Y376500D01*
X595000Y365500D02*
Y375000D01*
Y365500D02*
X599000Y361500D01*
X567000Y363000D02*
X571382Y367382D01*
Y379118D01*
X515000Y97500D02*
Y500000D01*
Y97500D02*
X710500D01*
Y500000D01*
X515000D02*
X710500D01*
D44*
X527236Y330138D02*
D03*
D45*
X556764D02*
D03*
X527236Y251398D02*
D03*
X556764D02*
D03*
Y231713D02*
D03*
X527236D02*
D03*
D53*
X522039Y199000D02*
D03*
D54*
Y189000D02*
D03*
X551961D02*
D03*
Y199000D02*
D03*
D58*
X676000Y398850D02*
D03*
Y405150D02*
D03*
Y391650D02*
D03*
Y385350D02*
D03*
X670000Y391650D02*
D03*
Y385350D02*
D03*
Y398850D02*
D03*
Y405150D02*
D03*
X658000Y391650D02*
D03*
Y385350D02*
D03*
X664000Y405150D02*
D03*
Y398850D02*
D03*
X658000Y398850D02*
D03*
Y405150D02*
D03*
X664000Y385350D02*
D03*
Y391650D02*
D03*
D71*
X695500Y148500D02*
Y162500D01*
X671500Y186500D02*
X695500Y162500D01*
D72*
X569000Y285500D02*
X581000D01*
X589500Y294000D02*
Y311000D01*
X581000Y285500D02*
X589500Y294000D01*
X563000Y291500D02*
X569000Y285500D01*
X593500Y315000D02*
X601000D01*
X589500Y311000D02*
X593500Y315000D01*
X659000Y385350D02*
X664000D01*
X658000Y405150D02*
X670000D01*
X545625Y448375D02*
Y474922D01*
X543000Y477547D02*
X545625Y474922D01*
X662000Y462000D02*
X673000Y451000D01*
X657000Y467000D02*
X662000Y462000D01*
X651248Y481000D02*
X653000Y482752D01*
X648000Y481000D02*
X651248D01*
X646000Y470000D02*
Y479000D01*
X648000Y481000D01*
X646000Y470000D02*
X649000Y467000D01*
X657000D01*
X673000Y451000D02*
X691000D01*
X695000Y455000D01*
X693015Y460937D02*
X695000Y458953D01*
Y455000D02*
Y458953D01*
X525900Y340700D02*
Y354300D01*
X528900Y357300D01*
X525900Y340700D02*
X530400Y336200D01*
X550702D02*
X556764Y330138D01*
X530400Y336200D02*
X550702D01*
X675850Y438650D02*
X700750D01*
X667900Y430700D02*
X675850Y438650D01*
X653127Y388827D02*
Y400473D01*
X657803Y405150D01*
X658000D01*
X676000D02*
X676245Y405395D01*
Y408555D01*
X673000Y385350D02*
X676000D01*
X670000D02*
X673000D01*
X673100Y381900D02*
Y385250D01*
X673000Y385350D02*
X673100Y385250D01*
X664000Y385350D02*
X670000D01*
X676000D02*
X676000Y385350D01*
X670000Y405150D02*
X676000D01*
D73*
X638500Y386000D02*
X658350D01*
X636500D02*
X638500D01*
X590000D02*
X636500D01*
X702000Y367000D02*
Y371300D01*
X685000Y350000D02*
X702000Y367000D01*
X651500Y350000D02*
X685000D01*
X636500Y365000D02*
Y386000D01*
Y365000D02*
X651500Y350000D01*
X616500Y407000D02*
X648500D01*
X659500Y432100D02*
X659750Y432350D01*
X659500Y418000D02*
Y432100D01*
X648500Y407000D02*
X659500Y418000D01*
X658350Y386000D02*
X659000Y385350D01*
X638500Y386000D02*
X642000Y389500D01*
X585000Y391000D02*
X590000Y386000D01*
X560000Y391000D02*
X585000D01*
X554000Y385000D02*
X560000Y391000D01*
X554000Y369500D02*
Y385000D01*
Y346000D02*
Y369500D01*
X569547Y324000D02*
Y330453D01*
X554000Y346000D02*
X569547Y330453D01*
X566000Y296000D02*
Y329000D01*
X542000Y353000D02*
Y444750D01*
Y353000D02*
X566000Y329000D01*
X650350Y405150D02*
X657803D01*
X648500Y407000D02*
X650350Y405150D01*
X545625Y448375D02*
X575125D01*
X616500Y407000D01*
X542000Y444750D02*
X545625Y448375D01*
X566000Y296000D02*
X569500Y292500D01*
D74*
X702500Y105500D02*
D03*
X523000D02*
D03*
X530000Y414500D02*
D03*
D75*
X673000Y472752D02*
D03*
Y482752D02*
D03*
X653000Y472752D02*
D03*
X663000Y482752D02*
D03*
Y472752D02*
D03*
X683000Y482752D02*
D03*
X693000D02*
D03*
X683000Y472752D02*
D03*
X693000D02*
D03*
D76*
X653000Y482752D02*
D03*
D77*
X636500Y453500D02*
D03*
Y429000D02*
D03*
D78*
Y463500D02*
D03*
Y439000D02*
D03*
D79*
X695500Y148500D02*
D03*
X554000Y149000D02*
D03*
X596500Y135500D02*
D03*
D80*
X670500Y148500D02*
D03*
X529000Y149000D02*
D03*
D81*
X602000Y292764D02*
D03*
Y263236D02*
D03*
D82*
X636000Y258315D02*
D03*
D83*
Y297685D02*
D03*
D84*
X671500Y186500D02*
D03*
D85*
Y206500D02*
D03*
Y226500D02*
D03*
Y246500D02*
D03*
Y316500D02*
D03*
Y296500D02*
D03*
D86*
X582721Y135500D02*
D03*
D87*
X569500Y324000D02*
D03*
X702500Y426500D02*
D03*
X696000D02*
D03*
X700000Y420000D02*
D03*
X705000Y410000D02*
D03*
X700000Y400000D02*
D03*
X705000Y390000D02*
D03*
X700000Y380000D02*
D03*
Y360000D02*
D03*
X705000Y330000D02*
D03*
X700000Y320000D02*
D03*
X705000Y310000D02*
D03*
X700000Y300000D02*
D03*
X690000Y420000D02*
D03*
Y360000D02*
D03*
X695000Y330000D02*
D03*
X690000Y320000D02*
D03*
X695000Y310000D02*
D03*
X690000Y300000D02*
D03*
X680000Y360000D02*
D03*
Y340000D02*
D03*
X685000Y330000D02*
D03*
X680000Y320000D02*
D03*
X685000Y310000D02*
D03*
X680000Y300000D02*
D03*
X670000Y360000D02*
D03*
Y340000D02*
D03*
X675000Y330000D02*
D03*
Y310000D02*
D03*
X660000Y360000D02*
D03*
Y340000D02*
D03*
X665000Y330000D02*
D03*
X660000Y320000D02*
D03*
X665000Y310000D02*
D03*
X650000Y360000D02*
D03*
Y340000D02*
D03*
X655000Y330000D02*
D03*
X650000Y320000D02*
D03*
X640000Y420000D02*
D03*
Y380000D02*
D03*
Y340000D02*
D03*
Y320000D02*
D03*
X630000Y440000D02*
D03*
Y420000D02*
D03*
X635000Y390000D02*
D03*
X630000Y380000D02*
D03*
Y340000D02*
D03*
X635000Y330000D02*
D03*
X630000Y320000D02*
D03*
X625000Y490000D02*
D03*
X620000Y480000D02*
D03*
X625000Y390000D02*
D03*
Y370000D02*
D03*
X620000Y340000D02*
D03*
X625000Y330000D02*
D03*
X615000Y490000D02*
D03*
X610000Y480000D02*
D03*
Y460000D02*
D03*
Y420000D02*
D03*
X615000Y390000D02*
D03*
X610000Y340000D02*
D03*
X615000Y330000D02*
D03*
X605000Y490000D02*
D03*
X600000Y480000D02*
D03*
X605000Y470000D02*
D03*
X600000Y460000D02*
D03*
X605000Y450000D02*
D03*
X600000Y440000D02*
D03*
X605000Y430000D02*
D03*
Y410000D02*
D03*
Y390000D02*
D03*
Y330000D02*
D03*
X600000Y320000D02*
D03*
X595000Y490000D02*
D03*
X590000Y480000D02*
D03*
X595000Y470000D02*
D03*
Y450000D02*
D03*
X590000Y440000D02*
D03*
Y420000D02*
D03*
X595000Y410000D02*
D03*
Y350000D02*
D03*
X590000Y340000D02*
D03*
X595000Y330000D02*
D03*
X585000Y490000D02*
D03*
X580000Y480000D02*
D03*
X585000Y470000D02*
D03*
X580000Y460000D02*
D03*
X585000Y450000D02*
D03*
Y430000D02*
D03*
X580000Y420000D02*
D03*
X585000Y410000D02*
D03*
Y350000D02*
D03*
X575000Y490000D02*
D03*
X570000Y480000D02*
D03*
X575000Y470000D02*
D03*
X570000Y460000D02*
D03*
X575000Y430000D02*
D03*
Y410000D02*
D03*
Y350000D02*
D03*
X570000Y300000D02*
D03*
X565000Y490000D02*
D03*
X560000Y480000D02*
D03*
X565000Y470000D02*
D03*
X560000Y320000D02*
D03*
X555000Y490000D02*
D03*
X550000Y480000D02*
D03*
X555000Y470000D02*
D03*
X550000Y460000D02*
D03*
Y440000D02*
D03*
X555000Y430000D02*
D03*
X550000Y420000D02*
D03*
X555000Y410000D02*
D03*
X550000Y400000D02*
D03*
Y340000D02*
D03*
Y320000D02*
D03*
X540000Y460000D02*
D03*
X545000Y430000D02*
D03*
Y410000D02*
D03*
Y390000D02*
D03*
Y370000D02*
D03*
X535000Y490000D02*
D03*
X530000Y460000D02*
D03*
Y440000D02*
D03*
X535000Y430000D02*
D03*
X530000Y400000D02*
D03*
X535000Y390000D02*
D03*
X530000Y380000D02*
D03*
Y360000D02*
D03*
X535000Y350000D02*
D03*
X530000Y340000D02*
D03*
X535000Y330000D02*
D03*
X530000Y320000D02*
D03*
X525000Y490000D02*
D03*
X520000Y440000D02*
D03*
X525000Y430000D02*
D03*
X520000Y420000D02*
D03*
Y400000D02*
D03*
X525000Y390000D02*
D03*
X520000Y380000D02*
D03*
Y320000D02*
D03*
X563000Y291500D02*
D03*
X569500Y292500D02*
D03*
X582000Y278000D02*
D03*
X561500Y280000D02*
D03*
X561000Y301500D02*
D03*
X583000Y292000D02*
D03*
D88*
X528900Y357300D02*
D03*
X543000Y477547D02*
D03*
X546262Y362439D02*
D03*
X554000Y369500D02*
D03*
X567000Y363000D02*
D03*
X571382Y379118D02*
D03*
X590000Y386000D02*
D03*
X599000Y361500D02*
D03*
X601000Y315000D02*
D03*
X618000Y335000D02*
D03*
X633400Y398600D02*
D03*
X636100Y401200D02*
D03*
X642000Y389500D02*
D03*
X653127Y388827D02*
D03*
X653750Y418050D02*
D03*
X652300Y436400D02*
D03*
X650331Y439000D02*
D03*
X652000Y454000D02*
D03*
Y460000D02*
D03*
X657600Y411700D02*
D03*
X659750Y453150D02*
D03*
X662000Y462000D02*
D03*
X666400Y379700D02*
D03*
X670400Y381700D02*
D03*
X667400Y395500D02*
D03*
X670000D02*
D03*
X669800Y402100D02*
D03*
X667200D02*
D03*
X668500Y409500D02*
D03*
X666547Y409453D02*
D03*
X667900Y430700D02*
D03*
X673100Y381900D02*
D03*
X675200Y434200D02*
D03*
X677500Y459500D02*
D03*
X678150Y467350D02*
D03*
X681700Y353800D02*
D03*
X682700Y357900D02*
D03*
X684731Y380569D02*
D03*
X682000Y388900D02*
D03*
X681471Y397436D02*
D03*
X681500Y395500D02*
D03*
X682500Y410300D02*
D03*
X682600Y421000D02*
D03*
X693015Y460937D02*
D03*
X690000Y459000D02*
D03*
X692000Y457000D02*
D03*
X702000Y371300D02*
D03*
X700750Y438650D02*
D03*
X548100Y360600D02*
D03*
X545625Y448375D02*
D03*
X596500Y376500D02*
D03*
X641201Y407500D02*
D03*
X659750Y432350D02*
D03*
X676245Y408555D02*
D03*
X677700Y455200D02*
D03*
X686500Y384600D02*
D03*
X682700Y455200D02*
D03*
X689100Y376200D02*
D03*
X692100Y399200D02*
D03*
X689000Y392100D02*
D03*
X607800Y385000D02*
D03*
X656100Y373200D02*
D03*
X648500Y378000D02*
D03*
X664800Y395500D02*
D03*
X672800D02*
D03*
X664600Y402100D02*
D03*
X672700Y401900D02*
D03*
X655142Y419442D02*
D03*
X648000Y454000D02*
D03*
Y460000D02*
D03*
X656000D02*
D03*
X560500Y343500D02*
D03*
X680300Y423500D02*
D03*
D89*
X573531Y331000D02*
D03*
X577468D02*
D03*
Y299500D02*
D03*
X573531D02*
D03*
D90*
X537500Y209500D02*
X542500Y214500D01*
X529000Y164600D02*
X537000Y172600D01*
X542500Y214500D02*
X554000Y226000D01*
X537000Y172600D02*
Y209500D01*
X529000Y149000D02*
Y164600D01*
X555000Y124000D02*
X569000Y110000D01*
X681500D01*
X555000Y124000D02*
Y142500D01*
X695500Y124000D02*
Y142000D01*
X681500Y110000D02*
X695500Y124000D01*
X537000Y209500D02*
Y220000D01*
X529500Y256500D02*
X564500D01*
X670500Y150500D01*
X537000Y209500D02*
X537500D01*
X530500Y226500D02*
X537000Y220000D01*
M02*
