M48
;Layer_Color=9474304
;FILE_FORMAT=2:5
INCH,LZ
;TYPE=PLATED
T1F00S00C0.00600
T2F00S00C0.00787
T3F00S00C0.01000
T4F00S00C0.03150
T5F00S00C0.03740
T6F00S00C0.03937
T7F00S00C0.04331
T8F00S00C0.04724
T9F00S00C0.05118
T10F00S00C0.12000
%
T01
X05289Y03573
X0546262Y0362439
X05481Y03606
X0554Y03695
X0567Y0363
X0571382Y0379118
X059Y0386
X05965Y03765
X0599Y03615
X06078Y0385
X0618Y0335
X0601Y0315
X05605Y03435
X0545625Y0448375
X0648Y0454
X0652
Y046
X0648
X0656
X0662Y0462
X065975Y045315
X06777Y04552
X06775Y04595
X067815Y046735
X06827Y04552
X069Y0459
X0692Y0457
X0693015Y0460937
X070075Y043865
X06752Y04342
X06679Y04307
X065975Y043235
X06523Y04364
X0650331Y0439
X065375Y041805
X0655142Y0419442
X06576Y04117
X0666547Y0409453
X06685Y04095
X0676245Y0408555
X06825Y04103
X06826Y0421
X06803Y04235
X0681471Y0397436
X06815Y03955
X0682Y03889
X06865Y03846
X0684731Y0380569
X06891Y03762
X0689Y03921
X06921Y03992
X06727Y04019
X06698Y04021
X06672
X06646
X06648Y03955
X06674
X067
X06728
X06731Y03819
X06704Y03817
X06664Y03797
X06561Y03732
X06485Y0378
X0653127Y0388827
X0642Y03895
X06361Y04012
X06334Y03986
X0641201Y04075
X06827Y03579
X06817Y03538
X0702Y03713
X0543Y0477547
T02
X0573531Y02995
X0577468
Y0331
X0573531
T03
X0665Y031
X0675
X0685
X0695
X0705
X07Y03
X069
X068
X0583Y0292
X05695Y02925
X0563Y02915
X0561Y03015
X057Y03
X05615Y028
X0582Y0278
X05695Y0324
X056Y032
X055
Y034
X053
X0535Y035
X053Y036
Y038
X052
X0525Y039
X0535
X0545
X055Y04
X0555Y041
X0545
X055Y042
X0555Y043
X0545
X0535
X0525
X053Y044
X052
Y042
Y04
X053
X0545Y037
X0575Y035
X0585
X0595
X059Y034
X0595Y033
X0605
X0615
X062Y034
X061
X06Y032
X053
X052
X0535Y033
X0575Y041
X0585
X0595
X0605
X061Y042
X0605Y043
X06Y044
X059
X0595Y045
X0605
X061Y046
X06
X058
X057
X055
X054
X053
X055Y044
X0575Y043
X0585
X059Y042
X058
X0585Y045
X0605Y039
X0615
X0625
X0635
X064Y038
X063
X0625Y037
X065Y036
X066
X067
X068
X069
X07
Y038
X0705Y039
X07Y04
X0705Y041
X07Y042
X07025Y04265
X0696
X069Y042
X064
X063
Y044
Y034
X064
X065
X066
X067
X068
X0685Y033
X0695
X0705
X07Y032
X069
X068
X0675Y033
X0665
X0655
X066Y032
X065
X064
X063
X0635Y033
X0625
Y049
X0615
X0605
X0595
X0585
X0575
X0565
X0555
X056Y048
X057
X058
X059
X06
X061
X062
X0605Y047
X0595
X0585
X0575
X0565
X0555
X055Y048
X0535Y049
X0525
T04
X0522039Y0189
Y0199
X0551961
Y0189
X0602Y0263236
Y0292764
T05
X0636Y0258315
Y0297685
T06
X06715Y01865
Y02065
Y02265
Y02465
Y02965
Y03165
T07
X06365Y0429
Y0439
Y04535
Y04635
X0653Y0472752
Y0482752
X0663
X0673
Y0472752
X0663
X0683
Y0482752
X0693
Y0472752
T08
X0582721Y01355
X05965
T09
X0529Y0149
X0554
X06705Y01485
X06955
X0556764Y0231713
Y0251398
X0527236
Y0231713
Y0330138
X0556764
T10
X0523Y01055
X07025
X053Y04145
M30
